<svg width="180" height="180" viewBox="0 0 180 180" fill="none" xmlns="http://www.w3.org/2000/svg">
<rect width="180" height="180" rx="45" fill="#9255D8"/>
<path d="M119 118C112 126.5 98.6984 127.33 91.3333 127.333C85.1739 127.349 79.0978 125.91 73.6 123.133L47 132L55.8667 105.4C53.0897 99.9022 51.6506 93.8261 51.6667 87.6667C51.6695 80.3016 53.7228 73.0827 57.5967 66.8187C61.4705 60.5546 67.0118 55.4928 73.6 52.2001C79.0978 49.4231 85.1739 47.9841 91.3333 48.0001H93.6666C103.394 48.5368 109.612 50.6116 116.5 57.5" stroke="white" stroke-width="10" stroke-linecap="round" stroke-linejoin="round"/>
<path d="M108.8 103H90.08V98.88L99.64 89.04C101.773 86.7733 102.84 84.9067 102.84 83.44C102.84 82.3467 102.493 81.4667 101.8 80.8C101.133 80.1333 100.267 79.8 99.2 79.8C97.0667 79.8 95.5067 80.8933 94.52 83.08L89.88 80.36C90.7333 78.4667 91.9733 77.0133 93.6 76C95.2533 74.96 97.0933 74.44 99.12 74.44C101.653 74.44 103.827 75.24 105.64 76.84C107.453 78.4133 108.36 80.5467 108.36 83.24C108.36 86.1467 106.827 89.1333 103.76 92.2L98.28 97.68H108.8V103ZM129.382 93.12H132.382V98.24H129.382V103H123.822V98.24H110.582V93.12L119.902 75H125.822L116.542 93.12H123.822V86.48H129.382V93.12Z" fill="white"/>
</svg>
