<svg width="622" height="425" viewBox="0 0 622 425" fill="none" xmlns="http://www.w3.org/2000/svg">
<path d="M31 418.163C11.8 417.363 2.33333 422.163 0 424.663V0.662582C208.5 0.162582 624.7 -0.537418 621.5 0.662582C617.5 2.16258 601.127 14.7314 599.5 26.6626C597 45 567.5 74.1626 537.5 80.1626C507.5 86.1626 493.5 121.663 486.5 131.663C479.5 141.663 401.5 187.163 369 188.663C336.5 190.163 277 212.663 259.5 243.663C242 274.663 232 270.163 218.5 277.663C205 285.163 197.5 300.663 194 308.663C190.5 316.663 173.5 348.163 141.5 348.163C109.5 348.163 93.5 363 84 376.663C78.1781 385.035 55 419.163 31 418.163Z" fill="#F55302"/>
</svg>
