<svg width="206" height="34" viewBox="0 0 206 34" fill="none" xmlns="http://www.w3.org/2000/svg">
<path d="M8.45424 0.925876L16.6322 26.7359H17.0382L23.9982 0.925876H32.7562L39.8902 26.7359H40.2382L48.5902 0.925876H56.1882L44.6462 32.9999H34.6702L28.4642 8.92988H28.1162L21.7942 32.9999H11.9342L0.740234 0.925876H8.45424Z" fill="black"/>
<path d="M89.8092 0.925876V7.47988H67.9432V13.3959H87.6052V19.9499H67.9432V26.3299H90.6212V32.9999H60.6932V0.925876H89.8092Z" fill="black"/>
<path d="M114.945 0.925876C116.84 0.925876 118.58 1.23521 120.165 1.85388C121.789 2.43388 123.181 3.28454 124.341 4.40588C125.54 5.48854 126.468 6.80321 127.125 8.34988C127.821 9.89654 128.169 11.6172 128.169 13.5119C128.169 15.4065 127.821 17.1272 127.125 18.6739C126.468 20.1819 125.54 21.4772 124.341 22.5599C123.181 23.6039 121.789 24.4159 120.165 24.9959C118.58 25.5759 116.84 25.8659 114.945 25.8659H103.287V32.9999H96.037V0.925876H114.945ZM103.287 19.2539H114.655C116.511 19.2539 118.019 18.7705 119.179 17.8039C120.339 16.7985 120.919 15.3679 120.919 13.5119C120.919 11.6559 120.339 10.2059 119.179 9.16188C118.019 8.07921 116.511 7.53788 114.655 7.53788H103.287V19.2539Z" fill="black"/>
<path d="M151.761 0.925876C153.656 0.925876 155.396 1.23521 156.981 1.85388C158.605 2.43388 159.997 3.28454 161.157 4.40588C162.356 5.48854 163.284 6.80321 163.941 8.34988C164.637 9.89654 164.985 11.6172 164.985 13.5119C164.985 15.9865 164.425 18.1325 163.303 19.9499C162.182 21.7672 160.674 23.1785 158.779 24.1839L163.709 32.9999H155.821L152.051 25.8659H140.103V32.9999H132.853V0.925876H151.761ZM140.103 19.2539H151.471C153.327 19.2539 154.835 18.7705 155.995 17.8039C157.155 16.7985 157.735 15.3679 157.735 13.5119C157.735 11.6559 157.155 10.2059 155.995 9.16188C154.835 8.07921 153.327 7.53788 151.471 7.53788H140.103V19.2539Z" fill="black"/>
<path d="M176.456 16.9919C176.456 18.6545 176.726 20.1432 177.268 21.4579C177.848 22.7725 178.602 23.8939 179.53 24.8219C180.496 25.7112 181.637 26.4072 182.952 26.9099C184.266 27.3739 185.678 27.6059 187.186 27.6059C188.694 27.6059 190.105 27.3739 191.42 26.9099C192.734 26.4072 193.856 25.7112 194.784 24.8219C195.75 23.8939 196.504 22.7725 197.046 21.4579C197.626 20.1432 197.916 18.6545 197.916 16.9919C197.916 15.3292 197.626 13.8405 197.046 12.5259C196.504 11.2112 195.75 10.1092 194.784 9.21988C193.856 8.29188 192.734 7.59588 191.42 7.13188C190.105 6.62921 188.694 6.37788 187.186 6.37788C185.678 6.37788 184.266 6.62921 182.952 7.13188C181.637 7.59588 180.496 8.29188 179.53 9.21988C178.602 10.1092 177.848 11.2112 177.268 12.5259C176.726 13.8405 176.456 15.3292 176.456 16.9919ZM205.166 16.9919C205.166 19.5052 204.682 21.8059 203.716 23.8939C202.749 25.9432 201.454 27.7025 199.83 29.1719C198.206 30.6412 196.292 31.7819 194.088 32.5939C191.922 33.4059 189.622 33.8119 187.186 33.8119C184.75 33.8119 182.43 33.4059 180.226 32.5939C178.06 31.7819 176.166 30.6412 174.542 29.1719C172.918 27.7025 171.622 25.9432 170.656 23.8939C169.689 21.8059 169.206 19.5052 169.206 16.9919C169.206 14.4785 169.689 12.1972 170.656 10.1479C171.622 8.05988 172.918 6.28121 174.542 4.81188C176.166 3.34254 178.06 2.20188 180.226 1.38988C182.43 0.577876 184.75 0.171875 187.186 0.171875C189.622 0.171875 191.922 0.577876 194.088 1.38988C196.292 2.20188 198.206 3.34254 199.83 4.81188C201.454 6.28121 202.749 8.05988 203.716 10.1479C204.682 12.1972 205.166 14.4785 205.166 16.9919Z" fill="black"/>
</svg>
