<svg width="606" height="157" viewBox="0 0 606 157" fill="none" xmlns="http://www.w3.org/2000/svg">
<path d="M120.3 0H51.4C23 0 0 23 0 51.4V120.3C0 124.8 0.6 129.9 1.7 134C5.5 148.4 18.1 156.4 30.9 156.4C36 156.4 41.1 155.1 45.6 152.5C46.1 152.2 46.6 151.9 47.1 151.6C47.5 151.4 47.8 151.1 48.2 150.9C48.5 150.7 48.8 150.5 49 150.3C49.2 150.1 49.4 150 49.6 149.8C50 149.5 50.3 149.2 50.7 148.9C51.2 148.5 51.6 148.1 52 147.6C52.2 147.4 52.4 147.2 52.7 146.9C53.1 146.4 53.5 146 53.9 145.5C54.3 145 54.7 144.5 55.1 144L81.8 106.6C81.9 106.4 82.1 106.3 82.2 106.1C84 104.1 87.2 104.1 89 106.1C89.1 106.2 89.3 106.4 89.4 106.6L116.6 144.1C117 144.6 117.3 145.1 117.7 145.6C118.6 146.6 119.5 147.6 120.4 148.5C120.6 148.7 120.8 148.9 121 149C121.2 149.2 121.4 149.4 121.7 149.6C121.9 149.8 122.2 150 122.4 150.2C122.6 150.4 122.9 150.6 123.1 150.8C123.3 151 123.6 151.1 123.8 151.3C124 151.5 124.3 151.6 124.5 151.8C124.8 152 125 152.1 125.3 152.3C125.5 152.4 125.8 152.6 126 152.7C126.8 153.1 127.6 153.5 128.4 153.9C128.7 154 128.9 154.1 129.2 154.3C129.5 154.4 129.7 154.5 130 154.6C130.5 154.8 131.1 155 131.6 155.2C132.1 155.4 132.6 155.5 133.2 155.7C134.3 156 135.3 156.2 136.4 156.4C136.7 156.4 136.9 156.5 137.2 156.5C137.4 156.5 137.7 156.6 137.9 156.6C138.1 156.6 138.2 156.6 138.4 156.6C138.7 156.6 138.9 156.6 139.2 156.7C139.4 156.7 139.5 156.7 139.7 156.7C140.1 156.7 140.6 156.7 141 156.7H141.1C141.5 156.7 141.9 156.7 142.3 156.7C154.1 156.2 165.5 148.9 169.5 136C171 131.1 171.8 126 171.8 120.6V51.4C171.7 23 148.7 0 120.3 0ZM138.3 78.8C137.9 79.3 137.5 79.8 137.1 80.3C135 82.7 132.1 84.3 129.1 85.7C123.8 88.3 118.1 89.7 112.4 90.8C99.9 93.2 87.3 93.7 74.6 92.8C66 92.3 57.5 91 49.2 88.4C45.7 87.3 42.3 86 39.2 84.1C38.8 83.8 38.3 83.6 37.9 83.3C37.5 83 37.1 82.7 36.7 82.4C36.5 82.2 36.3 82.1 36 81.9C35.9 81.8 35.7 81.7 35.6 81.6C35.4 81.4 35.2 81.2 34.9 81C34.3 80.4 33.7 79.7 33.2 79C32.5 78 32 77 31.7 75.8C31.6 75.3 31.5 74.7 31.5 74.2C31.4 73.4 31.5 72.6 31.7 71.9C31.8 71.6 31.8 71.3 31.9 71.1C32 70.8 32.1 70.5 32.2 70.3C32.7 69.2 33.4 68.2 34.2 67.3C34.4 67.1 34.6 66.9 34.7 66.8C37.4 64.1 40.6 62.3 44.1 60.9C45.4 60.4 46.7 59.9 48.1 59.5C48.8 59.3 49.4 59.1 50.1 58.8C50.8 58.5 51.4 58.4 52.1 58.2C52.4 58.1 52.6 58 52.8 57.8C52.9 57.7 53 57.6 53 57.5C53.1 57.4 53.1 57.3 53.2 57.1C54.8 52.9 57 49.3 59.6 46.2C60.1 45.6 60.6 45.1 61.1 44.6C65.9 39.7 72.1 36.4 79.8 35C90.9 32.9 102.3 36.9 110.1 44.7C113.4 48.1 116.1 52.1 117.8 56.7C118 57.2 118.2 57.5 118.5 57.8C118.8 58.1 119.1 58.3 119.6 58.4C124 59.6 128.3 61.1 132.2 63.5C134.2 64.7 136.1 66.1 137.5 67.8C138.3 68.8 138.9 69.8 139.4 71.1C139.6 71.6 139.7 72.1 139.9 72.6V75.4C139.6 76.5 139.2 77.4 138.7 78.3C138.6 78.3 138.5 78.6 138.3 78.8Z" fill="#fff"/>
<path d="M221.88 22.76L232.04 57H232.36L241 22.76H254.36L262.92 57H263.24L273.72 22.76H286.12L270.04 67H254.76L247.48 36.04L239.88 67H224.84L209.4 22.76H221.88ZM333.608 22.76V33.4H304.648V39.24H330.648V49.88H304.648V56.12H334.648V67H292.888V22.76H333.608ZM368.676 22.76C371.343 22.76 373.796 23.1867 376.036 24.04C378.33 24.8933 380.276 26.0933 381.876 27.64C383.53 29.1867 384.81 31.0533 385.716 33.24C386.676 35.3733 387.156 37.7467 387.156 40.36C387.156 42.9733 386.676 45.3467 385.716 47.48C384.81 49.6133 383.53 51.4267 381.876 52.92C380.276 54.4133 378.33 55.56 376.036 56.36C373.796 57.16 371.343 57.56 368.676 57.56H354.276V67H342.516V22.76H368.676ZM354.276 46.84H368.196C370.276 46.84 371.983 46.3067 373.316 45.24C374.65 44.1733 375.316 42.5467 375.316 40.36C375.316 38.2267 374.65 36.5467 373.316 35.32C371.983 34.0933 370.276 33.48 368.196 33.48H354.276V46.84ZM420.257 22.76C422.924 22.76 425.377 23.1867 427.617 24.04C429.911 24.8933 431.857 26.0933 433.457 27.64C435.111 29.1867 436.391 31.0533 437.297 33.24C438.257 35.3733 438.737 37.7467 438.737 40.36C438.737 43.6667 438.017 46.5467 436.577 49C435.191 51.4533 433.244 53.4267 430.737 54.92L437.457 67H424.657L419.617 57.56H405.857V67H394.097V22.76H420.257ZM405.857 46.84H419.777C421.857 46.84 423.564 46.3067 424.897 45.24C426.231 44.1733 426.897 42.5467 426.897 40.36C426.897 38.2267 426.231 36.5467 424.897 35.32C423.564 34.0933 421.857 33.48 419.777 33.48H405.857V46.84ZM456.962 44.92C456.962 46.9467 457.282 48.7867 457.922 50.44C458.616 52.04 459.549 53.4267 460.722 54.6C461.949 55.72 463.336 56.6 464.882 57.24C466.482 57.8267 468.216 58.12 470.082 58.12C471.896 58.12 473.602 57.8267 475.202 57.24C476.802 56.6 478.189 55.72 479.362 54.6C480.536 53.4267 481.442 52.04 482.082 50.44C482.776 48.7867 483.122 46.9467 483.122 44.92C483.122 42.8933 482.776 41.08 482.082 39.48C481.442 37.8267 480.536 36.44 479.362 35.32C478.189 34.1467 476.802 33.2667 475.202 32.68C473.602 32.04 471.896 31.72 470.082 31.72C468.216 31.72 466.482 32.04 464.882 32.68C463.336 33.2667 461.949 34.1467 460.722 35.32C459.549 36.44 458.616 37.8267 457.922 39.48C457.282 41.08 456.962 42.8933 456.962 44.92ZM494.962 44.92C494.962 48.3867 494.269 51.56 492.883 54.44C491.549 57.2667 489.736 59.6933 487.443 61.72C485.203 63.7467 482.563 65.32 479.522 66.44C476.536 67.56 473.389 68.12 470.082 68.12C466.776 68.12 463.602 67.56 460.562 66.44C457.576 65.32 454.936 63.7467 452.642 61.72C450.402 59.6933 448.589 57.2667 447.202 54.44C445.869 51.56 445.202 48.3867 445.202 44.92C445.202 41.4533 445.869 38.3067 447.202 35.48C448.589 32.6 450.402 30.1467 452.642 28.12C454.936 26.0933 457.576 24.52 460.562 23.4C463.602 22.28 466.776 21.72 470.082 21.72C473.389 21.72 476.536 22.28 479.522 23.4C482.563 24.52 485.203 26.0933 487.443 28.12C489.736 30.1467 491.549 32.6 492.883 35.48C494.269 38.3067 494.962 41.4533 494.962 44.92ZM228.84 113.28H244.44L237.72 96.24H235.88L228.84 113.28ZM245.48 85.76L264.28 130H251.8L249 123.52H224.52L221.8 130H209.16L228.36 85.76H245.48ZM306.671 102.48C305.018 100.08 303.125 98.2667 300.991 97.04C298.911 95.76 296.165 95.12 292.751 95.12C288.805 95.12 285.631 96.2667 283.231 98.56C280.885 100.853 279.711 103.973 279.711 107.92C279.711 109.84 280.031 111.6 280.671 113.2C281.311 114.747 282.191 116.08 283.311 117.2C284.485 118.32 285.871 119.2 287.471 119.84C289.071 120.427 290.831 120.72 292.751 120.72C296.111 120.72 298.858 120.107 300.991 118.88C303.178 117.653 305.045 115.84 306.591 113.44L315.711 118.56C313.471 122.773 310.431 125.92 306.591 128C302.805 130.08 298.245 131.12 292.911 131.12C289.338 131.12 286.031 130.587 282.991 129.52C279.951 128.453 277.311 126.933 275.071 124.96C272.885 122.933 271.151 120.48 269.871 117.6C268.645 114.72 268.031 111.493 268.031 107.92C268.031 104.347 268.671 101.147 269.951 98.32C271.231 95.44 272.991 93.0133 275.231 91.04C277.471 89.0133 280.085 87.4667 283.071 86.4C286.111 85.28 289.391 84.72 292.911 84.72C303.578 84.72 311.205 88.9067 315.791 97.28L306.671 102.48ZM339.034 113.28H354.634L347.914 96.24H346.074L339.034 113.28ZM355.674 85.76L374.474 130H361.994L359.194 123.52H334.714L331.994 130H319.354L338.554 85.76H355.674ZM404.487 85.76C407.42 85.76 410.3 86.2933 413.127 87.36C416.007 88.4267 418.567 89.9467 420.807 91.92C423.047 93.84 424.86 96.16 426.247 98.88C427.634 101.6 428.327 104.587 428.327 107.84C428.327 111.093 427.634 114.08 426.247 116.8C424.914 119.52 423.127 121.867 420.887 123.84C418.647 125.76 416.087 127.28 413.207 128.4C410.38 129.467 407.474 130 404.487 130H381.207V85.76H404.487ZM392.967 119.2H404.647C406.3 119.2 407.847 118.907 409.287 118.32C410.727 117.733 411.98 116.933 413.047 115.92C414.167 114.907 415.02 113.707 415.607 112.32C416.247 110.933 416.567 109.44 416.567 107.84C416.567 106.24 416.247 104.747 415.607 103.36C415.02 101.973 414.167 100.773 413.047 99.76C411.98 98.6933 410.727 97.8667 409.287 97.28C407.847 96.6933 406.3 96.4 404.647 96.4H392.967V119.2ZM476.789 85.76V96.4H447.829V102.24H473.829V112.88H447.829V119.12H477.829V130H436.069V85.76H476.789ZM500.658 85.76L514.418 115.28H514.738L529.618 85.76H543.778V130H532.018V102.16L519.138 130H509.698L497.058 102.16V130H485.618V85.76H500.658ZM564.282 85.76L577.162 107.92H577.482L589.802 85.76H603.322L582.762 118.96V130H571.162V118.96L550.762 85.76H564.282Z" fill="#fff"/>
</svg>
