<svg width="1392" height="364" viewBox="0 0 1392 364" fill="none" xmlns="http://www.w3.org/2000/svg">
<path d="M278.65 0H119.058C53.2748 0 0 53.2842 0 119.079V278.7C0 289.125 1.38978 300.94 3.9377 310.439C12.7396 343.799 41.9249 362.333 71.5735 362.333C83.3866 362.333 95.1997 359.321 105.623 353.298C106.781 352.603 107.939 351.908 109.097 351.213C110.024 350.749 110.719 350.054 111.645 349.591C112.34 349.127 113.035 348.664 113.498 348.201C113.962 347.737 114.425 347.506 114.888 347.042C115.815 346.347 116.51 345.652 117.436 344.957C118.594 344.031 119.521 343.104 120.447 341.946C120.911 341.482 121.374 341.019 122.069 340.324C122.995 339.166 123.922 338.239 124.848 337.081C125.775 335.922 126.701 334.764 127.628 333.606L189.473 246.961C189.704 246.497 190.168 246.266 190.399 245.802C194.569 241.169 201.981 241.169 206.15 245.802C206.382 246.034 206.845 246.497 207.077 246.961L270.08 333.837C271.006 334.996 271.701 336.154 272.628 337.312C274.712 339.629 276.797 341.946 278.882 344.031C279.345 344.494 279.808 344.957 280.272 345.189C280.735 345.652 281.198 346.116 281.893 346.579C282.356 347.042 283.051 347.506 283.514 347.969C283.978 348.432 284.672 348.896 285.136 349.359C285.599 349.822 286.294 350.054 286.757 350.518C287.22 350.981 287.915 351.213 288.379 351.676C289.073 352.139 289.537 352.371 290.232 352.834C290.695 353.066 291.39 353.529 291.853 353.761C293.706 354.688 295.559 355.614 297.412 356.541C298.107 356.773 298.57 357.004 299.265 357.468C299.96 357.699 300.423 357.931 301.118 358.163C302.276 358.626 303.666 359.089 304.824 359.553C305.982 360.016 307.141 360.248 308.53 360.711C311.078 361.406 313.395 361.869 315.942 362.333C316.637 362.333 317.101 362.564 317.795 362.564C318.259 362.564 318.954 362.796 319.417 362.796C319.88 362.796 320.112 362.796 320.575 362.796C321.27 362.796 321.733 362.796 322.428 363.028C322.891 363.028 323.123 363.028 323.586 363.028C324.513 363.028 325.671 363.028 326.597 363.028H326.829C327.756 363.028 328.682 363.028 329.609 363.028C356.941 361.869 383.347 344.957 392.612 315.072C396.086 303.72 397.939 291.905 397.939 279.395V119.079C397.708 53.2842 344.433 0 278.65 0ZM320.343 182.556C319.417 183.715 318.49 184.873 317.564 186.031C312.7 191.592 305.982 195.298 299.034 198.542C286.757 204.565 273.554 207.808 260.351 210.357C231.398 215.917 202.212 217.075 172.796 214.99C152.875 213.832 133.187 210.82 113.962 204.797C105.855 202.248 97.9792 199.237 90.7987 194.835C89.8722 194.14 88.7141 193.677 87.7875 192.982C86.861 192.287 85.9345 191.592 85.008 190.897C84.5447 190.433 84.0815 190.202 83.3866 189.738C83.1549 189.506 82.6917 189.275 82.4601 189.043C81.9968 188.58 81.5335 188.116 80.8387 187.653C79.4489 186.263 78.0591 184.641 76.901 183.02C75.2795 180.703 74.1214 178.386 73.4265 175.606C73.1949 174.448 72.9633 173.058 72.9633 171.9C72.7316 170.046 72.9633 168.193 73.4265 166.571C73.6581 165.876 73.6581 165.181 73.8898 164.718C74.1214 164.023 74.353 163.328 74.5847 162.864C75.7428 160.316 77.3642 157.999 79.2172 155.914C79.6805 155.451 80.1438 154.988 80.3754 154.756C86.6294 148.501 94.0415 144.331 102.149 141.087C105.16 139.929 108.171 138.771 111.414 137.844C113.035 137.381 114.425 136.917 116.046 136.222C117.668 135.527 119.057 135.296 120.679 134.832C121.374 134.601 121.837 134.369 122.3 133.906C122.532 133.674 122.764 133.442 122.764 133.211C122.995 132.979 122.995 132.747 123.227 132.284C126.933 122.554 132.029 114.214 138.051 107.032C139.209 105.642 140.367 104.483 141.526 103.325C152.644 91.9732 167.005 84.3281 184.84 81.0847C210.551 76.2196 236.957 85.4864 255.024 103.557C262.668 111.434 268.922 120.7 272.859 131.357C273.323 132.516 273.786 133.211 274.481 133.906C275.176 134.601 275.871 135.064 277.029 135.296C287.22 138.076 297.18 141.551 306.214 147.111C310.847 149.891 315.248 153.134 318.49 157.073C320.343 159.389 321.733 161.706 322.891 164.718C323.355 165.876 323.586 167.034 324.049 168.193V174.68C323.355 177.228 322.428 179.313 321.27 181.398C321.038 181.398 320.807 182.093 320.343 182.556Z" fill="#fff"/>
<path d="M520.957 110.684L553.364 220.125H554.384L581.943 110.684H624.557L651.861 220.125H652.882L686.309 110.684H725.861L674.571 252.088H625.833L602.612 153.13L578.371 252.088H530.398L481.149 110.684H520.957ZM877.333 110.684V144.692H784.96V163.359H867.891V197.367H784.96V217.312H880.65V252.088H747.449V110.684H877.333ZM989.188 110.684C997.695 110.684 1005.52 112.047 1012.66 114.775C1019.98 117.502 1026.19 121.338 1031.29 126.281C1036.57 131.225 1040.65 137.191 1043.54 144.181C1046.6 150.999 1048.13 158.586 1048.13 166.938C1048.13 175.291 1046.6 182.877 1043.54 189.696C1040.65 196.515 1036.57 202.311 1031.29 207.084C1026.19 211.857 1019.98 215.522 1012.66 218.079C1005.52 220.636 997.695 221.915 989.188 221.915H943.257V252.088H905.746V110.684H989.188ZM943.257 187.651H987.657C994.292 187.651 999.737 185.946 1003.99 182.536C1008.24 179.127 1010.37 173.928 1010.37 166.938C1010.37 160.12 1008.24 154.75 1003.99 150.829C999.737 146.908 994.292 144.948 987.657 144.948H943.257V187.651ZM1153.72 110.684C1162.22 110.684 1170.05 112.047 1177.19 114.775C1184.51 117.502 1190.72 121.338 1195.82 126.281C1201.09 131.225 1205.18 137.191 1208.07 144.181C1211.13 150.999 1212.66 158.586 1212.66 166.938C1212.66 177.508 1210.36 186.713 1205.77 194.555C1201.35 202.396 1195.14 208.704 1187.14 213.477L1208.58 252.088H1167.75L1151.67 221.915H1107.78V252.088H1070.27V110.684H1153.72ZM1107.78 187.651H1152.18C1158.82 187.651 1164.26 185.946 1168.52 182.536C1172.77 179.127 1174.89 173.928 1174.89 166.938C1174.89 160.12 1172.77 154.75 1168.52 150.829C1164.26 146.908 1158.82 144.948 1152.18 144.948H1107.78V187.651ZM1270.79 181.514C1270.79 187.992 1271.81 193.873 1273.85 199.157C1276.07 204.271 1279.04 208.704 1282.79 212.454C1286.7 216.034 1291.12 218.846 1296.05 220.892C1301.16 222.767 1306.69 223.705 1312.64 223.705C1318.43 223.705 1323.87 222.767 1328.97 220.892C1334.08 218.846 1338.5 216.034 1342.24 212.454C1345.99 208.704 1348.88 204.271 1350.92 199.157C1353.13 193.873 1354.23 187.992 1354.23 181.514C1354.23 175.036 1353.13 169.24 1350.92 164.126C1348.88 158.841 1345.99 154.409 1342.24 150.829C1338.5 147.079 1334.08 144.266 1328.97 142.391C1323.87 140.345 1318.43 139.322 1312.64 139.322C1306.69 139.322 1301.16 140.345 1296.05 142.391C1291.12 144.266 1286.7 147.079 1282.79 150.829C1279.04 154.409 1276.07 158.841 1273.85 164.126C1271.81 169.24 1270.79 175.036 1270.79 181.514ZM1392 181.514C1392 192.594 1389.79 202.737 1385.37 211.942C1381.11 220.977 1375.33 228.734 1368.02 235.212C1360.87 241.689 1352.45 246.718 1342.75 250.298C1333.23 253.878 1323.19 255.668 1312.64 255.668C1302.1 255.668 1291.97 253.878 1282.28 250.298C1272.75 246.718 1264.33 241.689 1257.01 235.212C1249.87 228.734 1244.08 220.977 1239.66 211.942C1235.41 202.737 1233.28 192.594 1233.28 181.514C1233.28 170.433 1235.41 160.376 1239.66 151.341C1244.08 142.135 1249.87 134.294 1257.01 127.816C1264.33 121.338 1272.75 116.309 1282.28 112.729C1291.97 109.149 1302.1 107.359 1312.64 107.359C1323.19 107.359 1333.23 109.149 1342.75 112.729C1352.45 116.309 1360.87 121.338 1368.02 127.816C1375.33 134.294 1381.11 142.135 1385.37 151.341C1389.79 160.376 1392 170.433 1392 181.514Z" fill="#fff"/>
</svg>
