<svg width="1510" height="503" viewBox="0 0 1510 503" fill="none" xmlns="http://www.w3.org/2000/svg">
<g clip-path="url(#clip0_267_6)">
<path fill-rule="evenodd" clip-rule="evenodd" d="M129.436 231.023V231C129.363 231.003 129.291 231.007 129.218 231.011C129.145 231.007 129.073 231.003 129 231V231.023C118.136 231.644 102.378 236.548 95.4901 255.205C89.0488 257.192 77.4151 260.797 73.8148 268.007C70.0911 275.464 77.562 291.035 129.436 292.139V292.056C180.91 290.876 188.328 275.39 184.615 267.963C181.015 260.761 169.383 257.16 162.942 255.176C156.055 236.541 140.299 231.644 129.436 231.023Z" fill="white"/>
<path d="M177.003 503H81.8945C86.6662 466.525 103.909 335.989 108.681 299.514H150.216C154.988 335.989 172.231 466.525 177.003 503Z" fill="url(#paint0_linear_267_6)"/>
<path d="M117.102 441.735C116.952 441.584 116.801 441.282 116.801 440.98C116.801 440.98 116.801 440.83 116.65 440.83C116.65 440.83 116.65 440.679 116.499 440.679V440.528C116.952 440.377 117.404 440.226 117.706 439.774C118.007 439.321 118.007 438.718 117.857 437.511C117.253 437.511 116.801 437.21 116.65 436.757L116.047 436.908C116.047 437.059 116.047 437.21 115.896 437.36C115.745 437.964 115.142 438.416 114.538 438.416C114.086 438.416 113.784 438.265 113.483 437.964C113.181 437.813 113.03 437.511 113.03 437.059L112.276 436.606H112.125L111.823 436.455C111.673 436.455 111.673 436.305 111.673 436.305L111.823 436.154L112.125 436.305L112.728 436.606C112.728 436.305 112.879 436.003 113.03 435.701C113.03 435.701 113.03 435.701 113.181 435.55C113.181 435.55 113.181 435.55 113.332 435.55C113.633 435.4 113.784 435.249 114.237 435.249C114.387 435.249 114.388 435.249 114.388 435.249C114.991 435.4 115.443 435.701 115.594 436.305C115.594 436.305 115.594 436.305 115.594 436.455H115.745H115.896H116.197C116.197 436.305 116.197 436.305 116.197 436.154C116.197 436.154 116.197 436.154 116.197 436.003C116.197 435.852 116.197 435.701 116.197 435.55C116.197 435.4 116.348 435.249 116.499 435.098C116.65 434.947 116.801 434.796 116.952 434.646C116.952 434.796 116.952 434.796 117.102 434.947H117.253V434.796C117.404 434.646 117.555 434.646 117.857 434.646C118.46 434.646 119.063 435.249 119.063 435.852C119.063 436.455 118.46 437.059 117.857 437.059C117.857 437.059 117.857 437.059 117.706 437.059C117.706 437.21 117.706 437.21 117.706 437.36C118.611 437.36 119.214 436.757 119.214 435.852C119.214 434.947 118.611 434.344 117.706 434.344C117.555 434.344 117.404 434.344 117.253 434.495H117.102H116.952C116.801 434.193 116.801 433.741 116.65 433.439C116.952 433.137 116.801 432.383 116.499 431.931C116.348 431.478 116.197 430.875 115.594 430.271C115.443 430.121 114.388 429.065 113.935 429.366C113.633 429.517 113.784 429.668 113.332 430.121C112.879 430.573 112.578 430.422 112.427 430.724C111.974 431.176 112.427 431.931 111.974 432.232C111.522 432.534 111.069 431.931 110.768 432.232C110.315 432.534 110.918 434.042 110.466 434.193C110.315 434.344 110.164 434.042 110.013 434.193C109.561 434.495 111.069 438.265 111.522 438.115C111.673 438.416 111.823 438.718 111.974 439.02C112.125 439.17 112.125 439.321 112.276 439.472C112.427 440.679 112.728 441.885 112.879 443.243C113.483 443.243 113.935 443.243 114.538 443.092C115.292 443.092 116.047 442.941 116.952 442.941C116.952 442.64 116.952 442.338 116.952 442.036V441.735H117.102Z" fill="white"/>
<path d="M114.539 435.703C113.935 435.703 113.332 436.306 113.332 436.91C113.332 437.362 113.483 437.664 113.935 437.966C114.086 438.116 114.388 438.116 114.539 438.116C114.991 438.116 115.293 437.815 115.594 437.513C115.745 437.362 115.745 437.061 115.745 436.91C115.745 436.306 115.142 435.703 114.539 435.703Z" fill="white"/>
<path d="M116.95 435.551C116.95 435.702 116.799 435.853 116.799 435.853V436.004C116.799 436.154 116.799 436.305 116.95 436.456C117.1 436.909 117.553 437.059 117.855 437.059C117.855 436.909 117.855 436.758 117.704 436.607C117.553 436.305 117.553 436.305 117.402 436.004C117.402 435.853 117.402 435.853 117.402 435.702H117.553C117.553 435.551 117.553 435.551 117.553 435.4C117.553 435.4 117.402 435.249 117.251 435.249C117.251 435.099 117.251 434.948 117.1 434.797C117.1 435.249 116.95 435.4 116.95 435.551Z" fill="white"/>
<path d="M161.898 454.255C161.898 454.255 161.747 454.104 161.596 453.954C160.39 454.708 159.183 455.311 157.976 455.914C157.675 455.914 157.373 455.914 156.921 455.914C156.921 456.065 156.77 456.065 156.921 456.216C156.619 456.216 156.317 456.216 155.865 456.065C155.714 455.914 155.563 455.764 155.412 455.764C155.412 455.764 155.412 455.764 155.262 455.764C149.228 450.334 145.005 446.412 144.1 445.205C143.798 444.904 143.044 443.848 141.988 443.999C141.838 443.999 141.536 443.999 141.536 444.15C140.028 444.904 138.368 446.11 136.558 447.468C133.391 450.032 131.129 452.898 129.771 455.009C127.81 452.294 125.849 449.429 123.889 446.714L123.738 446.563C125.548 443.245 127.358 439.926 129.319 436.759C129.469 436.005 129.62 435.401 129.771 434.647C129.62 434.647 129.469 434.647 129.168 434.798C129.168 434.346 129.319 433.893 129.319 433.441C129.319 431.329 128.715 430.122 127.358 426.352C127.207 425.748 126.905 424.843 126.604 423.787C126.905 423.335 127.056 422.732 126.754 421.977C126.754 421.827 126.604 421.676 126.604 421.676C126.604 421.525 126.453 421.525 126.453 421.374C126.453 421.223 126.453 421.223 126.302 421.072C126.302 421.072 126.302 421.072 126.302 420.922C126.302 420.922 126.302 420.771 126.302 420.62C126.302 420.469 126.151 419.866 126.151 418.961C126.151 418.508 126 418.207 125.849 418.056C125.849 418.056 125.699 417.905 125.548 417.905C125.397 417.905 125.548 418.357 125.548 418.81C125.548 419.262 125.699 419.715 125.699 420.318C125.548 420.318 125.397 420.318 125.246 420.318C124.944 419.564 124.794 418.659 124.492 417.905C124.492 417.452 124.19 417.151 124.039 417.151C124.039 417.151 123.889 417.151 123.738 417.302C123.889 417.754 124.039 418.207 124.039 418.659C124.19 419.262 124.341 419.866 124.341 420.318C123.889 419.564 123.738 418.961 123.587 418.508C123.436 417.905 123.285 417.302 122.833 417C122.833 417 122.682 417 122.531 417C122.38 417.151 122.682 418.056 122.833 418.508C123.285 419.564 123.738 420.167 123.587 420.469L123.436 420.62C123.134 420.318 122.833 420.017 122.833 419.866C122.531 419.413 122.38 419.112 122.229 418.81C122.079 418.508 121.928 418.357 121.626 418.207C121.475 418.207 121.475 418.207 121.475 418.207C121.174 418.508 121.928 419.413 121.928 419.413C122.229 420.017 122.531 420.62 122.531 420.62C123.587 422.581 123.436 422.882 123.436 423.033C123.436 423.033 123.285 423.184 122.984 423.033C122.682 422.882 122.38 422.732 122.229 422.732C121.777 422.581 121.626 422.581 121.475 422.732C121.325 422.732 121.174 422.882 121.174 422.882C121.174 423.033 121.626 423.486 122.682 423.938C122.682 423.938 123.436 424.24 124.039 424.391C124.794 427.709 124.19 429.519 124.794 432.988C124.944 433.591 125.095 434.496 125.246 435.401H125.095C122.682 437.362 120.42 439.474 118.006 441.435C118.006 441.585 118.006 441.585 118.157 441.736C118.308 441.887 118.157 441.887 118.308 442.038C118.459 442.49 118.61 443.094 118.76 443.546C118.459 443.546 118.157 443.395 117.855 443.245C117.554 443.094 117.252 443.094 116.95 442.943H116.8C116.649 442.943 116.649 442.943 116.498 442.792V442.943C116.347 443.697 116.347 444.602 116.196 445.356C114.99 444.904 113.934 444.3 112.727 443.848H112.576L112.124 443.697C111.973 443.999 111.671 444.15 111.52 444.451C109.56 442.943 107.75 441.284 105.789 439.625C105.789 438.72 105.789 437.966 105.789 437.513C105.487 433.893 104.582 432.234 104.582 428.916C104.582 428.463 104.582 428.011 104.733 427.709C105.336 427.257 105.94 426.653 105.94 426.653C106.845 425.899 106.996 425.296 106.996 425.145C106.996 424.994 106.845 424.994 106.694 424.994C106.694 424.994 106.392 424.994 106.091 425.296C105.94 425.447 105.789 425.597 105.487 425.899C105.336 426.05 105.186 426.05 105.035 425.899C104.884 425.899 104.733 425.597 105.035 423.335C105.035 423.335 105.186 422.581 105.186 421.977C105.186 421.827 105.487 420.771 105.186 420.62H105.035C104.884 420.922 104.733 421.072 104.733 421.525C104.733 421.827 104.582 422.279 104.431 422.732C104.431 423.033 104.281 423.335 104.13 423.787H103.979C103.677 423.637 103.979 422.882 103.979 421.827C103.979 421.374 103.979 420.318 103.828 420.318C103.677 420.318 103.677 420.318 103.526 420.469C103.074 420.771 103.225 421.525 103.225 422.128C103.225 422.581 103.225 423.184 103.074 424.089C102.923 423.486 102.923 423.033 102.772 422.43C102.772 421.977 102.621 421.525 102.621 420.922C102.471 420.922 102.471 420.922 102.32 420.922C102.169 421.072 102.018 421.374 102.169 421.827C102.169 422.732 102.32 423.486 102.32 424.391C102.169 424.391 102.018 424.542 102.018 424.542C101.867 423.938 101.716 423.335 101.566 423.033C101.415 422.581 101.415 422.279 101.264 422.279C101.113 422.279 101.113 422.43 101.113 422.43C100.962 422.732 100.962 422.882 101.113 423.335C101.415 424.24 101.566 424.843 101.566 424.994C101.566 425.145 101.566 425.296 101.566 425.296C101.566 425.296 101.566 425.296 101.566 425.447C101.566 425.447 101.566 425.597 101.566 425.748C101.566 425.899 101.566 425.899 101.566 426.05C101.566 426.05 101.566 426.201 101.566 426.352C101.566 426.955 102.018 427.558 102.32 427.86C102.169 429.368 102.169 430.726 102.018 431.631C101.566 435.251 101.113 436.759 101.566 439.021C101.716 439.474 101.867 439.926 102.018 440.228C101.867 440.228 101.716 440.228 101.415 440.228C101.716 440.831 102.018 441.435 102.32 442.189C102.621 442.792 102.923 443.395 103.376 444.15C104.884 446.865 106.845 448.825 108.504 450.334C108.504 450.334 108.504 450.485 108.655 450.485L108.806 450.635C109.56 451.39 110.163 452.144 110.766 452.898L112.727 455.311C114.386 457.272 115.895 459.082 117.554 461.043C117.705 461.043 117.855 461.194 118.157 461.194C118.61 462.4 119.062 463.456 119.515 464.663C119.967 465.568 120.721 466.322 121.626 466.623C122.833 466.925 124.19 467.227 125.548 467.528C129.319 468.433 132.788 468.886 135.955 469.037C136.257 470.545 136.709 472.355 137.313 474.165C138.972 478.992 141.687 482.461 143.648 484.572C144.1 484.271 144.553 483.969 144.854 483.667C145.005 483.818 145.005 483.969 145.156 484.12C145.307 484.572 145.307 484.874 145.457 485.176C145.457 485.477 145.307 486.081 145.608 486.835C145.759 487.438 146.212 488.041 146.362 488.192C148.323 487.137 150.284 485.93 152.245 484.874C153.15 484.422 153.602 483.667 153.602 483.215C153.602 483.064 153.452 483.064 153.301 482.913C151.943 483.215 150.586 483.366 149.228 483.667C148.927 483.517 148.625 483.517 148.323 483.366C148.172 483.366 148.172 483.517 148.172 483.667C147.871 483.517 147.569 483.366 147.117 483.215C146.966 482.913 146.815 482.612 146.664 482.31C144.251 476.729 141.988 470.998 139.575 465.417C139.424 465.266 139.273 464.964 138.972 464.813C138.67 464.663 138.519 464.512 138.368 464.512C138.067 464.361 136.408 463.758 133.843 462.4C133.843 462.4 133.843 462.4 133.693 462.4L132.184 461.646L131.581 461.344L129.469 460.289C129.319 460.289 129.319 460.138 129.319 460.138C129.319 460.138 129.469 459.987 129.62 460.138L132.486 461.495L133.994 462.249C135.955 458.78 137.916 455.311 139.877 451.842C140.178 451.239 140.48 450.635 140.782 450.183C140.782 450.183 140.631 450.183 140.631 450.032V449.127V448.524C140.631 448.373 140.782 448.373 140.782 448.373L140.933 448.524L140.782 449.58V450.032C140.782 450.032 140.782 450.032 140.782 450.183C141.988 451.39 143.346 452.596 144.854 453.803C147.72 456.065 150.435 457.875 152.848 459.384C152.999 458.78 153.301 458.328 153.452 457.724C153.602 458.026 153.753 458.177 153.904 458.328C153.904 458.479 153.753 458.629 153.753 458.629C153.753 458.931 153.904 459.534 154.357 460.138C154.809 460.741 155.262 461.043 155.563 461.194C157.071 459.534 158.58 457.875 160.088 456.216C161.898 455.462 162.2 454.708 161.898 454.255ZM139.575 470.243C139.726 470.243 139.726 470.243 139.726 470.394C140.028 472.355 140.631 474.014 141.385 475.824C142.592 478.388 144.251 480.651 146.212 482.461C146.212 482.461 146.212 482.612 146.212 482.762H146.061H145.91C143.798 480.802 142.139 478.539 140.933 475.975C140.178 474.165 139.575 472.355 139.123 470.545C139.424 470.243 139.575 470.243 139.575 470.243ZM135.503 466.02C135.653 466.02 135.653 466.171 135.653 466.171C135.653 466.322 135.503 466.322 135.503 466.322C135.503 466.322 131.581 465.718 128.414 465.266C126 464.964 123.889 464.663 123.889 464.663C123.738 464.663 123.738 464.512 123.738 464.512L123.889 464.361L124.643 464.512L125.849 464.663L128.414 465.115L135.503 466.02ZM141.536 449.429C141.385 449.429 141.385 449.429 141.385 449.278L141.234 448.373C141.234 448.222 141.234 448.222 141.385 448.222C141.536 448.222 141.536 448.222 141.536 448.373L141.687 448.825V449.127V449.278C141.687 449.278 141.536 449.429 141.536 449.429Z" fill="white"/>
<path d="M149.529 436.004L149.227 422.881C149.227 422.278 148.473 421.826 147.719 421.976L131.127 426.2C130.825 426.351 130.675 426.501 130.675 426.803L130.976 440.68L125.245 447.014C125.094 447.165 125.245 447.618 125.546 447.467L142.892 442.942C142.892 442.942 143.043 442.942 143.043 442.791L149.529 436.004ZM140.328 429.669C140.479 429.518 140.629 429.518 140.78 429.518C141.082 429.518 141.233 429.669 141.384 429.82C141.534 429.971 141.534 430.272 141.534 430.574C141.534 431.177 141.082 431.63 140.629 431.63C140.177 431.63 139.725 431.177 139.875 430.574C140.026 430.121 140.177 429.82 140.328 429.669ZM132.032 439.322L148.624 435.099C148.774 435.099 148.774 435.099 148.774 435.25C148.774 435.4 148.774 435.4 148.624 435.4L132.032 439.624C131.881 439.624 131.881 439.624 131.881 439.473C131.881 439.473 131.881 439.322 132.032 439.322ZM149.227 436.155C149.076 436.155 149.076 436.155 149.227 436.155L131.73 440.68C131.73 440.68 131.58 440.68 131.58 440.529C131.58 440.378 131.58 440.378 131.73 440.378L149.076 435.853C149.076 435.853 149.227 435.853 149.227 436.155C149.227 436.004 149.227 436.004 149.227 436.155Z" fill="white"/>
<path fill-rule="evenodd" clip-rule="evenodd" d="M1363.32 200.594V145C1353.43 145.468 1338.8 149.817 1332.45 167.01C1326.59 168.816 1316.01 172.095 1312.74 178.651C1309.35 185.431 1316.15 199.591 1363.32 200.594ZM1363.32 200.527V145C1373.2 145.468 1387.83 149.811 1394.18 166.984C1400.04 168.788 1410.61 172.062 1413.89 178.61C1417.27 185.383 1410.48 199.525 1363.32 200.527Z" fill="white"/>
<path d="M1414 531H1312C1317.12 473.102 1335.61 265.898 1340.73 208H1385.27C1390.39 265.898 1408.88 473.102 1414 531Z" fill="url(#paint1_linear_267_6)"/>
<path d="M1394.9 379.206C1394.2 379.106 1393.7 379.006 1393.4 379.006C1391.6 379.006 1390.9 379.606 1389.7 379.206C1389.2 379.006 1389.1 378.906 1388.5 378.806C1387.6 378.606 1386.9 378.806 1386.4 379.006C1386.2 379.206 1386 379.506 1386 379.806C1386 380.106 1386.1 380.306 1386.1 380.406C1386.3 380.806 1386.3 381.506 1385.8 383.106C1384.7 382.806 1383.3 382.506 1381.6 382.006C1380.1 381.606 1378.9 381.206 1377.8 380.806C1374.2 379.606 1372.4 378.806 1369.8 378.906C1368.4 378.906 1366.3 379.306 1363.7 380.606C1363.6 380.506 1363.5 380.406 1363.4 380.206C1363.1 379.906 1362.8 379.506 1362.6 379.206C1362.1 377.206 1361.4 374.906 1360.4 372.406C1360.6 372.306 1360.8 372.206 1360.9 372.106C1360.1 370.306 1359.3 368.606 1358.5 366.806C1359.6 368.106 1360.6 369.506 1361.7 370.806C1362.1 370.706 1362.5 370.606 1362.8 370.506C1363 370.406 1363.3 370.306 1363.5 370.206C1366.8 368.406 1367.8 363.806 1367.9 362.706C1366.4 361.006 1364.8 359.306 1363.3 357.506C1363 356.906 1361.3 353.906 1357.8 353.006C1355.5 352.406 1353.5 353.006 1352.9 353.306C1352.7 353.406 1352.6 353.406 1352.4 353.506C1352.1 350.906 1351.9 348.306 1351.6 345.706C1354.9 343.106 1358.1 340.606 1361.4 338.006C1361.8 337.406 1362.1 336.806 1362.5 336.206C1365.7 335.206 1368.4 332.706 1370 329.806C1370.1 329.706 1370.1 329.606 1370.2 329.506L1370.3 329.406C1370.4 329.206 1370.5 329.006 1370.5 328.906C1370.8 328.306 1371 327.706 1371.2 327.006C1371.4 326.406 1373 320.906 1370.5 318.806C1370.2 318.606 1369.9 318.406 1369.7 318.306C1369.3 318.106 1369 318.006 1368.7 317.506C1368.2 316.806 1368.3 316.106 1368.4 315.306C1368.5 314.606 1368.6 313.906 1368.2 313.206C1367.4 312.006 1365.5 312.006 1363.7 311.906C1362.4 311.906 1361.6 312.106 1361 312.206C1360.3 312.406 1359.8 312.506 1359.2 312.206C1358.2 311.806 1357.7 311.006 1357.4 310.406C1357 309.806 1356.7 309.106 1356 309.006C1354.9 308.906 1354.1 310.006 1353.1 311.406C1352 313.006 1350.6 315.006 1348.3 315.506C1347.7 315.606 1347.4 315.606 1347.1 315.506C1346.8 315.406 1346.4 315.406 1345.8 315.506C1345.3 315.606 1344.2 316.906 1343 318.606C1339.9 321.706 1335.8 327.106 1337.6 329.606C1337.7 329.706 1338.1 330.306 1338.7 331.006C1338.6 331.106 1338.4 331.306 1338.3 331.506C1338.2 331.506 1338.2 331.606 1338.1 331.606C1337.9 331.706 1337.9 331.706 1337.9 331.706C1337.9 331.706 1338 331.806 1338.1 331.806C1338 331.906 1337.9 332.106 1337.9 332.306C1337.8 332.306 1337.7 332.206 1337.7 332.206C1337.6 332.206 1337.5 332.306 1337.4 332.406C1337.4 332.506 1337.5 332.606 1337.6 332.706C1337.6 332.706 1337.6 332.706 1337.7 332.706C1337.6 332.806 1337.6 332.806 1337.5 332.906C1337.4 333.106 1337.4 333.306 1337.5 333.506C1337.1 333.806 1336.8 333.906 1336.7 333.906C1336.6 333.906 1336.4 333.906 1336.3 334.106C1336.2 334.206 1336.2 334.406 1336.2 334.406C1336.2 334.506 1336.3 334.706 1336.3 334.706C1336.4 334.806 1336.5 334.806 1336.6 334.906L1336.7 335.006C1336.6 335.106 1336.6 335.106 1336.5 335.206C1336.4 335.306 1336.3 335.306 1336.2 335.406C1336.1 335.406 1336.1 335.406 1336 335.506V335.606C1336 335.606 1336 335.606 1336 335.706V335.806C1336 335.906 1336 336.006 1336.1 336.106C1336.1 336.206 1336.2 336.206 1336.2 336.206C1336.2 336.206 1336.1 336.206 1336 336.306C1335.9 336.406 1335.9 336.606 1336 336.706C1336 336.806 1336.1 336.806 1336.1 336.806C1336.1 336.906 1336.1 337.006 1336.2 337.106C1336.1 337.206 1335.9 337.506 1336 337.906C1336.1 338.206 1336.3 338.406 1336.6 338.506C1337.6 339.106 1338.7 339.306 1338.7 339.306C1339.3 339.406 1340.1 339.406 1341.1 339.406C1341.5 339.406 1341.9 339.306 1342.3 339.306C1342.4 339.306 1342.5 339.306 1342.6 339.206C1342.5 339.706 1342.1 340.306 1341.5 340.806C1341.5 340.906 1341.5 341.006 1341.5 341.106C1341.2 341.106 1340.9 341.206 1340.5 341.206C1340.4 341.706 1340.4 342.306 1340.3 342.806C1340.2 342.906 1340.1 343.106 1340 343.206C1335 341.406 1330 339.606 1324.9 337.806C1318.9 331.306 1315.2 328.606 1313.7 329.506C1313.6 329.506 1313.6 329.606 1313.5 329.706C1313.3 329.606 1313.1 329.506 1312.9 329.406C1312.7 329.006 1312.5 328.606 1312.2 328.206C1311.1 326.906 1309.7 326.706 1309.2 326.606C1308.2 326.406 1307 326.606 1307 326.706C1307 326.706 1307.1 326.806 1307.2 326.906C1307.9 327.206 1308.4 327.306 1308.6 327.406C1309.5 327.706 1310.1 328.506 1310 328.706C1309.9 328.806 1309.6 328.806 1309.3 328.706C1308.8 328.506 1308.9 327.906 1308.6 327.906C1308.4 327.906 1308.1 328.106 1308.1 328.406C1308 329.106 1309.8 329.906 1310.8 330.306C1311.1 330.406 1311.5 330.506 1311.7 330.506C1311.9 330.706 1312.4 331.006 1312.8 331.406C1312.8 331.706 1312.8 331.906 1312.8 332.206C1315.8 335.806 1318.7 339.306 1321.7 342.906C1326.1 345.706 1330.5 348.506 1334.9 351.306V351.406C1334.9 351.506 1334.9 351.606 1335.1 351.706C1335.2 352.106 1335.3 352.506 1335.5 352.906C1336.5 355.106 1338.4 356.006 1338.9 356.206C1340.6 357.406 1342.3 358.506 1344 359.706C1344.2 363.306 1344.9 364.206 1345.6 364.406C1345.7 364.806 1345.8 365.406 1345.9 366.006C1346.8 369.306 1348.8 373.206 1348.7 374.606C1348.6 375.406 1348.5 376.106 1348.3 376.506C1349.5 376.406 1350.7 376.206 1352.1 375.806C1352.2 375.806 1352.3 375.706 1352.4 375.706C1355.6 374.906 1358.1 373.606 1360.1 372.406C1358 374.006 1355.8 375.706 1353.7 377.306C1354 377.706 1354.3 378.006 1354.6 378.406C1356 380.106 1357.4 381.606 1358.8 383.006C1358.9 383.306 1359 383.506 1359.2 383.706C1359.6 384.206 1360.2 384.506 1360.8 384.606H1360.9C1361 384.606 1361.1 384.606 1361.3 384.606C1366.1 384.706 1371 384.806 1375.9 384.906C1376.6 384.906 1377.4 384.906 1378.1 384.906C1380.7 384.906 1383.3 385.006 1385.9 385.006C1387.1 384.506 1388 384.006 1388.6 383.706C1390.8 382.306 1391.7 380.906 1393.3 380.706C1393.4 380.706 1393.9 380.606 1394.3 380.306C1394.6 380.106 1395.1 379.706 1395 379.306C1395.1 379.306 1395 379.206 1394.9 379.206ZM1369.6 318.606C1369.8 318.706 1370.1 318.806 1370.3 319.006C1370.7 319.306 1370.9 319.706 1371.1 320.206C1370.9 319.906 1370.7 319.606 1370.4 319.406C1369.7 318.806 1369.1 318.906 1368.6 318.106C1368.5 317.906 1368.4 317.706 1368.3 317.506V317.606C1368.3 317.706 1368.4 317.706 1368.4 317.806C1368.8 318.306 1369.2 318.406 1369.6 318.606ZM1344.8 316.806C1345.3 316.306 1345.6 315.906 1345.8 315.906C1346 315.906 1346.2 315.806 1346.4 315.806C1346.6 315.806 1346.8 315.806 1346.9 315.906C1347.2 316.006 1347.6 316.006 1348.3 315.906C1350.8 315.406 1352.2 313.306 1353.4 311.606C1354.3 310.306 1355 309.306 1355.9 309.406C1356.4 309.506 1356.7 309.906 1357 310.506C1357.4 311.206 1357.9 312.106 1359.1 312.506C1359.9 312.806 1360.5 312.706 1361.2 312.506C1361.8 312.406 1362.6 312.206 1363.9 312.206C1365.5 312.206 1367.3 312.306 1367.9 313.306C1368 313.406 1368.1 313.606 1368.1 313.706C1367.3 312.606 1365.5 312.506 1363.8 312.506C1361.1 312.406 1360.6 313.306 1359.1 312.806C1357 312.106 1357.2 309.806 1355.9 309.606C1353.7 309.306 1352.6 315.206 1348.2 316.006C1347.3 316.206 1347 316.006 1346.4 316.006C1346.4 316.006 1346.1 316.006 1345.6 316.106C1345.6 316.206 1345.3 316.506 1344.8 316.806ZM1345.4 339.006C1347.4 338.806 1350.2 337.706 1353.4 337.006C1351.3 338.706 1349.1 340.406 1347 342.206C1347 342.206 1346.9 342.206 1346.9 342.106C1346.8 341.506 1346.7 340.906 1346.6 340.306C1346.3 340.306 1346 340.406 1345.8 340.406C1345.6 340.006 1345.5 339.506 1345.4 339.006Z" fill="white"/>
<path d="M1365.1 371.306C1365.4 371.506 1365.7 371.706 1366 371.906C1367.8 373.106 1369.6 374.206 1371.3 375.106C1371.5 375.306 1371.7 375.506 1371.9 375.706C1372.1 375.906 1372.9 376.606 1374.1 376.606C1375.3 376.606 1376.1 376.106 1376.3 375.906C1378.7 372.306 1381.3 368.606 1383.9 364.906C1384.1 364.606 1384.4 364.206 1384.6 363.906C1385.9 362.106 1387.2 360.306 1388.5 358.506L1388.6 358.406C1389.5 357.406 1390.2 356.606 1390.6 355.906C1391.9 353.806 1392.1 352.106 1393.4 351.106C1393.5 351.006 1393.9 350.806 1394.1 350.306C1394.4 349.706 1394.5 349.006 1394.3 348.806C1394.2 348.706 1394.1 348.806 1394 348.806C1393.4 349.106 1392.9 349.406 1392.6 349.606C1390.9 350.606 1390.5 351.306 1389.4 351.506C1388.8 351.606 1388.7 351.506 1388.2 351.606C1387.4 351.906 1386.8 352.406 1386.4 352.806C1386.3 353.006 1386.3 353.406 1386.4 353.706C1386.5 354.006 1386.7 354.106 1386.8 354.206C1387.1 354.506 1387.5 355.106 1388 356.106C1387.2 356.806 1386.1 357.706 1384.8 358.806C1383.5 359.806 1382.4 360.606 1381.5 361.306C1378.5 363.506 1376.9 364.406 1375.4 366.606C1374.8 367.506 1374.1 368.806 1373.7 370.606C1373.7 370.606 1373.7 370.606 1373.6 370.606C1372.3 368.306 1370.5 365.606 1368.1 363.006C1368.1 364.906 1367.7 368.006 1365.7 370.806C1365.5 370.806 1365.3 371.006 1365.1 371.306Z" fill="white"/>
<g clip-path="url(#clip1_267_6)">
<path d="M1642.85 504L1626.46 500.552C1626.72 500.147 1626.86 499.677 1626.86 499.195C1626.86 496.913 1623.67 495.063 1619.73 495.063C1617.98 495.025 1616.25 495.435 1614.7 496.254C1614.7 494.375 1613.95 492.572 1612.61 491.243C1611.28 489.914 1609.46 489.167 1607.57 489.167C1607.57 484.096 1601.64 479.989 1594.31 479.989C1593.1 479.989 1591.9 480.108 1590.71 480.344C1592.59 472.458 1587.56 462.177 1577.75 455.306C1567.94 448.434 1556.72 447.217 1549.87 451.502C1548.96 448.042 1546.92 444.978 1544.08 442.79C1541.23 440.602 1537.73 439.413 1534.14 439.408C1531.42 439.407 1528.75 440.082 1526.36 441.371C1523.98 442.66 1521.96 444.522 1520.48 446.787C1520.49 446.694 1520.49 446.6 1520.48 446.507C1520.48 442.59 1515.26 439.408 1508.83 439.408C1505.46 439.29 1502.15 440.314 1499.44 442.311C1500.09 440.87 1500.24 439.255 1499.86 437.722C1499.54 436.405 1498.84 435.209 1497.86 434.273C1496.87 433.336 1495.64 432.698 1494.3 432.435C1492.85 432.157 1491.35 432.332 1490 432.935C1488.66 433.539 1487.53 434.543 1486.78 435.808C1483.83 426.584 1478 418.532 1470.14 412.814C1462.28 407.097 1452.8 404.01 1443.05 404C1434.2 404.001 1425.54 406.547 1418.11 411.332C1410.69 416.117 1404.81 422.936 1401.2 430.965C1400.11 429.542 1398.71 428.389 1397.1 427.595C1395.49 426.801 1393.72 426.388 1391.92 426.388C1389.28 426.392 1386.71 427.29 1384.64 428.935C1382.57 430.579 1381.13 432.873 1380.54 435.44C1375.44 432.321 1369.57 430.675 1363.58 430.686C1356.78 430.684 1350.15 432.807 1344.63 436.757C1339.1 440.707 1334.97 446.282 1332.82 452.694C1332.14 449.494 1330.38 446.624 1327.82 444.564C1325.26 442.505 1322.07 441.383 1318.78 441.386C1315.56 441.387 1312.44 442.466 1309.91 444.449C1307.39 446.432 1305.61 449.203 1304.86 452.314C1302.85 449.298 1300.03 446.906 1296.71 445.415C1293.39 443.923 1289.72 443.393 1286.12 443.883C1282.14 444.423 1278.44 446.178 1275.52 448.904C1272.6 451.63 1270.6 455.192 1269.81 459.096C1268.85 463.837 1269.74 468.763 1272.3 472.877C1270.5 472.102 1268.56 471.7 1266.59 471.698C1263.59 471.7 1260.67 472.638 1258.23 474.381C1255.79 476.123 1253.97 478.582 1253.02 481.409C1251.72 479.419 1249.94 477.784 1247.84 476.653C1245.74 475.521 1243.4 474.929 1241.01 474.93C1237.21 474.93 1233.57 476.429 1230.88 479.097C1228.2 481.764 1226.69 485.382 1226.69 489.154C1226.7 489.915 1226.77 490.674 1226.9 491.424C1223.52 490.441 1219.97 490.199 1216.5 490.714C1208.65 491.703 1203.16 495.861 1202.91 498.32C1202.77 498.953 1202.84 499.61 1203.08 500.207C1203.33 500.803 1203.76 501.312 1204.3 501.668L1194 503.974L1642.85 504Z" fill="white"/>
<path d="M1642.85 504L1626.46 500.552C1626.72 500.147 1626.86 499.677 1626.86 499.195C1626.86 496.913 1623.67 495.063 1619.73 495.063C1617.98 495.025 1616.25 495.435 1614.7 496.254C1614.7 494.375 1613.95 492.572 1612.61 491.243C1611.28 489.914 1609.46 489.167 1607.57 489.167C1607.57 484.096 1601.64 479.989 1594.31 479.989C1593.1 479.989 1591.9 480.108 1590.71 480.344C1592.59 472.458 1587.56 462.177 1577.75 455.306C1567.94 448.434 1556.72 447.217 1549.87 451.502C1548.96 448.042 1546.92 444.978 1544.08 442.79C1541.23 440.602 1537.73 439.413 1534.14 439.408C1531.42 439.407 1528.75 440.082 1526.36 441.371C1523.98 442.66 1521.96 444.522 1520.48 446.787C1520.49 446.694 1520.49 446.6 1520.48 446.507C1520.48 442.59 1515.26 439.408 1508.83 439.408C1505.46 439.29 1502.15 440.314 1499.44 442.311C1500.09 440.87 1500.24 439.255 1499.86 437.722C1499.54 436.405 1498.84 435.209 1497.86 434.273C1496.87 433.336 1495.64 432.698 1494.3 432.435C1492.85 432.157 1491.35 432.332 1490 432.935C1488.66 433.539 1487.53 434.543 1486.78 435.808C1483.83 426.584 1478 418.532 1470.14 412.814C1462.28 407.097 1452.8 404.01 1443.05 404C1434.2 404.001 1425.54 406.547 1418.11 411.332C1410.69 416.117 1404.81 422.936 1401.2 430.965C1400.11 429.542 1398.71 428.389 1397.1 427.595C1395.49 426.801 1393.72 426.388 1391.92 426.388C1389.28 426.392 1386.71 427.29 1384.64 428.935C1382.57 430.579 1381.13 432.873 1380.54 435.44C1375.44 432.321 1369.57 430.675 1363.58 430.686C1356.78 430.684 1350.15 432.807 1344.63 436.757C1339.1 440.707 1334.97 446.282 1332.82 452.694C1332.14 449.494 1330.38 446.624 1327.82 444.564C1325.26 442.505 1322.07 441.383 1318.78 441.386C1315.56 441.387 1312.44 442.466 1309.91 444.449C1307.39 446.432 1305.61 449.203 1304.86 452.314C1302.85 449.298 1300.03 446.906 1296.71 445.415C1293.39 443.923 1289.72 443.393 1286.12 443.883C1282.14 444.423 1278.44 446.178 1275.52 448.904C1272.6 451.63 1270.6 455.192 1269.81 459.096C1268.85 463.837 1269.74 468.763 1272.3 472.877C1270.5 472.102 1268.56 471.7 1266.59 471.698C1263.59 471.7 1260.67 472.638 1258.23 474.381C1255.79 476.123 1253.97 478.582 1253.02 481.409C1251.72 479.419 1249.94 477.784 1247.84 476.653C1245.74 475.521 1243.4 474.929 1241.01 474.93C1237.21 474.93 1233.57 476.429 1230.88 479.097C1228.2 481.764 1226.69 485.382 1226.69 489.154C1226.7 489.915 1226.77 490.674 1226.9 491.424C1223.52 490.441 1219.97 490.199 1216.5 490.714C1208.65 491.703 1203.16 495.861 1202.91 498.32C1202.77 498.953 1202.84 499.61 1203.08 500.207C1203.33 500.803 1203.76 501.312 1204.3 501.668L1194 503.974L1642.85 504Z" fill="white"/>
</g>
<g clip-path="url(#clip2_267_6)">
<path d="M128.001 503L111.798 499.586C112.058 499.185 112.197 498.72 112.201 498.243C112.201 495.984 109.049 494.152 105.153 494.152C103.423 494.114 101.712 494.521 100.185 495.331C100.185 493.471 99.4419 491.686 98.1201 490.37C96.7984 489.055 95.0055 488.316 93.1361 488.316C93.1361 483.295 87.273 479.229 80.0351 479.229C78.8409 479.229 77.6495 479.347 76.4788 479.58C78.3322 471.774 73.3645 461.595 63.668 454.793C53.9714 447.99 42.8878 446.785 36.1166 451.027C35.219 447.602 33.2067 444.569 30.3938 442.402C27.5808 440.236 24.1258 439.059 20.5692 439.054C17.8864 439.053 15.2465 439.721 12.8897 440.997C10.533 442.273 8.53485 444.117 7.07762 446.359C7.08381 446.267 7.08381 446.174 7.07762 446.082C7.07762 442.204 1.91994 439.054 -4.43517 439.054C-7.76658 438.937 -11.0388 439.95 -13.7154 441.928C-13.073 440.502 -12.9265 438.903 -13.2992 437.384C-13.6195 436.081 -14.3072 434.897 -15.2812 433.97C-16.2551 433.043 -17.4747 432.411 -18.7968 432.151C-20.2295 431.875 -21.7132 432.048 -23.0432 432.646C-24.3731 433.244 -25.4842 434.237 -26.2238 435.49C-29.1413 426.358 -34.9001 418.386 -42.6676 412.726C-50.4354 407.066 -59.8094 404.01 -69.4361 404C-78.1832 404.001 -86.7428 406.522 -94.082 411.259C-101.421 415.996 -107.226 422.747 -110.795 430.695C-111.868 429.287 -113.253 428.145 -114.844 427.359C-116.434 426.573 -118.186 426.164 -119.961 426.164C-122.579 426.168 -125.117 427.057 -127.161 428.685C-129.205 430.313 -130.632 432.584 -131.209 435.126C-136.248 432.038 -142.051 430.408 -147.967 430.419C-154.691 430.417 -161.244 432.519 -166.7 436.43C-172.156 440.34 -176.238 445.86 -178.368 452.207C-179.037 449.039 -180.781 446.197 -183.306 444.159C-185.832 442.12 -188.986 441.009 -192.238 441.012C-195.42 441.013 -198.507 442.082 -201.003 444.045C-203.499 446.008 -205.258 448.75 -205.995 451.831C-207.98 448.845 -210.772 446.477 -214.048 445.001C-217.325 443.524 -220.954 442.999 -224.518 443.485C-228.443 444.019 -232.103 445.756 -234.99 448.455C-237.878 451.154 -239.85 454.68 -240.633 458.545C-241.58 463.239 -240.701 468.115 -238.174 472.188C-239.953 471.421 -241.871 471.023 -243.811 471.021C-246.777 471.023 -249.667 471.952 -252.074 473.677C-254.481 475.402 -256.284 477.836 -257.227 480.635C-258.51 478.665 -260.268 477.047 -262.34 475.927C-264.412 474.806 -266.733 474.22 -269.092 474.221C-272.844 474.221 -276.443 475.705 -279.096 478.346C-281.749 480.987 -283.24 484.568 -283.24 488.303C-283.23 489.056 -283.163 489.807 -283.038 490.55C-286.372 489.577 -289.879 489.337 -293.315 489.847C-301.07 490.826 -306.492 494.943 -306.744 497.377C-306.875 498.003 -306.813 498.654 -306.568 499.245C-306.323 499.835 -305.905 500.339 -305.369 500.691L-315.545 502.975L128.001 503Z" fill="white"/>
<path d="M128.001 503L111.798 499.586C112.058 499.185 112.197 498.72 112.201 498.243C112.201 495.984 109.049 494.152 105.153 494.152C103.423 494.114 101.712 494.521 100.185 495.331C100.185 493.471 99.4419 491.686 98.1201 490.37C96.7984 489.055 95.0055 488.316 93.1361 488.316C93.1361 483.295 87.273 479.229 80.0351 479.229C78.8409 479.229 77.6495 479.347 76.4788 479.58C78.3322 471.774 73.3645 461.595 63.668 454.793C53.9714 447.99 42.8878 446.785 36.1166 451.027C35.219 447.602 33.2067 444.569 30.3938 442.402C27.5808 440.236 24.1258 439.059 20.5692 439.054C17.8864 439.053 15.2465 439.721 12.8897 440.997C10.533 442.273 8.53485 444.117 7.07762 446.359C7.08381 446.267 7.08381 446.174 7.07762 446.082C7.07762 442.204 1.91994 439.054 -4.43517 439.054C-7.76658 438.937 -11.0388 439.95 -13.7154 441.928C-13.073 440.502 -12.9265 438.903 -13.2992 437.384C-13.6195 436.081 -14.3072 434.897 -15.2812 433.97C-16.2551 433.043 -17.4747 432.411 -18.7968 432.151C-20.2295 431.875 -21.7132 432.048 -23.0432 432.646C-24.3731 433.244 -25.4842 434.237 -26.2238 435.49C-29.1413 426.358 -34.9001 418.386 -42.6676 412.726C-50.4354 407.066 -59.8094 404.01 -69.4361 404C-78.1832 404.001 -86.7428 406.522 -94.082 411.259C-101.421 415.996 -107.226 422.747 -110.795 430.695C-111.868 429.287 -113.253 428.145 -114.844 427.359C-116.434 426.573 -118.186 426.164 -119.961 426.164C-122.579 426.168 -125.117 427.057 -127.161 428.685C-129.205 430.313 -130.632 432.584 -131.209 435.126C-136.248 432.038 -142.051 430.408 -147.967 430.419C-154.691 430.417 -161.244 432.519 -166.7 436.43C-172.156 440.34 -176.238 445.86 -178.368 452.207C-179.037 449.039 -180.781 446.197 -183.306 444.159C-185.832 442.12 -188.986 441.009 -192.238 441.012C-195.42 441.013 -198.507 442.082 -201.003 444.045C-203.499 446.008 -205.258 448.75 -205.995 451.831C-207.98 448.845 -210.772 446.477 -214.048 445.001C-217.325 443.524 -220.954 442.999 -224.518 443.485C-228.443 444.019 -232.103 445.756 -234.99 448.455C-237.878 451.154 -239.85 454.68 -240.633 458.545C-241.58 463.239 -240.701 468.115 -238.174 472.188C-239.953 471.421 -241.871 471.023 -243.811 471.021C-246.777 471.023 -249.667 471.952 -252.074 473.677C-254.481 475.402 -256.284 477.836 -257.227 480.635C-258.51 478.665 -260.268 477.047 -262.34 475.927C-264.412 474.806 -266.733 474.22 -269.092 474.221C-272.844 474.221 -276.443 475.705 -279.096 478.346C-281.749 480.987 -283.24 484.568 -283.24 488.303C-283.23 489.056 -283.163 489.807 -283.038 490.55C-286.372 489.577 -289.879 489.337 -293.315 489.847C-301.07 490.826 -306.492 494.943 -306.744 497.377C-306.875 498.003 -306.813 498.654 -306.568 499.245C-306.323 499.835 -305.905 500.339 -305.369 500.691L-315.545 502.975L128.001 503Z" fill="white"/>
</g>
<g clip-path="url(#clip3_267_6)">
<path d="M203.001 173L188.767 170C188.995 169.648 189.118 169.239 189.121 168.82C189.121 166.835 186.352 165.224 182.93 165.224C181.41 165.191 179.907 165.549 178.565 166.261C178.565 164.626 177.913 163.057 176.752 161.901C175.591 160.745 174.016 160.096 172.373 160.096C172.373 155.684 167.223 152.111 160.865 152.111C159.816 152.111 158.769 152.214 157.741 152.419C159.369 145.559 155.005 136.614 146.487 130.636C137.969 124.658 128.232 123.599 122.284 127.327C121.495 124.317 119.728 121.651 117.256 119.747C114.785 117.844 111.75 116.809 108.626 116.805C106.269 116.804 103.95 117.391 101.88 118.513C99.8094 119.634 98.054 121.254 96.7739 123.224C96.7797 123.144 96.7797 123.062 96.7739 122.981C96.7739 119.573 92.2432 116.805 86.6606 116.805C83.7341 116.702 80.8596 117.593 78.5082 119.331C79.0725 118.077 79.201 116.672 78.8735 115.338C78.5922 114.193 77.9884 113.152 77.1325 112.337C76.277 111.522 75.2057 110.968 74.0442 110.739C72.7855 110.496 71.4823 110.648 70.3138 111.174C69.1457 111.699 68.1696 112.572 67.52 113.673C64.9569 105.648 59.8982 98.6427 53.0745 93.6684C46.2509 88.6941 38.0161 86.0087 29.5595 86C21.8755 86.0007 14.3559 88.2162 7.90879 92.3791C1.4617 96.542 -3.63768 102.474 -6.77288 109.46C-7.71533 108.222 -8.93247 107.218 -10.3296 106.527C-11.7267 105.836 -13.2654 105.477 -14.8252 105.478C-17.1247 105.481 -19.3549 106.262 -21.1501 107.693C-22.9452 109.124 -24.1992 111.12 -24.7062 113.353C-29.1322 110.639 -34.2298 109.207 -39.4274 109.217C-45.3336 109.215 -51.0906 111.062 -55.8837 114.499C-60.6768 117.935 -64.2626 122.786 -66.1334 128.364C-66.7211 125.58 -68.2529 123.083 -70.4717 121.291C-72.6905 119.499 -75.4612 118.523 -78.318 118.526C-81.1127 118.527 -83.8253 119.466 -86.0177 121.191C-88.2106 122.916 -89.7556 125.326 -90.403 128.033C-92.147 125.409 -94.5989 123.328 -97.4775 122.031C-100.356 120.733 -103.544 120.272 -106.675 120.699C-110.123 121.168 -113.337 122.695 -115.874 125.067C-118.411 127.438 -120.143 130.537 -120.831 133.934C-121.663 138.058 -120.89 142.343 -118.671 145.923C-120.234 145.249 -121.919 144.899 -123.622 144.897C-126.228 144.899 -128.767 145.715 -130.882 147.231C-132.997 148.747 -134.58 150.886 -135.408 153.346C-136.535 151.615 -138.08 150.192 -139.9 149.208C-141.721 148.224 -143.759 147.709 -145.831 147.709C-149.127 147.709 -152.289 149.014 -154.62 151.334C-156.95 153.655 -158.26 156.802 -158.26 160.084C-158.251 160.746 -158.192 161.406 -158.082 162.059C-161.011 161.204 -164.092 160.993 -167.11 161.441C-173.923 162.301 -178.686 165.919 -178.907 168.059C-179.022 168.609 -178.968 169.181 -178.753 169.7C-178.538 170.219 -178.17 170.662 -177.699 170.971L-186.639 172.978L203.001 173Z" fill="white"/>
<path d="M203.001 173L188.767 170C188.995 169.648 189.118 169.239 189.121 168.82C189.121 166.835 186.352 165.224 182.93 165.224C181.41 165.191 179.907 165.549 178.565 166.261C178.565 164.626 177.913 163.057 176.752 161.901C175.591 160.745 174.016 160.096 172.373 160.096C172.373 155.684 167.223 152.111 160.865 152.111C159.816 152.111 158.769 152.214 157.741 152.419C159.369 145.559 155.005 136.614 146.487 130.636C137.969 124.658 128.232 123.599 122.284 127.327C121.495 124.317 119.728 121.651 117.256 119.747C114.785 117.844 111.75 116.809 108.626 116.805C106.269 116.804 103.95 117.391 101.88 118.513C99.8094 119.634 98.054 121.254 96.7739 123.224C96.7797 123.144 96.7797 123.062 96.7739 122.981C96.7739 119.573 92.2432 116.805 86.6606 116.805C83.7341 116.702 80.8596 117.593 78.5082 119.331C79.0725 118.077 79.201 116.672 78.8735 115.338C78.5922 114.193 77.9884 113.152 77.1325 112.337C76.277 111.522 75.2057 110.968 74.0442 110.739C72.7855 110.496 71.4823 110.648 70.3138 111.174C69.1457 111.699 68.1696 112.572 67.52 113.673C64.9569 105.648 59.8982 98.6427 53.0745 93.6684C46.2509 88.6941 38.0161 86.0087 29.5595 86C21.8755 86.0007 14.3559 88.2162 7.90879 92.3791C1.4617 96.542 -3.63768 102.474 -6.77288 109.46C-7.71533 108.222 -8.93247 107.218 -10.3296 106.527C-11.7267 105.836 -13.2654 105.477 -14.8252 105.478C-17.1247 105.481 -19.3549 106.262 -21.1501 107.693C-22.9452 109.124 -24.1992 111.12 -24.7062 113.353C-29.1322 110.639 -34.2298 109.207 -39.4274 109.217C-45.3336 109.215 -51.0906 111.062 -55.8837 114.499C-60.6768 117.935 -64.2626 122.786 -66.1334 128.364C-66.7211 125.58 -68.2529 123.083 -70.4717 121.291C-72.6905 119.499 -75.4612 118.523 -78.318 118.526C-81.1127 118.527 -83.8253 119.466 -86.0177 121.191C-88.2106 122.916 -89.7556 125.326 -90.403 128.033C-92.147 125.409 -94.5989 123.328 -97.4775 122.031C-100.356 120.733 -103.544 120.272 -106.675 120.699C-110.123 121.168 -113.337 122.695 -115.874 125.067C-118.411 127.438 -120.143 130.537 -120.831 133.934C-121.663 138.058 -120.89 142.343 -118.671 145.923C-120.234 145.249 -121.919 144.899 -123.622 144.897C-126.228 144.899 -128.767 145.715 -130.882 147.231C-132.997 148.747 -134.58 150.886 -135.408 153.346C-136.535 151.615 -138.08 150.192 -139.9 149.208C-141.721 148.224 -143.759 147.709 -145.831 147.709C-149.127 147.709 -152.289 149.014 -154.62 151.334C-156.95 153.655 -158.26 156.802 -158.26 160.084C-158.251 160.746 -158.192 161.406 -158.082 162.059C-161.011 161.204 -164.092 160.993 -167.11 161.441C-173.923 162.301 -178.686 165.919 -178.907 168.059C-179.022 168.609 -178.968 169.181 -178.753 169.7C-178.538 170.219 -178.17 170.662 -177.699 170.971L-186.639 172.978L203.001 173Z" fill="white"/>
</g>
<g clip-path="url(#clip4_267_6)">
<path d="M1664.65 110L1654.8 107.931C1654.96 107.688 1655.05 107.406 1655.05 107.117C1655.05 105.748 1653.13 104.638 1650.76 104.638C1649.71 104.615 1648.67 104.861 1647.74 105.353C1647.74 104.225 1647.29 103.143 1646.49 102.346C1645.68 101.548 1644.59 101.1 1643.46 101.1C1643.46 98.0576 1639.89 95.5933 1635.49 95.5933C1634.77 95.5933 1634.04 95.6645 1633.33 95.8062C1634.46 91.0749 1631.44 84.906 1625.54 80.7833C1619.65 76.6606 1612.91 75.9303 1608.79 78.5014C1608.25 76.4253 1607.02 74.587 1605.31 73.2741C1603.6 71.9612 1601.5 71.2476 1599.34 71.2447C1597.71 71.2443 1596.11 71.6492 1594.67 72.4225C1593.24 73.1958 1592.02 74.3131 1591.14 75.672C1591.14 75.6162 1591.14 75.5602 1591.14 75.5045C1591.14 73.154 1588 71.2447 1584.14 71.2447C1582.11 71.1739 1580.13 71.7882 1578.5 72.9866C1578.89 72.1222 1578.98 71.1532 1578.75 70.233C1578.56 69.4433 1578.14 68.7254 1577.55 68.1635C1576.95 67.6016 1576.21 67.219 1575.41 67.0612C1574.54 66.8941 1573.64 66.9989 1572.83 67.3612C1572.02 67.7236 1571.34 68.3257 1570.89 69.0846C1569.12 63.5504 1565.62 58.7191 1560.9 55.2885C1556.17 51.858 1550.48 50.006 1544.62 50C1539.3 50.0005 1534.1 51.5284 1529.64 54.3994C1525.18 57.2703 1521.65 61.3616 1519.48 66.179C1518.83 65.3255 1517.98 64.6331 1517.02 64.1567C1516.05 63.6803 1514.99 63.4325 1513.91 63.4328C1512.31 63.4353 1510.77 63.9741 1509.53 64.9608C1508.29 65.9476 1507.42 67.3239 1507.07 68.864C1504 66.9927 1500.48 66.005 1496.88 66.0115C1492.79 66.0101 1488.81 67.2845 1485.49 69.6543C1482.17 72.0242 1479.69 75.3695 1478.4 79.2163C1477.99 77.2965 1476.93 75.5742 1475.39 74.3386C1473.86 73.103 1471.94 72.4296 1469.96 72.4314C1468.03 72.4321 1466.15 73.0798 1464.64 74.2695C1463.12 75.4592 1462.05 77.1215 1461.6 78.9883C1460.39 77.1786 1458.7 75.7438 1456.7 74.8489C1454.71 73.954 1452.51 73.6357 1450.34 73.93C1447.95 74.254 1445.73 75.3069 1443.97 76.9425C1442.22 78.5782 1441.02 80.7155 1440.54 83.0578C1439.97 85.9023 1440.5 88.8576 1442.04 91.3262C1440.96 90.861 1439.79 90.6202 1438.61 90.6186C1436.81 90.6198 1435.05 91.1829 1433.59 92.2284C1432.12 93.2738 1431.03 94.7489 1430.45 96.4453C1429.67 95.2518 1428.61 94.2707 1427.35 93.5918C1426.09 92.9129 1424.67 92.5575 1423.24 92.5582C1420.96 92.5582 1418.77 93.4576 1417.16 95.0581C1415.55 96.6587 1414.64 98.8293 1414.64 101.093C1414.65 101.549 1414.69 102.004 1414.76 102.454C1412.74 101.865 1410.6 101.719 1408.51 102.028C1403.8 102.622 1400.5 105.117 1400.35 106.592C1400.27 106.972 1400.31 107.366 1400.46 107.724C1400.61 108.082 1400.86 108.387 1401.19 108.601L1395 109.985L1664.65 110Z" fill="white"/>
<path d="M1664.65 110L1654.8 107.931C1654.96 107.688 1655.05 107.406 1655.05 107.117C1655.05 105.748 1653.13 104.638 1650.76 104.638C1649.71 104.615 1648.67 104.861 1647.74 105.353C1647.74 104.225 1647.29 103.143 1646.49 102.346C1645.68 101.548 1644.59 101.1 1643.46 101.1C1643.46 98.0576 1639.89 95.5933 1635.49 95.5933C1634.77 95.5933 1634.04 95.6645 1633.33 95.8062C1634.46 91.0749 1631.44 84.906 1625.54 80.7833C1619.65 76.6606 1612.91 75.9303 1608.79 78.5014C1608.25 76.4253 1607.02 74.587 1605.31 73.2741C1603.6 71.9612 1601.5 71.2476 1599.34 71.2447C1597.71 71.2443 1596.11 71.6492 1594.67 72.4225C1593.24 73.1958 1592.02 74.3131 1591.14 75.672C1591.14 75.6162 1591.14 75.5602 1591.14 75.5045C1591.14 73.154 1588 71.2447 1584.14 71.2447C1582.11 71.1739 1580.13 71.7882 1578.5 72.9866C1578.89 72.1222 1578.98 71.1532 1578.75 70.233C1578.56 69.4433 1578.14 68.7254 1577.55 68.1635C1576.95 67.6016 1576.21 67.219 1575.41 67.0612C1574.54 66.8941 1573.64 66.9989 1572.83 67.3612C1572.02 67.7236 1571.34 68.3257 1570.89 69.0846C1569.12 63.5504 1565.62 58.7191 1560.9 55.2885C1556.17 51.858 1550.48 50.006 1544.62 50C1539.3 50.0005 1534.1 51.5284 1529.64 54.3994C1525.18 57.2703 1521.65 61.3616 1519.48 66.179C1518.83 65.3255 1517.98 64.6331 1517.02 64.1567C1516.05 63.6803 1514.99 63.4325 1513.91 63.4328C1512.31 63.4353 1510.77 63.9741 1509.53 64.9608C1508.29 65.9476 1507.42 67.3239 1507.07 68.864C1504 66.9927 1500.48 66.005 1496.88 66.0115C1492.79 66.0101 1488.81 67.2845 1485.49 69.6543C1482.17 72.0242 1479.69 75.3695 1478.4 79.2163C1477.99 77.2965 1476.93 75.5742 1475.39 74.3386C1473.86 73.103 1471.94 72.4296 1469.96 72.4314C1468.03 72.4321 1466.15 73.0798 1464.64 74.2695C1463.12 75.4592 1462.05 77.1215 1461.6 78.9883C1460.39 77.1786 1458.7 75.7438 1456.7 74.8489C1454.71 73.954 1452.51 73.6357 1450.34 73.93C1447.95 74.254 1445.73 75.3069 1443.97 76.9425C1442.22 78.5782 1441.02 80.7155 1440.54 83.0578C1439.97 85.9023 1440.5 88.8576 1442.04 91.3262C1440.96 90.861 1439.79 90.6202 1438.61 90.6186C1436.81 90.6198 1435.05 91.1829 1433.59 92.2284C1432.12 93.2738 1431.03 94.7489 1430.45 96.4453C1429.67 95.2518 1428.61 94.2707 1427.35 93.5918C1426.09 92.9129 1424.67 92.5575 1423.24 92.5582C1420.96 92.5582 1418.77 93.4576 1417.16 95.0581C1415.55 96.6587 1414.64 98.8293 1414.64 101.093C1414.65 101.549 1414.69 102.004 1414.76 102.454C1412.74 101.865 1410.6 101.719 1408.51 102.028C1403.8 102.622 1400.5 105.117 1400.35 106.592C1400.27 106.972 1400.31 107.366 1400.46 107.724C1400.61 108.082 1400.86 108.387 1401.19 108.601L1395 109.985L1664.65 110Z" fill="white"/>
</g>
</g>
<defs>
<linearGradient id="paint0_linear_267_6" x1="129.449" y1="299.514" x2="129.449" y2="503" gradientUnits="userSpaceOnUse">
<stop/>
<stop offset="1" stop-color="#F50347"/>
</linearGradient>
<linearGradient id="paint1_linear_267_6" x1="1363" y1="208" x2="1363" y2="531" gradientUnits="userSpaceOnUse">
<stop/>
<stop offset="0.104167"/>
<stop offset="0.645833" stop-color="#F50347"/>
</linearGradient>
<clipPath id="clip0_267_6">
<rect width="1510" height="503" fill="white"/>
</clipPath>
<clipPath id="clip1_267_6">
<rect width="316" height="100" fill="white" transform="translate(1194 404)"/>
</clipPath>
<clipPath id="clip2_267_6">
<rect width="128" height="99" fill="white" transform="translate(0 404)"/>
</clipPath>
<clipPath id="clip3_267_6">
<rect width="208" height="87" fill="white" transform="translate(-5 86)"/>
</clipPath>
<clipPath id="clip4_267_6">
<rect width="169" height="60" fill="white" transform="translate(1395 50)"/>
</clipPath>
</defs>
</svg>
