<svg width="83" height="24" viewBox="0 0 83 24" fill="none" xmlns="http://www.w3.org/2000/svg">
<path d="M24.0001 17.6C24.0001 18 24.1001 18.4 24.6001 18.4H27.2001C27.7001 18.4 27.8001 18 27.8001 17.6V9.7C27.8001 9.2 27.8001 8.7 27.7001 8.3C27.6001 7.9 27.5001 7.5 27.4001 7.2C27.3001 6.9 27.1001 6.6 26.9001 6.4C26.7001 6.2 26.4001 6 26.2001 5.8C25.9001 5.6 25.6001 5.5 25.3001 5.3C25.0001 5.2 24.6001 5.1 24.3001 5C23.9001 4.9 23.5001 4.9 23.1001 4.8C22.7001 4.8 22.2001 4.8 21.6001 4.8C18.0001 4.8 16.0001 5.9 15.5001 8.1C15.5001 8.2 15.5001 8.3 15.5001 8.4C15.5001 8.5 15.5001 8.6 15.6001 8.6C15.7001 8.7 15.7001 8.7 15.8001 8.8C15.9001 8.8 16.0001 8.9 16.1001 8.9H18.3001C18.9001 8.9 18.9001 8.7 19.1001 8.2C19.2001 7.9 19.4001 7.7 19.6001 7.5C20.0001 7.1 20.6001 7 21.4001 7C22.2001 7 22.8001 7.2 23.2001 7.5C23.6001 7.8 23.8001 8.3 23.8001 8.9C23.8001 9.6 23.6001 10.1 22.7001 10.1C20.5001 10 18.2001 10.3 16.9001 11C15.6001 11.7 14.8001 13.2 14.8001 14.8C14.8001 15.4 14.9001 16 15.2001 16.5C15.4001 17 15.8001 17.4 16.2001 17.7C16.6001 18 17.1001 18.3 17.7001 18.4C18.3001 18.6 18.9001 18.7 19.6001 18.6C20.5001 18.6 21.3001 18.5 22.1001 18.3C22.8001 18.1 24.0001 17.3 24.1001 17.2L24.0001 17.6ZM23.9001 14.8C23.9001 14.8 23.2001 16.2 20.9001 16.2C20.3001 16.2 19.8001 16.1 19.3001 15.8C18.9001 15.5 18.7001 15.1 18.7001 14.4C18.7001 13.6 19.0001 13 19.7001 12.7C20.4001 12.4 21.7001 12.2 22.7001 12.2C23.7001 12.2 24.0001 12.8 24.0001 13.3C23.9001 13.4 23.9001 14.8 23.9001 14.8ZM0.900098 18.3H3.5001C4.2001 18.3 4.1001 17.5 4.1001 17.5V15.3C2.2001 14.6 1.0001 13.7 0.100098 12.8V17.4C0.200098 17.6 0.100098 18.3 0.900098 18.3ZM14.5001 5.6C14.5001 5 14.4001 4.5 14.3001 3.9C14.2001 3.4 13.9001 2.8 13.6001 2.4C13.3001 1.9 12.9001 1.5 12.5001 1.2C12.1001 0.9 11.6001 0.6 11.1001 0.5C10.6001 0.3 10.0001 0.1 9.4001 0.1C8.7001 0 8.1001 0 7.3001 0H1.3001C0.800098 0 0.200098 0.3 0.200098 1V10.6C1.0001 12.2 2.4001 13.9 4.1001 14.7V12.8C4.1001 11.8 4.9001 11.6 5.2001 11.6H7.0001C9.5001 11.6 11.3001 11.1 12.6001 10.1C13.9001 9.1 14.5001 7.6 14.5001 5.6ZM10.2001 7.3C10.0001 7.6 9.7001 7.9 9.3001 8.1C8.9001 8.3 8.4001 8.4 8.0001 8.4C7.5001 8.4 7.0001 8.5 6.5001 8.5H4.8001C4.4001 8.5 4.1001 8.2 4.1001 7.7V3.8C4.1001 3.7 4.1001 3.6 4.1001 3.6C4.1001 3.5 4.2001 3.4 4.2001 3.4C4.3001 3.3 4.3001 3.3 4.4001 3.3C4.5001 3.3 4.6001 3.3 4.6001 3.3H6.3001C6.9001 3.3 7.4001 3.3 7.9001 3.3C8.3001 3.3 8.8001 3.4 9.2001 3.6C9.6001 3.8 9.9001 4 10.0001 4.4C10.2001 4.7 10.3001 5.2 10.3001 5.9C10.5001 6.3 10.4001 6.8 10.2001 7.3ZM30.9001 20.6C30.7001 20.6 30.5001 20.6 30.3001 20.6C30.1001 20.6 29.6001 20.6 29.6001 21V22.8C29.6001 23.5 29.9001 23.5 30.1001 23.6C30.6001 23.7 31.2001 23.8 31.8001 23.8C32.5001 23.8 33.1001 23.7 33.7001 23.4C34.3001 23.1 34.8001 22.8 35.2001 22.3C35.6001 21.8 36.0001 21.2 36.3001 20.6C36.6001 19.9 36.9001 19.2 37.2001 18.4C37.2001 18.4 37.3001 18.1 37.6001 17.5C37.0001 18 33.9001 20.9 30.9001 20.6ZM41.3001 5.1H39.0001C38.8001 5.1 38.6001 5.2 38.4001 5.3C38.2001 5.4 38.1001 5.6 38.0001 5.8C37.8001 6.3 35.3001 13.2 35.3001 13.2C35.3001 13.2 32.9001 6.5 32.7001 6C32.5001 5.5 32.2001 5.1 31.6001 5.1H29.4001C28.6001 5.1 28.6001 5.7 28.7001 5.9C28.8001 6.1 31.7001 14.1 32.9001 17.2C33.2001 17.9 33.3001 18.1 33.3001 18.4C33.3001 18.7 33.0001 19.2 32.8001 19.6C32.7001 19.7 32.6001 19.9 32.5001 20C34.7001 19.3 37.3001 17 38.6001 14.4C39.9001 10.8 41.6001 6.1 41.7001 5.8C41.9001 5.4 41.9001 5.1 41.3001 5.1Z" fill="white"/>
<path d="M71.8999 8C70.4999 8 69.5999 8.9 69.3999 10.5H74.2999C74.1999 9.1 73.3999 8 71.8999 8Z" fill="white"/>
<path d="M82.2 10.4999C81.7 9.8999 78.6 5.8999 77.5 4.7999C76.2 3.4999 75.1001 2.8999 73.9001 2.8999H47.5C45.1 2.8999 44.3 3.6999 44.3 6.3999V17.2999C44.3 19.9999 44.5 21.1999 48 21.1999H73.9001C75.1001 21.1999 76.4001 20.1999 77.3001 19.1999C78.4001 18.0999 81.7 14.5999 82.2 13.6999C82.5 13.1999 82.6 12.6999 82.6 12.0999C82.7 11.4999 82.5 10.8999 82.2 10.4999ZM46.7001 6.6999C46.7001 6.2999 46.8 5.9999 47.3 5.9999H49.5C50.1 5.9999 50.1 6.2999 50.1 6.6999V6.7999C49 7.3999 47.8001 7.9999 46.7001 9.4999V6.6999ZM64 17.5999H61.7001C61.1001 17.5999 61.2001 17.0999 61.2001 16.8999V10.1999C61.2001 9.3999 61.1001 8.8999 60.9001 8.5999C60.8001 8.3999 60.6001 8.2999 60.4001 8.1999C60.2001 8.0999 60 8.0999 59.8 8.0999C58.6 8.0999 57.8001 9.2999 57.4001 9.7999V16.9999C57.4001 17.1999 57.5 17.5999 56.8 17.5999H54.6C54 17.5999 54.1 17.0999 54.1 16.8999V10.1999C54.1 9.3999 54 8.8999 53.8 8.5999C53.6 8.2999 53.2001 8.0999 52.7001 8.0999C51.4001 8.0999 50.7 9.2999 50.3 9.7999V16.9999C50.3 17.1999 50.4001 17.5999 49.7001 17.5999H47.4001C46.8001 17.5999 46.9001 17.0999 46.9001 16.8999V12.4999C46.9001 9.5999 50.5001 6.7999 50.7001 6.5999C51.6001 5.8999 52.7 5.5999 53.8 5.5999C54.6 5.5999 55.3 5.6999 56 6.0999C56.6 6.4999 57 6.9999 57.3 7.6999C57.8 7.0999 58.4 6.5999 59.1 6.1999C59.7 5.7999 60.4 5.6999 61.1 5.6999C63.7 5.6999 64.9001 7.0999 64.9001 9.9999V16.9999C64.6001 17.1999 64.7 17.5999 64 17.5999ZM76.7 12.4999H69.4001C69.4001 14.3999 70.4 15.3999 72 15.3999C73 15.3999 73.6 14.9999 74.1 14.0999C74.2 13.9999 74.3001 13.8999 74.4001 13.7999C74.5001 13.6999 74.7001 13.6999 74.8001 13.6999H76.7C76.8 13.6999 76.8001 13.6999 76.9001 13.6999C77.0001 13.6999 77 13.7999 77 13.7999L77.1 13.8999C77.1 13.9999 77.1 13.9999 77.1 14.0999C76.3 16.1999 74.4 17.3999 72 17.3999C68.5 17.3999 66.3001 15.0999 66.3001 11.5999C66.3001 8.1999 68.7001 5.6999 71.9001 5.6999C75.2001 5.6999 77.3001 7.8999 77.4001 11.4999C77.4001 11.9999 77.3 12.4999 76.7 12.4999Z" fill="white"/>
</svg>
