<svg width="17" height="19" viewBox="0 0 17 19" fill="none" xmlns="http://www.w3.org/2000/svg">
<path d="M13.5 6C14.8807 6 16 4.88071 16 3.5C16 2.11929 14.8807 1 13.5 1C12.1193 1 11 2.11929 11 3.5C11 4.88071 12.1193 6 13.5 6Z" stroke="#10162F" stroke-width="2" stroke-linecap="round" stroke-linejoin="round"/>
<path d="M3.5 11.8333C4.88071 11.8333 6 10.7141 6 9.33334C6 7.95263 4.88071 6.83334 3.5 6.83334C2.11929 6.83334 1 7.95263 1 9.33334C1 10.7141 2.11929 11.8333 3.5 11.8333Z" stroke="#10162F" stroke-width="2" stroke-linecap="round" stroke-linejoin="round"/>
<path d="M13.5 17.6667C14.8807 17.6667 16 16.5474 16 15.1667C16 13.7859 14.8807 12.6667 13.5 12.6667C12.1193 12.6667 11 13.7859 11 15.1667C11 16.5474 12.1193 17.6667 13.5 17.6667Z" stroke="#10162F" stroke-width="2" stroke-linecap="round" stroke-linejoin="round"/>
<path d="M5.6582 10.5917L11.3499 13.9083" stroke="#10162F" stroke-width="2" stroke-linecap="round" stroke-linejoin="round"/>
<path d="M11.3415 4.75833L5.6582 8.075" stroke="#10162F" stroke-width="2" stroke-linecap="round" stroke-linejoin="round"/>
</svg>
