<svg width="49" height="49" viewBox="0 0 49 49" fill="none" xmlns="http://www.w3.org/2000/svg">
<path fill-rule="evenodd" clip-rule="evenodd" d="M47.8719 25.2398C47.8719 23.5276 47.7183 21.8813 47.4329 20.3008H24.6914V29.641H37.6865C37.1268 32.6593 35.4256 35.2166 32.8682 36.9288V42.9874H40.6719C45.2378 38.7837 47.8719 32.5935 47.8719 25.2398Z" fill="#4285F4"/>
<path fill-rule="evenodd" clip-rule="evenodd" d="M24.6911 48.837C31.2106 48.837 36.6765 46.6748 40.6716 42.987L32.8679 36.9285C30.7057 38.3773 27.9399 39.2334 24.6911 39.2334C18.4021 39.2334 13.0789 34.9858 11.1801 29.2785H3.11304V35.5346C7.08621 43.426 15.2521 48.837 24.6911 48.837Z" fill="#34A853"/>
<path fill-rule="evenodd" clip-rule="evenodd" d="M11.1803 29.2792C10.6974 27.8304 10.423 26.2828 10.423 24.6914C10.423 23.0999 10.6974 21.5523 11.1803 20.1035V13.8474H3.11322C1.47785 17.1072 0.544922 20.795 0.544922 24.6914C0.544922 28.5877 1.47785 32.2755 3.11322 35.5353L11.1803 29.2792Z" fill="#FBBC05"/>
<path fill-rule="evenodd" clip-rule="evenodd" d="M24.6911 10.1484C28.2362 10.1484 31.4192 11.3667 33.9216 13.7594L40.8472 6.83377C36.6655 2.93742 31.1997 0.544739 24.6911 0.544739C15.2521 0.544739 7.08621 5.95572 3.11304 13.8472L11.1801 20.1033C13.0789 14.396 18.4021 10.1484 24.6911 10.1484Z" fill="#EA4335"/>
</svg>
