<svg width="429" height="283" viewBox="0 0 429 283" fill="none" xmlns="http://www.w3.org/2000/svg">
<g opacity="0.199997">
<g opacity="0.199997">
<path opacity="0.199997" d="M21.372 270.895C21.372 270.895 -23.4665 218.595 27.0429 161.683C67.7558 115.808 54.7565 98.0669 52.8799 67.1311C51.2908 40.9464 80.9604 2.22742 125.362 0.295166C198.14 -2.87247 216.233 20.5338 254.872 18.8783C293.511 17.2222 310.988 3.68552 355.868 9.01974C439.149 18.9188 427.924 97.9134 415.787 156.959C403.65 216.003 440.119 236.164 413.876 270.942" fill="#B5D0FF"/>
</g>
</g>
<path d="M248.765 262.289H178.431L186.07 232.229L187.801 225.411L191.163 212.21H236.033L239.394 225.411L241.125 232.229L248.765 262.289Z" fill="#6F3FBA"/>
<path d="M241.126 232.229H186.07L187.802 225.411H239.394L241.126 232.229Z" fill="#5730A0"/>
<path d="M275.755 270.594H151.435C148.452 270.594 146.034 268.174 146.034 265.189C146.034 262.203 148.452 259.783 151.435 259.783H275.755C278.738 259.783 281.156 262.203 281.156 265.189C281.156 268.174 278.738 270.594 275.755 270.594Z" fill="#774CC9"/>
<path d="M328.358 84.4943V216.816C328.358 219.964 325.805 222.519 322.66 222.519H104.542C101.389 222.519 98.8438 219.964 98.8438 216.816V84.4943C98.8438 81.3465 101.389 78.7914 104.542 78.7914H322.66C325.805 78.7914 328.358 81.3465 328.358 84.4943Z" fill="#854DCE"/>
<path d="M323.736 199.623H103.043V82.9774H323.736V199.623Z" fill="#B8B8F4"/>
<g opacity="0.300003">
<path opacity="0.300003" d="M301.895 182.179H295.708V82.978H301.895V182.179Z" fill="#EEFAFF"/>
<path opacity="0.300003" d="M317.569 182.179H311.382V82.978H317.569V182.179Z" fill="#EEFAFF"/>
<path opacity="0.300003" d="M113.798 182.179H107.611V82.978H113.798V182.179Z" fill="#EEFAFF"/>
<path opacity="0.300003" d="M129.473 182.179H123.286V82.978H129.473V182.179Z" fill="#EEFAFF"/>
<path opacity="0.300003" d="M145.147 182.179H138.96V82.978H145.147V182.179Z" fill="#EEFAFF"/>
<path opacity="0.300003" d="M160.822 182.179H154.635V82.978H160.822V182.179Z" fill="#EEFAFF"/>
<path opacity="0.300003" d="M176.497 182.179H170.31V82.978H176.497V182.179Z" fill="#EEFAFF"/>
<path opacity="0.300003" d="M192.173 182.179H185.986V82.978H192.173V182.179Z" fill="#EEFAFF"/>
<path opacity="0.300003" d="M207.846 182.179H201.659V82.978H207.846V182.179Z" fill="#EEFAFF"/>
<path opacity="0.300003" d="M223.522 182.179H217.335V82.978H223.522V182.179Z" fill="#EEFAFF"/>
<path opacity="0.300003" d="M239.196 182.179H233.009V82.978H239.196V182.179Z" fill="#EEFAFF"/>
<path opacity="0.300003" d="M254.871 182.179H248.684V82.978H254.871V182.179Z" fill="#EEFAFF"/>
<path opacity="0.300003" d="M270.545 182.179H264.358V82.978H270.545V182.179Z" fill="#EEFAFF"/>
<path opacity="0.300003" d="M286.219 182.179H280.032V82.978H286.219V182.179Z" fill="#EEFAFF"/>
</g>
<path d="M323.736 199.623H103.043V182.178H323.736V199.623Z" fill="#7272DD"/>
<path d="M213.586 215.996C210.675 215.996 208.294 213.613 208.294 210.7C208.294 207.788 210.675 205.405 213.586 205.405C216.496 205.405 218.877 207.788 218.877 210.7C218.877 213.613 216.496 215.996 213.586 215.996Z" fill="#5730A0"/>
<g opacity="0.199997">
<g opacity="0.199997">
<g opacity="0.199997">
<g opacity="0.199997">
<g opacity="0.199997">
<g opacity="0.199997">
<path opacity="0.199997" d="M229.812 222.414H214.31L255.079 78.7915H270.581L229.812 222.414Z" fill="url(#paint0_linear_17_15288)"/>
</g>
</g>
</g>
</g>
</g>
</g>
<g opacity="0.199997">
<g opacity="0.199997">
<g opacity="0.199997">
<g opacity="0.199997">
<g opacity="0.199997">
<g opacity="0.199997">
<path opacity="0.199997" d="M268.761 222.414H235.872L276.641 78.7915H309.53L268.761 222.414Z" fill="url(#paint1_linear_17_15288)"/>
</g>
</g>
</g>
</g>
</g>
</g>
<path d="M315.272 192.609H134.211C133.265 192.609 132.499 191.843 132.499 190.896C132.499 189.95 133.265 189.183 134.211 189.183H315.272C316.218 189.183 316.984 189.95 316.984 190.896C316.984 191.843 316.218 192.609 315.272 192.609Z" fill="#9494ED"/>
<path d="M224.741 189.187V192.613H134.211C133.266 192.613 132.499 191.845 132.499 190.9C132.499 189.947 133.266 189.187 134.211 189.187H224.741Z" fill="#F98094"/>
<path d="M227.866 190.901C227.866 192.604 226.486 193.984 224.785 193.984C223.084 193.984 221.704 192.604 221.704 190.901C221.704 189.198 223.084 187.818 224.785 187.818C226.486 187.818 227.866 189.198 227.866 190.901Z" fill="white"/>
<path d="M124.683 190.901C124.683 194.701 121.605 197.782 117.808 197.782C114.011 197.782 110.934 194.701 110.934 190.901C110.934 187.101 114.011 184.02 117.808 184.02C121.605 184.02 124.683 187.101 124.683 190.901Z" fill="white"/>
<path d="M116.771 187.814L120.54 190.721C120.659 190.812 120.659 190.99 120.54 191.081L116.771 193.988C116.621 194.103 116.404 193.996 116.404 193.807V187.994C116.404 187.805 116.621 187.699 116.771 187.814Z" fill="#854DCE"/>
<path d="M24.7559 255.814C24.7559 255.814 -8.37803 211.018 2.01962 201.452C12.4173 191.884 27.6108 225.584 24.7559 255.814Z" fill="#D6D4FF"/>
<path d="M5.12457 206.758C11.0371 215.857 15.794 225.629 19.2487 235.921C20.7494 240.393 22.0352 244.934 23.0978 249.531C24.0946 253.843 24.745 258.214 25.6385 262.545C25.6857 262.773 26.0671 262.726 26.0486 262.49C25.3276 253.371 22.8253 244.077 19.8991 235.448C16.4307 225.219 11.7279 215.381 5.54014 206.514C5.36487 206.264 4.95409 206.494 5.12457 206.758Z" fill="#7878C4"/>
<path d="M4.26522 212.891C7.06815 214.879 9.71839 217.142 12.559 219.056C12.7377 219.176 12.9006 218.92 12.776 218.774C10.6481 216.27 7.41868 213.964 4.47404 212.534C4.23305 212.417 4.04819 212.737 4.26522 212.891Z" fill="#7878C4"/>
<path d="M5.29159 215.575C8.09452 217.562 10.7448 219.825 13.5853 221.739C13.764 221.859 13.927 221.603 13.8024 221.457C11.6745 218.953 8.44505 216.647 5.50041 215.217C5.25941 215.1 5.07456 215.42 5.29159 215.575Z" fill="#7878C4"/>
<path d="M31.5206 250.685C31.5206 250.685 63.466 205.032 52.8205 195.743C42.175 186.452 27.8722 220.54 31.5206 250.685Z" fill="#D6D4FF"/>
<path d="M49.4402 200.891C43.075 210.563 38.4215 221.285 35.1852 232.387C32.5076 241.573 30.3565 251.432 30.0333 261.03C30.0258 261.26 30.4071 261.322 30.4434 261.086C31.1335 256.545 31.6032 251.982 32.4255 247.459C33.3189 242.538 34.4623 237.666 35.8487 232.861C39.0719 221.691 43.772 211.038 49.8557 201.134C50.0194 200.868 49.6093 200.633 49.4402 200.891Z" fill="#7878C4"/>
<path d="M32.4506 228.823C32.2897 232.469 32.363 236.625 33.1969 240.195C33.2441 240.398 33.5413 240.344 33.5488 240.147C33.6207 238.383 33.3831 236.586 33.2708 234.825C33.1435 232.826 33.0764 230.815 32.8641 228.823C32.8368 228.562 32.4623 228.551 32.4506 228.823Z" fill="#0E7C74"/>
<path d="M29.0242 234.497C29.0242 234.497 -3.12585 188.99 7.47719 179.652C18.0809 170.313 32.5371 204.337 29.0242 234.497Z" fill="#A29EE5"/>
<path d="M10.4673 185.029C21.6228 202.907 27.8264 223.344 29.9433 244.244C30.3677 248.438 30.5464 252.642 30.8614 256.843C30.8812 257.108 31.2722 257.114 31.279 256.843C31.4714 248.77 30.4451 240.538 29.0792 232.598C27.304 222.277 24.4641 212.114 20.3487 202.477C17.7149 196.31 14.5806 190.379 10.8829 184.785C10.7131 184.528 10.3016 184.763 10.4673 185.029Z" fill="#7878C4"/>
<path d="M27.0952 247.772C27.0952 247.772 46.8807 220.559 40.5553 214.833C34.2292 209.108 25.2213 229.532 27.0952 247.772Z" fill="#8C8CDD"/>
<path d="M38.3735 217.859C33.4304 225.016 30.0729 233.183 27.9998 241.612C26.4587 247.876 25.1948 254.763 25.468 261.247C25.4797 261.523 25.8535 261.508 25.885 261.247C26.6826 254.698 27.1474 248.255 28.742 241.817C30.8253 233.409 34.1801 225.437 38.7891 218.102C38.9561 217.836 38.5474 217.607 38.3735 217.859Z" fill="#7878C4"/>
<path d="M40.359 246.461L40.2029 247.501L39.8757 249.712L36.7154 270.942H17.8624L14.7021 249.712L14.3748 247.501L14.2188 246.461H40.359Z" fill="#BFB8F4"/>
<path d="M40.2021 247.501L39.8749 249.712H14.7013L14.374 247.501H40.2021Z" fill="#7878C4"/>
<path d="M40.7262 248.455H13.8506C12.9893 248.455 12.291 247.756 12.291 246.894C12.291 246.032 12.9893 245.334 13.8506 245.334H40.7262C41.5875 245.334 42.2858 246.032 42.2858 246.894C42.2858 247.756 41.5875 248.455 40.7262 248.455Z" fill="#A29EE5"/>
<path d="M52.1661 169.411V183.447C52.1661 183.662 52.097 183.862 51.9819 184.015C51.806 184.276 51.5068 184.437 51.1768 184.437H30.5732C30.3048 184.437 30.0666 184.33 29.8906 184.169V171.138C29.8906 170.662 30.2816 170.279 30.7567 170.279H45.2341C45.7099 170.279 46.0933 169.887 46.0933 169.411C46.0933 168.936 46.4767 168.544 46.9519 168.544H51.2994C51.7752 168.544 52.1661 168.936 52.1661 169.411Z" fill="#383493"/>
<path d="M51.9804 184.015C51.8045 184.276 51.5053 184.437 51.1753 184.437H30.5717C30.3033 184.437 30.0651 184.33 29.8891 184.169C29.8049 184.084 29.7282 183.984 29.6817 183.877C29.6666 183.854 29.6591 183.831 29.6515 183.808L25.0658 173.333C24.8282 172.787 25.2267 172.174 25.8251 172.174H46.2527C46.582 172.174 46.8812 172.365 47.0113 172.665L51.3054 182.473L51.9804 184.015Z" fill="#5146AF"/>
<path d="M6.88184 271.249H420.324" stroke="#5730A0" stroke-width="2.66667" stroke-miterlimit="10" stroke-linecap="round" stroke-linejoin="round"/>
<path d="M149.541 99.0928H49.1464C48.6049 99.0928 48.166 98.6536 48.166 98.1116V23.3788C48.166 21.6816 49.5408 20.3064 51.236 20.3064H145.97C148.484 20.3064 150.521 22.3455 150.521 24.8609V98.1116C150.521 98.6536 150.082 99.0928 149.541 99.0928Z" fill="#D6D4FF"/>
<path d="M144.668 95.2686H54.1334C53.064 95.2686 52.1973 94.4011 52.1973 93.3315V80.2436C52.1973 79.1734 53.064 78.3059 54.1334 78.3059H144.668C145.737 78.3059 146.604 79.1734 146.604 80.2436V93.3315C146.604 94.4011 145.737 95.2686 144.668 95.2686Z" fill="white"/>
<path d="M145.371 75.5H53.4296C52.7491 75.5 52.1973 74.9477 52.1973 74.266V69.854C52.1973 69.1722 52.7491 68.6199 53.4296 68.6199H145.371C146.051 68.6199 146.604 69.1722 146.604 69.854V74.266C146.604 74.9477 146.051 75.5 145.371 75.5Z" fill="white"/>
<g opacity="0.309998">
<g opacity="0.309998">
<path opacity="0.309998" d="M107.162 33.6079H53.2948C52.4575 33.6079 51.7783 32.9282 51.7783 32.0895C51.7783 31.2508 52.4575 30.5711 53.2948 30.5711H107.162C108 30.5711 108.679 31.2508 108.679 32.0895C108.679 32.9282 108 33.6079 107.162 33.6079Z" fill="white"/>
</g>
</g>
<g opacity="0.309998">
<g opacity="0.309998">
<path opacity="0.309998" d="M107.165 39.8837H53.2984C52.4604 39.8837 51.7812 39.204 51.7812 38.3653C51.7812 37.5266 52.4604 36.8469 53.2984 36.8469H107.165C108.003 36.8469 108.682 37.5266 108.682 38.3653C108.682 39.204 108.003 39.8837 107.165 39.8837Z" fill="white"/>
</g>
</g>
<g opacity="0.309998">
<g opacity="0.309998">
<path opacity="0.309998" d="M107.165 46.1599H53.2984C52.4604 46.1599 51.7812 45.4802 51.7812 44.6415C51.7812 43.8028 52.4604 43.1231 53.2984 43.1231H107.165C108.003 43.1231 108.682 43.8028 108.682 44.6415C108.682 45.4802 108.003 46.1599 107.165 46.1599Z" fill="white"/>
</g>
</g>
<g opacity="0.309998">
<g opacity="0.309998">
<path opacity="0.309998" d="M107.165 52.4358H53.2984C52.4604 52.4358 51.7812 51.7561 51.7812 50.9174C51.7812 50.0787 52.4604 49.399 53.2984 49.399H107.165C108.003 49.399 108.682 50.0787 108.682 50.9174C108.682 51.7561 108.003 52.4358 107.165 52.4358Z" fill="white"/>
</g>
</g>
<g opacity="0.309998">
<g opacity="0.309998">
<path opacity="0.309998" d="M107.165 58.7117H53.2984C52.4604 58.7117 51.7812 58.032 51.7812 57.1933C51.7812 56.3546 52.4604 55.6749 53.2984 55.6749H107.165C108.003 55.6749 108.682 56.3546 108.682 57.1933C108.682 58.032 108.003 58.7117 107.165 58.7117Z" fill="white"/>
</g>
</g>
<g opacity="0.309998">
<g opacity="0.309998">
<path opacity="0.309998" d="M94.5075 64.9897H53.2955C52.4575 64.9897 51.7783 64.31 51.7783 63.4713C51.7783 62.6327 52.4575 61.9529 53.2955 61.9529H94.5075C95.3455 61.9529 96.0247 62.6327 96.0247 63.4713C96.0247 64.31 95.3455 64.9897 94.5075 64.9897Z" fill="white"/>
</g>
</g>
<path d="M149.484 17.7024H49.2032C48.6302 17.7024 48.166 18.167 48.166 18.7405V26.4257H150.521V18.7405C150.521 18.167 150.057 17.7024 149.484 17.7024Z" fill="#854DCE"/>
<path d="M135.332 22.0641C135.332 22.5869 134.909 23.0104 134.387 23.0104C133.864 23.0104 133.44 22.5869 133.44 22.0641C133.44 21.5413 133.864 21.1172 134.387 21.1172C134.909 21.1172 135.332 21.5413 135.332 22.0641Z" fill="white"/>
<path d="M140.033 22.0641C140.033 22.5869 139.609 23.0104 139.087 23.0104C138.565 23.0104 138.142 22.5869 138.142 22.0641C138.142 21.5413 138.565 21.1172 139.087 21.1172C139.609 21.1172 140.033 21.5413 140.033 22.0641Z" fill="white"/>
<path d="M144.732 22.0641C144.732 22.5869 144.309 23.0104 143.786 23.0104C143.264 23.0104 142.841 22.5869 142.841 22.0641C142.841 21.5413 143.264 21.1172 143.786 21.1172C144.309 21.1172 144.732 21.5413 144.732 22.0641Z" fill="white"/>
<path d="M146.603 31.5539V63.9978C146.603 64.5467 146.16 64.99 145.612 64.99H113.544C113.008 64.99 112.564 64.5467 112.564 63.9978V31.5539C112.564 31.0167 113.008 30.5734 113.544 30.5734H145.612C146.16 30.5734 146.603 31.0167 146.603 31.5539Z" fill="white"/>
<path d="M146.604 57.9174V63.9978C146.604 64.546 146.161 64.99 145.613 64.99H129.707L130.383 57.9174L137.87 49.6314L146.604 57.9174Z" fill="#6C3DB7"/>
<path d="M142.149 64.9899H113.545C113.008 64.9899 112.565 64.5465 112.565 63.9977V57.9173L123.76 46.16L142.149 64.9899Z" fill="#854DCE"/>
<path d="M142.103 39.8836C142.103 42.0653 140.336 43.8337 138.156 43.8337C135.977 43.8337 134.21 42.0653 134.21 39.8836C134.21 37.7019 135.977 35.9334 138.156 35.9334C140.336 35.9334 142.103 37.7019 142.103 39.8836Z" fill="#854DCE"/>
<path d="M194.774 171.833L184.073 153.456L167.059 154.797L162.419 159.031C161.823 158.339 161.953 158.497 161.488 157.975C157.899 153.952 149.497 147.263 142.836 140.379C135.272 132.562 129.609 124.739 129.609 124.739L128.263 125.412C128.268 124.695 128.272 124.236 128.272 124.236L122.285 116.22L115.028 115.747L109.641 122.304L109.918 125.81C109.918 125.81 110.005 131.212 114.222 131.759C115.489 131.922 118.688 132.533 119.697 133.224C122.589 135.202 124.869 137.942 126.461 141.065C131.216 150.394 138.149 163.704 144.659 175.11C144.659 175.11 144.904 175.587 145.405 176.333C147.67 179.946 154.689 190.39 160.427 190.883C167.37 191.479 194.774 171.833 194.774 171.833Z" fill="#F7B59C"/>
<path d="M219.153 74.9297C219.153 74.9297 221.438 71.514 224.581 70.7C227.725 69.886 221.132 78.0138 221.132 78.0138C221.132 78.0138 219.357 78.8004 219.153 78.6695C218.95 78.5386 219.153 74.9297 219.153 74.9297Z" fill="#01263A"/>
<path d="M277.71 50.5286C277.71 50.5286 300.127 58.581 273.44 81.7283L269.423 80.5045L277.71 50.5286Z" fill="#003051"/>
<path d="M265.393 88.0168C266.127 86.7657 266.924 85.5001 267.803 84.227C267.496 85.1082 267.265 85.905 267.098 86.5553C266.12 87.3803 265.415 87.9956 265.393 88.0168ZM221.027 120.198C231.719 133.241 246.014 135.325 246.014 135.325C270.843 134.853 275.078 121.162 275.078 121.162L261.209 118.08C261.209 118.08 260.79 99.9584 268.481 88.7788C274.245 89.8901 276.945 80.7921 275.363 78.3487C273.645 75.6977 271.714 76.0471 271.714 76.0471C270.079 77.8232 268.593 82.0042 267.86 84.0667L233.266 101.971C233.266 101.971 233.685 102.832 234.195 104.461C234.726 106.153 235.369 108.684 235.739 111.949C235.962 113.948 236.095 116.22 236.039 118.751L221.027 120.198Z" fill="#F7B59C"/>
<path d="M234.192 104.461C234.723 106.153 235.366 108.684 235.736 111.949C264.546 105.628 265.37 90.0238 265.37 90.0238L250.581 96.0288L234.192 104.461Z" fill="#ED9780"/>
<path d="M229.633 40.7989C229.633 40.7989 223.36 52.4732 227.681 60.1638L237.667 47.2075" fill="#01263A"/>
<path d="M218.631 100.077C225.27 110.568 249.601 110.328 261.016 95.2966C272.43 80.2655 274.292 63.0192 268.585 52.4172C265.411 46.5252 257.822 43.1184 250.362 42.5668C248.35 42.4168 246.357 42.5771 244.425 43.0081C239.879 44.0098 235.733 46.5553 232.659 50.1725C232.379 50.5034 232.119 50.8344 231.859 51.1749L230.106 53.4895C229.876 53.7903 229.666 54.0911 229.455 54.4118C228.354 56.0549 227.493 57.8487 226.922 59.733C226.601 60.7149 226.371 61.7269 226.211 62.7492C225.78 65.5147 224.719 69.1421 222.126 72.3385C217.12 78.5114 212.003 89.5944 218.631 100.077Z" fill="#F7B59C"/>
<path d="M232.657 50.172C234.313 50.8641 237.003 51.7802 240.39 52.1858C246.195 52.8847 257.897 54.0455 261.823 58.317C261.823 58.317 263.472 59.8066 264.442 63.162C265.406 66.518 262.263 51.7521 262.263 51.7521L244.428 43.0056C239.881 44.0128 235.731 46.5508 232.657 50.172Z" fill="#ED9780"/>
<path d="M266.597 67.8356C266.597 67.8356 266.541 83.0394 258.507 87.0594C250.474 91.0795 244.973 86.1221 241.304 83.4971C239.194 81.9876 238.452 85.8576 238.452 85.8576C238.452 85.8576 242.644 92.8274 244.74 92.8274C246.836 92.8274 255.277 92.7109 255.917 92.3025C256.557 91.8948 261.389 89.5645 261.389 89.5645C261.389 89.5645 264.707 83.8883 264.94 83.2888C265.173 82.6893 268.957 76.2224 268.782 75.4063C268.608 74.5909 268.666 69.2307 268.666 69.2307L266.597 67.8356Z" fill="#ED9780"/>
<path d="M229.857 20.8671C227.963 21.2357 226.249 25.127 225.476 26.8708C224.364 29.3793 222.248 35.3617 227.071 42.0513C232.543 49.6398 244.361 49.6549 253.18 51.927C261.019 53.9462 264.925 59.003 264.411 64.7648C264.27 66.3428 264.829 67.9036 265.868 69.0986L266.035 69.2905C267.001 70.4019 267.398 71.8963 267.105 73.3407C266.185 77.8972 263.309 87.2419 256.237 89.331C250.124 91.1372 247.617 88.8398 246.608 88.071C243.051 85.3624 241.043 82.3619 234.101 78.9743C230.491 77.2127 226.607 77.4566 221.544 76.7173C220.602 76.5796 219.3 76.4555 219.154 74.9296C219.154 74.9296 208.104 87.9051 215.835 101.393C217.778 104.783 220.986 107.226 224.782 108.142C229.977 109.396 238.607 110.126 248.64 105.587C265.056 98.1577 270.47 81.2039 272.654 75.8724C274.836 70.5416 280.513 56.18 276.279 42.9543C273.666 34.7916 265.392 27.8903 251.871 27.2819C242.451 26.8584 235.467 19.7749 229.857 20.8671Z" fill="#003051"/>
<path d="M240.596 87.017C240.596 87.017 240.365 87.4576 239.897 88.0661C238.416 90.0024 234.525 93.6593 227.888 90.4293C225.807 89.4152 224.745 88.0517 224.263 86.6676C223.25 83.7939 224.759 80.8434 224.759 80.8434C224.759 80.8434 227.218 82.4584 230.564 84.0316C233.456 85.402 237.019 86.7375 240.218 86.9889C240.344 87.0033 240.47 87.0102 240.596 87.017Z" fill="#8D1612"/>
<path d="M240.394 86.4019L240.219 86.9891L239.897 88.0662C238.417 90.0026 234.526 93.6588 227.889 90.4288C225.808 89.4154 224.746 88.0518 224.264 86.6678C227.002 84.0387 229.733 84.0318 229.733 84.0318H234.19L240.394 86.4019Z" fill="#FF4C2F"/>
<path d="M225.091 80.8436C225.091 80.8436 223.234 83.1581 223.229 83.8194C223.223 84.8465 235.454 90.5939 236.11 90.6377C236.764 90.6809 237.903 88.3231 237.903 88.3231L232.947 85.3693" fill="#FAFFF7"/>
<path d="M225.694 56.0338C225.403 56.6848 225.637 56.0777 225.373 56.9986C225.103 57.9435 225.711 58.7931 226.636 59.1241C228.929 59.9449 235.878 62.6967 235.878 62.6967C236.604 63.1174 236.615 62.3356 236.39 61.8648C235.478 59.9511 234.562 57.5721 227.98 55.3411C227.057 55.028 226.091 55.1431 225.694 56.0338Z" fill="#003051"/>
<path d="M258.36 69.2023C258.087 69.8607 258.366 69.2735 257.88 70.0985C257.381 70.9447 256.346 71.0879 255.47 70.6439C253.298 69.5428 246.521 66.3875 246.521 66.3875C245.717 66.1497 246.276 65.6043 246.773 65.4433C248.788 64.7896 251.143 63.8194 257.289 67.0651C258.151 67.5201 258.732 68.3012 258.36 69.2023Z" fill="#003051"/>
<path d="M222.27 81.291C222.27 81.291 226.123 86.1963 231.475 84.6992C231.475 84.6992 231.526 88.7103 240.52 90.0259L241.306 86.8843C241.306 86.8843 235.518 83.7961 235.137 84.0291C234.757 84.262 229.255 82.5586 228.207 82.362C227.159 82.1646 223.579 79.3684 223.579 79.3684L222.27 81.291Z" fill="#003051"/>
<path d="M272.56 79.1718C272.56 79.1718 269.296 83.8277 269.796 85.8579C269.796 85.8579 269.922 84.6794 272.925 84.6972C272.925 84.6972 274.867 81.9893 273.89 79.97C273.405 78.9683 272.56 79.1718 272.56 79.1718Z" fill="#ED9780"/>
<path d="M246.825 70.6852C245.799 72.3578 245.37 74.1804 247.048 75.5097C247.587 75.9366 248.518 75.7536 248.982 75.3096C249.835 74.4929 249.95 74.1064 250.453 73.1533C251.599 70.9771 248.134 68.5502 246.825 70.6852Z" fill="#452E17"/>
<path d="M247.104 71.6597C246.835 72.0982 246.723 72.5764 247.162 72.9252C247.304 73.0369 247.549 72.9896 247.67 72.8725C247.894 72.6587 247.835 72.4367 247.967 72.1866C248.267 71.6158 247.447 71.0998 247.104 71.6597Z" fill="white"/>
<path d="M228.931 64.6332C228.084 65.9303 227.705 67.3596 229 68.4463C229.415 68.7951 230.154 68.6718 230.531 68.3319C231.223 67.7063 231.282 67.2048 231.7 66.4634C232.654 64.7716 230.012 62.9771 228.931 64.6332Z" fill="#452E17"/>
<path d="M229.13 65.4086C228.909 65.7485 228.809 66.124 229.148 66.409C229.257 66.5001 229.451 66.4679 229.55 66.3789C229.732 66.2144 229.69 66.0376 229.799 65.8437C230.05 65.4004 229.414 64.9742 229.13 65.4086Z" fill="white"/>
<path d="M129.845 125.118C129.845 125.118 121.259 106.667 115.269 102.32C115.269 102.32 113.161 102.651 113.408 105.215C113.655 107.779 117.29 110.925 117.453 113.324C117.618 115.723 116.006 115.391 114.023 114.935C112.039 114.478 97.3729 106.309 95.9262 107.025C94.4515 107.754 95.9659 109.279 96.9991 110.107C98.0315 110.935 105.86 115.86 105.86 115.86C105.86 115.86 91.7547 108.114 90.6997 110.807C90.0157 112.554 103.131 119.292 103.131 119.292C103.131 119.292 91.8636 112.975 91.3487 115.318C90.9099 117.319 100.454 121.8 100.454 121.8C100.454 121.8 94.5556 118.71 94.1119 120.067C93.5492 121.786 101.742 126.24 104.118 127.792C106.493 129.344 112.278 131.829 114.571 131.769C116.865 131.708 118.559 131.481 119.819 132.764" fill="#F7B59C"/>
<path d="M286.913 164.629L291.651 182.177H205.598C205.605 177.641 205.358 172.228 205.002 166.883L186.49 178.23C180.437 166.226 167.244 154.803 167.06 154.797C179.91 142.178 195.668 127.887 204.253 121.926C208.361 119.069 228.095 117.919 230.656 117.666C232.888 117.44 234.86 116.124 235.935 114.151C235.935 114.151 238.68 120.537 243.157 122.846C244.376 123.346 244.486 130.589 246.006 130.548C246.457 130.534 249.785 122.969 250.216 122.901C250.216 122.901 255.515 122.003 261.369 113.178L262.416 114.61C263.375 115.919 264.751 116.837 266.326 117.207C269.311 117.913 274.658 119.331 279.909 121.455C287.289 124.436 295.416 138.612 295.416 138.612L297.244 164.629L286.399 164.136L286.913 164.629Z" fill="white"/>
<path d="M278.993 160.173L281.039 182.179H291.651L289.768 167.836L278.993 160.173Z" fill="#F4F4F4"/>
<path d="M310.649 156.701L320.234 182.179H291.65L286.914 171.833" fill="#F7B59C"/>
<path d="M268.79 117.825C268.79 117.825 290.696 120.996 297.245 127.523C300.51 130.777 303.186 137.011 307.285 146.366C313.988 161.669 317.149 170.003 317.149 170.003C317.149 170.003 300.565 181.54 283.949 178.114L275.809 154.646L268.79 117.825Z" fill="white"/>
<path d="M236.346 68.4663C234.913 72.0156 231.163 73.8464 227.97 72.5555C224.777 71.2646 223.35 67.3405 224.784 63.7905C226.217 60.2412 229.967 58.4104 233.16 59.7013C236.352 60.9922 237.779 64.917 236.346 68.4663Z" stroke="white" stroke-width="1.33333" stroke-miterlimit="10"/>
<path d="M253.232 75.3265C251.799 78.8758 248.049 80.7067 244.856 79.4157C241.663 78.1248 240.236 74.2007 241.67 70.6507C243.103 67.1014 246.853 65.2706 250.046 66.5615C253.238 67.8524 254.665 71.7772 253.232 75.3265Z" stroke="white" stroke-width="1.33333" stroke-miterlimit="10"/>
<path d="M236.517 67.9931C236.517 67.9931 240.252 67.5943 241.666 70.651" stroke="white" stroke-width="1.33333" stroke-miterlimit="10"/>
<path d="M253.465 74.6634L272.654 75.8728" stroke="white" stroke-width="1.33333" stroke-miterlimit="10" stroke-linecap="round"/>
<path d="M210.295 182.177H205.599C205.605 177.641 205.359 172.228 205.003 166.883L208.81 164.753C208.81 164.753 210.405 177.34 210.295 182.177Z" fill="#F4F4F4"/>
<path d="M238.453 69.8587C238.453 69.8587 233.457 73.7273 232.914 75.7514C232.595 76.945 234.597 78.2667 234.597 78.2667" stroke="#ED9780" stroke-width="1.33333" stroke-miterlimit="10" stroke-linecap="round"/>
<path d="M100.747 204.655C100.747 204.655 102.798 211.814 95.1061 211.811C94.0162 211.811 93.0933 211.525 92.3121 211.142C89.4729 209.774 88.8115 205.001 88.8115 205.001C91.2153 204.385 90.3718 200.909 90.3718 200.909L98.9162 201.105C98.9162 201.105 98.4937 203.34 99.1175 203.979C100.207 205.091 100.747 204.655 100.747 204.655Z" fill="#F7B59C"/>
<path d="M89.2887 204.459C89.2887 204.459 88.8081 210.808 94.7788 210.808C100.181 210.808 100.246 206.603 99.8472 204.286C106.017 204.836 112.762 207.33 116.209 210.16C120.296 215.452 123.132 223.546 123.132 223.546C123.132 223.546 121.185 224.457 119.297 225.02C117.282 225.621 115.801 226.545 115.801 226.545L113.384 259.222H75.5993L74.955 226.526C74.955 226.526 72.4719 225.931 70.4645 225.272C67.5253 224.308 66.4258 223.365 66.4258 223.365C66.4258 223.365 68.6961 216.668 72.1158 211.159C75.5863 207.947 82.0801 205.302 89.2887 204.459Z" fill="#5146AF"/>
<path d="M67.0962 223.74C67.0962 223.74 63.4923 236.495 63.8243 242.589C64.1564 248.683 78.5482 257.214 78.5482 257.214L80.4303 250.788C80.4303 250.788 74.452 248.24 73.5668 243.586C72.6809 238.933 77.6993 227.262 77.6993 227.262C77.6993 227.262 75.4824 226.611 72.4515 225.78C69.5041 224.972 67.0962 223.74 67.0962 223.74Z" fill="#F7B59C"/>
<path d="M122.694 223.74C122.694 223.74 126.298 236.495 125.966 242.589C125.634 248.683 111.242 257.214 111.242 257.214L109.36 250.788C109.36 250.788 115.339 248.24 116.224 243.586C117.11 238.933 111.915 226.98 111.915 226.98C111.915 226.98 114.308 226.441 117.339 225.61C120.287 224.802 122.694 223.74 122.694 223.74Z" fill="#F7B59C"/>
<path d="M117.995 259.753H71.3042L70.245 230.476C70.2176 229.717 70.8249 229.086 71.5835 229.086H117.715C118.474 229.086 119.081 229.717 119.054 230.476L117.995 259.753Z" fill="#9999EF"/>
<path d="M114.256 266.452C114.256 266.452 115.249 265.277 117.561 265.214C119.06 265.174 123.304 266.134 125.329 266.101C127.354 266.067 129.46 265.623 130.622 267.353C132.594 270.287 131.742 272.934 128.422 273.332C126.616 273.549 125.125 272.355 122.256 272.64C119.476 272.916 115.14 271.986 113.878 269.999" fill="#4C4051"/>
<path d="M110.333 265.085C110.333 265.085 112.571 265.725 114.057 265.805C115.543 265.885 118.877 265.514 120.383 266.462C122.013 267.489 121.409 270.272 120.376 270.928C118.707 271.989 117.357 271.441 114.304 270.477C111.249 269.514 107.666 269.881 107.666 269.881" fill="#F7B59C"/>
<path d="M114.88 271.756C114.88 271.756 80.2621 271.132 71.0386 269.917C67.1608 269.402 63.5185 268.567 60.4835 267.327C56.3353 264.854 54.8167 258.966 57.6382 253.541C58.9554 251.01 63.0126 251.464 63.5774 251.464C63.7205 251.464 63.7965 251.472 63.7965 251.472C75.0185 251.911 85.2449 254.779 96.8037 259.404C107.562 263.699 115.782 265.487 115.782 265.487C116.389 269.908 114.88 271.756 114.88 271.756Z" fill="#0052A3"/>
<path d="M123.22 267.959C123.22 267.959 122.302 267.447 121.997 267.998C121.691 268.549 121.526 270.89 121.684 271.249C121.971 271.896 123.316 271.664 123.316 271.664L124.412 268.702L123.22 267.959Z" fill="#4C4051"/>
<path d="M75.7114 266.501C75.7114 266.501 74.6838 265.277 72.2834 265.203C70.7265 265.155 66.3147 266.136 64.2115 266.094C62.1089 266.051 60.0413 265.595 58.6994 267.008C56.1724 269.672 58.5248 273.015 61.9713 273.442C63.8459 273.673 64.4004 272.591 67.3786 272.898C70.2651 273.194 74.7714 272.245 76.09 270.186" fill="#594A5F"/>
<path d="M79.79 265.096C79.79 265.096 77.4629 265.753 75.9191 265.83C74.3759 265.907 70.9144 265.51 69.3472 266.488C67.65 267.548 68.2662 270.44 69.3376 271.127C71.067 272.234 72.4712 271.67 75.6459 270.681C78.8213 269.693 82.5423 270.087 82.5423 270.087" fill="#F7B59C"/>
<path d="M129.677 267.209L129.668 267.217C126.507 268.584 122.654 269.479 118.514 270.019C109.282 271.2 74.6561 271.697 74.6561 271.697C74.6561 271.697 73.156 269.833 73.7797 265.42C73.7797 265.42 82.0166 263.665 92.7826 259.412C104.097 254.948 114.139 252.122 125.057 251.624C127.193 251.836 129.664 252.78 131.409 256.442C133.736 261.285 131.936 266.356 129.677 267.209Z" fill="#0058C4"/>
<path d="M68.347 266.854C68.347 266.854 69.5191 266.206 69.9066 266.91C70.2934 267.614 70.4933 270.601 70.29 271.057C69.9216 271.881 68.208 271.579 68.208 271.579L66.8223 267.797L68.347 266.854Z" fill="#594A5F"/>
<path d="M104.681 184.272C104.681 184.272 107.888 183.945 104.252 192.258C102.881 195.392 102.392 195.184 102.369 195.335C102.346 195.488 101.141 194.294 101.141 193.767C101.141 193.239 101.193 189.126 101.246 188.915C101.299 188.704 104.681 184.272 104.681 184.272Z" fill="#2C1E56"/>
<path d="M85.7707 186.173C85.7707 186.173 83.2882 185.482 84.2899 190.438C84.967 193.792 86.732 195.184 86.7553 195.336C86.7785 195.487 87.9842 194.295 87.9842 193.767C87.9842 193.239 87.9315 189.126 87.8787 188.915C87.826 188.704 85.7707 186.173 85.7707 186.173Z" fill="#2C1E56"/>
<path d="M86.4509 192.376C86.4509 192.376 85.3979 191.358 85.1014 192.715C84.8043 194.073 85.9073 197.595 87.306 196.238" fill="#E5A18C"/>
<path d="M102.714 192.376C102.714 192.376 103.766 191.358 104.063 192.715C104.36 194.073 103.257 197.595 101.858 196.238" fill="#E5A18C"/>
<path d="M94.9059 203.181H94.8231C93.8468 203.241 85.1525 203.324 86.2534 187.509H102.816C102.816 187.509 104.824 202.232 94.9059 203.181Z" fill="#F7B59C"/>
<path d="M100.559 178.646C103.677 179.571 105.692 183.517 104.152 186.639C102.612 189.761 97.6519 191.579 92.1077 190.398C88.844 189.703 87.7938 188.389 85.8371 188.488C84.3315 188.564 82.9595 187.646 82.4358 186.231C81.7237 184.311 81.3041 181.714 83.2929 180.167C88.7009 181.728 95.8787 177.257 100.559 178.646Z" fill="#2C1E56"/>
<path d="M97.3216 243.484C97.3216 245.145 95.9763 246.491 94.3174 246.491C92.6578 246.491 91.3125 245.145 91.3125 243.484C91.3125 241.823 92.6578 240.478 94.3174 240.478C95.9763 240.478 97.3216 241.823 97.3216 243.484Z" fill="#D1DEFF"/>
<path d="M90.502 201.887C90.502 201.887 90.9723 202.199 91.7398 202.492C92.5004 202.794 93.5808 203.028 94.6488 202.973C95.2082 202.952 95.7189 202.868 96.2249 202.753C96.7199 202.634 97.1806 202.496 97.5627 202.343C98.3336 202.05 98.8224 201.772 98.8224 201.772C98.8224 201.772 98.4116 202.162 97.6606 202.559C97.2847 202.751 96.8328 202.962 96.32 203.112C95.8196 203.266 95.2267 203.366 94.6755 203.393C94.0943 203.415 93.5233 203.36 93.0009 203.229C92.4785 203.103 92.0191 202.901 91.6419 202.707C90.8874 202.307 90.502 201.887 90.502 201.887Z" fill="#EAA18B"/>
<path d="M91.091 194.191C91.1547 194.756 91.204 195.426 90.5878 195.499C90.2934 195.534 90.0229 195.314 89.9558 195.14C89.8319 194.821 89.8949 194.646 89.8805 194.334C89.8463 193.621 91.0095 193.469 91.091 194.191Z" fill="#452E17"/>
<path d="M90.8043 194.669C90.833 194.816 90.8152 194.957 90.6605 195.008C90.6112 195.024 90.5496 194.986 90.5277 194.942C90.4887 194.861 90.527 194.806 90.5168 194.726C90.4921 194.54 90.7673 194.482 90.8043 194.669Z" fill="white"/>
<path d="M98.6906 194.191C98.7542 194.756 98.8035 195.426 98.1874 195.499C97.893 195.534 97.6225 195.314 97.5554 195.14C97.4315 194.821 97.4945 194.646 97.4801 194.334C97.4459 193.621 98.6091 193.469 98.6906 194.191Z" fill="#452E17"/>
<path d="M98.402 194.669C98.4308 194.816 98.413 194.957 98.2582 195.008C98.2089 195.024 98.1473 194.986 98.1254 194.942C98.0863 194.861 98.1247 194.806 98.1144 194.726C98.0898 194.54 98.365 194.482 98.402 194.669Z" fill="white"/>
<path d="M99.6086 192.112C99.6558 192.249 99.6216 192.123 99.6503 192.308C99.6798 192.499 99.486 192.619 99.2327 192.624C98.6042 192.637 96.6879 192.724 96.6879 192.724C96.4818 192.758 96.5126 192.613 96.5907 192.541C96.909 192.243 97.2479 191.861 99.0465 191.847C99.2991 191.845 99.5442 191.924 99.6086 192.112Z" fill="#003051"/>
<path d="M88.993 192.112C88.9457 192.249 88.98 192.123 88.9512 192.308C88.9218 192.499 89.1155 192.619 89.3688 192.624C89.9973 192.637 91.9137 192.724 91.9137 192.724C92.1197 192.758 92.0889 192.613 92.0109 192.541C91.6925 192.243 91.3536 191.861 89.5551 191.847C89.3024 191.845 89.0573 191.924 88.993 192.112Z" fill="#003051"/>
<path d="M94.3158 195.242C94.3158 195.242 93.5887 196.841 93.8167 197.155C94.0447 197.469 94.9019 197.483 94.9019 197.483" stroke="#EAA18B" stroke-width="0.666667" stroke-miterlimit="10" stroke-linecap="round"/>
<path d="M92.3779 199.817C92.3779 199.817 94.6701 201.166 96.7213 199.71" stroke="#C9806F" stroke-width="0.666667" stroke-miterlimit="10" stroke-linecap="round"/>
<path d="M270.679 268.864V207.139C270.679 207.002 270.568 206.889 270.43 206.889H268.934C268.796 206.889 268.684 207.002 268.684 207.139V268.864C268.295 268.956 267.999 269.29 267.999 269.709C267.999 270.198 268.395 270.594 268.884 270.594H270.48C270.969 270.594 271.365 270.198 271.365 269.709C271.365 269.29 271.069 268.956 270.679 268.864Z" fill="white"/>
<path d="M393.044 268.823H392.993V206.889H390.999V268.823H390.948C390.597 268.823 390.312 269.108 390.312 269.459V269.958C390.312 270.31 390.597 270.594 390.948 270.594H393.044C393.395 270.594 393.679 270.31 393.679 269.958V269.459C393.679 269.108 393.395 268.823 393.044 268.823Z" fill="white"/>
<path d="M408.568 207.507H251.263C250.238 207.507 249.406 206.676 249.406 205.649C249.406 204.623 250.238 203.791 251.263 203.791H408.568C409.593 203.791 410.424 204.623 410.424 205.649C410.424 206.676 409.593 207.507 408.568 207.507Z" fill="#9999F1"/>
<path d="M335.127 201.732H289.721L280.733 173.45C280.279 172.025 281.342 170.572 282.835 170.572H323.61C324.571 170.572 325.421 171.194 325.713 172.111L335.127 201.732Z" fill="#5146AF"/>
<path d="M334.211 201.732H291.212L282.173 173.004C282.005 172.469 282.399 171.924 282.954 171.924H324.151C324.557 171.924 324.917 172.189 325.039 172.58L334.211 201.732Z" fill="white"/>
<path d="M307.117 176.395H287.31C287.015 176.395 286.776 176.156 286.776 175.86C286.776 175.565 287.015 175.325 287.31 175.325H307.117C307.412 175.325 307.651 175.565 307.651 175.86C307.651 176.156 307.412 176.395 307.117 176.395Z" fill="#C2E0F2"/>
<path d="M310.186 178.867H288.099C287.804 178.867 287.564 178.628 287.564 178.332C287.564 178.036 287.804 177.797 288.099 177.797H310.186C310.481 177.797 310.72 178.036 310.72 178.332C310.72 178.628 310.481 178.867 310.186 178.867Z" fill="#C2E0F2"/>
<path d="M308.139 181.339H288.903C288.608 181.339 288.368 181.099 288.368 180.804C288.368 180.508 288.608 180.269 288.903 180.269H308.139C308.434 180.269 308.674 180.508 308.674 180.804C308.674 181.099 308.434 181.339 308.139 181.339Z" fill="#C2E0F2"/>
<path d="M304.931 183.81H289.684C289.389 183.81 289.15 183.571 289.15 183.276C289.15 182.981 289.389 182.741 289.684 182.741H304.931C305.226 182.741 305.465 182.981 305.465 183.276C305.465 183.571 305.226 183.81 304.931 183.81Z" fill="#C2E0F2"/>
<path d="M312.579 186.282H290.493C290.198 186.282 289.958 186.043 289.958 185.748C289.958 185.452 290.198 185.213 290.493 185.213H312.579C312.874 185.213 313.113 185.452 313.113 185.748C313.113 186.043 312.874 186.282 312.579 186.282Z" fill="#C2E0F2"/>
<path d="M310.519 188.754H291.283C290.987 188.754 290.748 188.515 290.748 188.22C290.748 187.924 290.987 187.685 291.283 187.685H310.519C310.814 187.685 311.053 187.924 311.053 188.22C311.053 188.515 310.814 188.754 310.519 188.754Z" fill="#C2E0F2"/>
<path d="M314.949 193.698H292.862C292.567 193.698 292.328 193.458 292.328 193.164C292.328 192.868 292.567 192.629 292.862 192.629H314.949C315.244 192.629 315.483 192.868 315.483 193.164C315.483 193.458 315.244 193.698 314.949 193.698Z" fill="#C2E0F2"/>
<path d="M315.749 196.17H293.663C293.368 196.17 293.129 195.931 293.129 195.636C293.129 195.34 293.368 195.1 293.663 195.1H315.749C316.045 195.1 316.284 195.34 316.284 195.636C316.284 195.931 316.045 196.17 315.749 196.17Z" fill="#C2E0F2"/>
<path d="M327.494 196.17H320.36C319.696 196.17 319.108 195.739 318.907 195.105L312.96 176.264C312.649 175.281 313.383 174.279 314.412 174.279H321.547C322.212 174.279 322.8 174.711 323 175.346L328.948 194.185C329.258 195.168 328.525 196.17 327.494 196.17Z" fill="#C2E0F2"/>
<path d="M338.932 203.791H289.555C288.748 203.791 288.094 203.136 288.094 202.329C288.094 201.521 288.748 200.867 289.555 200.867H338.932C339.738 200.867 340.392 201.521 340.392 202.329C340.392 203.136 339.738 203.791 338.932 203.791Z" fill="#5146AF"/>
<path d="M346.383 159.727C346.292 159.727 346.2 159.748 346.114 159.794L342.13 161.9C341.99 161.974 341.888 162.099 341.843 162.251C341.799 162.403 341.818 162.562 341.897 162.7L343.328 165.22C343.483 165.493 343.832 165.592 344.109 165.443L348.022 163.316C348.158 163.242 348.258 163.119 348.302 162.97C348.345 162.821 348.328 162.664 348.254 162.528L346.895 160.029C346.79 159.837 346.589 159.727 346.383 159.727ZM343.837 166.009C343.461 166.009 343.093 165.813 342.896 165.466L341.465 162.946C341.32 162.691 341.285 162.394 341.367 162.112C341.449 161.829 341.638 161.598 341.898 161.461L345.883 159.354C346.399 159.08 347.05 159.276 347.331 159.791L348.69 162.29C348.829 162.543 348.859 162.834 348.778 163.111C348.697 163.387 348.512 163.615 348.259 163.753L344.346 165.879C344.185 165.967 344.01 166.009 343.837 166.009Z" fill="#1A1A47"/>
<path d="M336.335 187.98C336.016 188.39 335.759 188.653 335.759 188.653C335.759 188.653 333.366 186.839 332.699 186.668C332.038 186.503 330.597 186.91 329.803 187.073C328.502 187.34 329.041 186.274 329.041 186.274C329.041 186.274 328.164 186.582 327.396 186.895C326.518 187.25 325.605 187.985 325.34 188.049C324.838 188.168 324.347 187.919 324.816 187.215C325.48 186.22 328.618 183.336 329.398 182.96C330.396 182.487 331.753 181.797 332.841 182.202C333.935 182.607 337.475 185.265 337.475 185.265C337.578 186.177 336.871 187.29 336.335 187.98Z" fill="#F7B59C"/>
<path d="M335.395 188.655C335.395 188.655 347.138 198.935 355.926 199.98C364.713 201.026 379.532 184.341 379.532 184.341C379.532 184.341 378.6 175.452 373.12 176.497C367.64 177.542 360.296 190.758 357.113 191.376C353.931 191.994 337.383 184.976 337.383 184.976C337.383 184.976 336.913 185.307 336.36 186.237C335.763 187.24 335.395 188.655 335.395 188.655Z" fill="#9CA2F2"/>
<path d="M361.51 148.495C358.709 145.286 354.569 144.941 351.373 145.295C347.178 145.759 343.531 148.592 342.319 152.638C341.796 154.388 341.695 156.434 342.51 158.686C345.118 165.895 347.888 169.866 350.019 171.818C350.956 172.676 352.93 171.508 354.915 170.81C355.176 170.718 355.465 170.827 355.596 171.071L356.729 173.165L364.912 171.494C364.912 171.494 363.688 168.898 363.185 166.742C364.256 165.388 366.635 154.365 361.51 148.495Z" fill="#F7B59C"/>
<path d="M346.62 158.78C347.536 158.707 348.405 159.19 348.761 160.037C349.367 161.48 350.302 163.498 351.038 164.155C351.189 164.29 351.52 164.336 351.848 164.162C352.171 163.992 352.236 163.715 352.217 163.533C352.154 162.911 351.692 161.559 351.366 160.66C350.947 159.509 351.444 158.29 352.818 157.982C353.066 157.926 353.697 157.959 354.016 158.056C356.194 158.717 354.694 162.136 354.649 163.922C354.618 165.18 356.124 168.097 356.791 168.36C358.98 169.219 362.297 168.443 364.056 166.267C365.816 164.093 366.198 156.822 365.236 152.472C364.274 148.122 360.797 145.668 359.648 145.388C359.08 145.25 358.611 145.248 358.282 145.282C357.932 145.318 357.587 145.199 357.321 144.968C356.164 143.959 352.703 141.655 347.23 144.02C340.399 146.972 339.25 153.28 339.375 156.138C339.456 157.996 340.913 157.859 341.924 157.535C342.48 157.357 343.086 157.503 343.529 157.883C344.102 158.373 345.089 158.901 346.62 158.78Z" fill="#0B0B3A"/>
<path d="M355.314 174.28C355.314 174.28 354.587 173.468 354.863 172.972C355.206 172.357 358.916 169.419 363.247 169.574C363.92 169.598 364.743 169.597 365.55 171.356C366.358 173.115 366.547 174.28 366.547 174.28H355.314Z" fill="#9CA2F2"/>
<path d="M374.613 226.714C374.35 226.777 374.066 226.839 373.769 226.896C370.093 227.581 364.114 227.661 364.114 227.661C352.327 227.45 347.094 221.089 345.179 217.809C344.506 216.657 344.238 215.887 344.238 215.887C344.911 215.527 347.265 213.388 348.155 210.468C349.043 207.542 348.109 200.565 346.587 197.907C345.749 196.447 343.27 193.486 341.714 190.366C340.437 187.799 339.776 185.123 341.172 183.081C344.638 177.987 350.104 175.278 350.104 175.278C350.104 175.278 360.135 171.256 368.679 172.169C374.1 172.739 378.927 175.295 380.216 182.123C383.538 199.71 374.613 226.714 374.613 226.714Z" fill="#B0B2FF"/>
<path d="M349.946 261.542C349.946 261.542 349.104 262.532 347.829 262.737C346.413 262.965 345.364 262.279 345.364 262.279L344.709 260.387L349.232 259.401L349.946 261.542Z" fill="#F7B59C"/>
<path d="M326.247 263.885C326.247 263.885 325.259 264.73 323.968 264.729C322.533 264.729 321.606 263.885 321.606 263.885L321.26 261.913H325.9L326.247 263.885Z" fill="#F7B59C"/>
<path d="M349.945 259.4C349.649 259.537 348.746 259.907 348.421 260.022C346.712 260.598 344.28 261.092 344.28 261.092C340.391 252.68 334.046 231.511 334.046 231.511C333.163 227.769 335.825 226.257 338.162 226.115C338.971 226.07 339.741 226.183 340.316 226.429C342.55 227.376 345.828 233.702 345.828 233.702C345.828 233.702 346.825 235.886 347.869 240.405C348.911 244.917 349.945 259.4 349.945 259.4Z" fill="#1A1A47"/>
<path d="M358.728 227.079C358.699 229.207 358.135 232.601 354.948 233.559C350.195 234.986 346.684 234.176 341.173 233.222C336.556 232.43 329.265 229.726 327.031 228.876C326.741 228.767 326.795 228.913 326.851 229.215C327.906 234.372 326.199 262.235 326.199 262.235C326.199 262.235 325.441 262.469 324.626 262.6C324.318 262.645 324.005 262.68 323.72 262.68C322.523 262.68 320.323 262.455 320.323 262.455C320.323 262.455 316.094 242.829 315.427 231.848C314.765 220.867 315.431 219.171 320.628 217.362C326.42 215.345 344.239 215.887 344.239 215.887L344.245 215.893C344.307 216.086 345.561 219.515 349.26 222.618C351.46 224.472 354.533 226.206 358.728 227.079Z" fill="#3D3D72"/>
<path d="M364.117 238.242V266.439C364.117 267.443 363.301 268.259 362.298 268.259C361.894 268.259 361.523 268.127 361.221 267.905C360.771 267.574 360.48 267.038 360.48 266.439V238.242H364.117Z" fill="#94C1F7"/>
<path d="M364.118 239.469V266.361C364.118 267.237 363.419 268.127 362.552 268.242C362.123 268.299 361.723 268.209 361.389 268.015C361.332 267.907 361.263 267.778 361.205 267.672V240.216C361.205 239.803 361.539 239.469 361.951 239.469H364.118Z" fill="#B5D0FF"/>
<path d="M366.418 237.296C366.418 237.433 366.401 237.558 366.367 237.683C366.298 237.963 366.15 238.208 365.956 238.402C365.677 238.687 365.283 238.864 364.851 238.864H359.436C358.575 238.864 357.868 238.162 357.868 237.296C357.868 236.862 358.045 236.469 358.33 236.189C358.615 235.904 359.003 235.727 359.436 235.727H364.851C365.717 235.727 366.418 236.429 366.418 237.296Z" fill="#94C1F7"/>
<path d="M366.369 237.683C366.301 237.963 366.153 238.208 365.959 238.402C365.68 238.687 365.286 238.864 364.853 238.864H359.672C359.74 238.584 359.883 238.334 360.076 238.14C360.361 237.86 360.755 237.683 361.188 237.683H366.369Z" fill="#B5D0FF"/>
<path d="M385.713 188.1C385.713 188.117 385.704 188.126 385.704 188.143C385.687 188.308 385.653 188.48 385.61 188.679C385.169 190.519 383.615 194.122 383.391 199.523C383.243 202.841 383.382 211.646 383.226 216.969V216.977C383.2 217.772 383.175 218.48 383.14 219.094C382.855 223.803 381.249 230.785 376.337 234.318C371.346 238.069 361.306 237.42 355.21 237.283C349.115 237.135 334.015 234.388 332.806 232.142C332.521 231.64 332.461 231.199 332.521 230.845C332.521 230.836 332.521 230.836 332.53 230.828C332.59 230.474 332.763 230.197 332.996 229.964C333.566 229.393 334.437 229.212 335.223 229.411C337.684 230.024 345.006 231.441 348.304 227.26C352.292 222.196 351.791 216.346 353.501 204.016C355.116 192.351 358.75 188.774 364.768 186.449C371.2 183.97 381.535 185.032 384.116 185.81C385.117 186.113 385.808 187.054 385.713 188.1Z" fill="#CFE3FF"/>
<path d="M383.389 269.919C383.389 270.289 383.087 270.586 382.722 270.586H341.878C341.507 270.586 341.211 270.289 341.211 269.919C341.211 269.593 341.444 269.314 341.77 269.263L362.3 265.932L367.464 266.77L382.825 269.263C383.149 269.314 383.389 269.593 383.389 269.919Z" fill="#B5D0FF"/>
<path d="M321.604 263.885C321.604 263.885 322.835 264.373 323.949 264.373C325.285 264.373 326.259 263.885 326.259 263.885C326.259 263.885 328.638 266.918 327.374 270.297C327.307 270.473 327.132 270.588 326.944 270.588H310.988C310.794 270.588 310.629 270.436 310.626 270.242C310.621 269.848 310.779 269.222 311.748 268.924C313.22 268.473 314.74 268.223 315.88 267.819C317.02 267.415 318.657 265.74 319.573 265.431C320.737 265.038 321.604 263.885 321.604 263.885Z" fill="#1A1A47"/>
<path d="M345.362 262.279C345.362 262.279 346.655 262.564 347.755 262.388C349.073 262.176 349.958 261.54 349.958 261.54C349.958 261.54 352.788 264.156 352.076 267.693C352.039 267.877 351.883 268.018 351.698 268.049C351.698 268.049 343.279 269.937 340.433 270.345C338.687 270.594 335.945 270.594 335.945 270.594C335.742 270.599 335.566 270.49 335.532 270.299C335.464 269.911 335.521 269.268 336.43 268.82C337.813 268.14 339.274 267.653 340.335 267.072C341.397 266.493 342.747 264.577 343.603 264.127C344.689 263.555 345.362 262.279 345.362 262.279Z" fill="#1A1A47"/>
<path d="M313.331 202.248C313.331 202.248 311.695 201.569 310.84 201.267C310.498 201.147 310.178 201.061 309.916 200.999C309.551 200.913 309.17 200.879 308.793 200.879H299.497C299.23 200.879 299.013 200.656 299.013 200.388C299.013 200.023 299.195 199.687 299.497 199.493L300.495 198.848L303.476 196.92C304.952 195.968 306.025 195.909 307.78 196.063C308.111 196.092 309.368 196.625 309.608 196.705C311.35 197.28 311.729 197.542 312.886 197.953C313.342 198.118 313.656 198.203 313.86 198.249C314.18 198.318 314.26 198.289 314.26 198.289C314.579 200.662 313.331 202.248 313.331 202.248Z" fill="#F7B59C"/>
<path d="M349.732 180.023C348.514 179.279 344.83 177.231 340.08 184.645C335.331 192.058 333.875 195.22 332.501 197.524C330.839 198.522 314.099 198.095 314.099 198.095C314.099 198.095 313.066 200.323 312.888 202.249C312.888 202.249 321.78 206.669 333.579 207.508C342.717 207.508 352.131 189.637 352.559 187.403C352.986 185.169 352.643 181.802 349.732 180.023Z" fill="#B0B2FF"/>
<path d="M342.032 164.306C341.941 164.306 341.854 164.257 341.81 164.171C341.748 164.048 341.796 163.899 341.918 163.837L351.174 159.088C352.222 158.551 354.365 157.453 355.957 159.789C356.035 159.903 356.005 160.057 355.891 160.135C355.78 160.211 355.624 160.183 355.547 160.069C354.306 158.246 352.826 158.8 351.418 159.522L342.145 164.279C342.109 164.297 342.07 164.306 342.032 164.306Z" fill="#1A1A47"/>
<path d="M351.151 159.573L352.373 163.48C352.373 163.48 353.324 164.4 354.24 163.344C355.157 162.288 355.955 158.622 354.275 158.01C352.594 157.399 351.576 158.265 351.151 159.573Z" fill="#F7B59C"/>
<g opacity="0.5">
<g opacity="0.5">
<path opacity="0.5" d="M385.34 186.717C385.331 186.7 385.331 186.691 385.331 186.691C385.046 186.277 384.623 185.966 384.114 185.81C381.533 185.033 371.198 183.97 364.766 186.449C358.749 188.774 355.114 192.351 353.499 204.016C351.79 216.346 352.29 222.196 348.302 227.259C345.004 231.441 337.682 230.024 335.222 229.41C334.436 229.212 333.564 229.393 332.994 229.963C332.761 230.197 332.579 230.482 332.519 230.845C332.459 231.2 332.519 231.64 332.804 232.141C334.013 234.388 349.113 237.135 355.208 237.282C361.304 237.42 371.345 238.069 376.335 234.319C381.248 230.784 382.853 223.803 383.138 219.094C383.173 218.48 383.199 217.772 383.225 216.977C383.121 217.409 379.747 226.923 367.866 224.731C356.421 222.618 355.381 210.054 355.791 205.828C355.846 205.369 355.899 204.923 355.951 204.508C356.055 203.724 356.683 200.413 357.462 197.517C357.979 195.597 359.335 192.664 361.965 190.518C362.295 190.249 362.683 190.063 363.056 189.862C363.169 189.793 363.299 189.724 363.428 189.656C363.601 189.56 363.782 189.474 363.989 189.379C364.187 189.292 364.386 189.206 364.585 189.12C364.732 189.059 364.887 188.998 365.034 188.947C374.332 185.265 384.33 187.66 384.986 187.763C385.608 187.866 385.383 186.89 385.34 186.717Z" fill="#94C1F7"/>
</g>
</g>
<path d="M131.968 277.186L132.987 274.472C132.987 274.472 149.169 275.236 156.843 280.016L142.242 280.29L131.968 277.186Z" fill="#E1EFFF"/>
<path d="M181.717 277.186L180.697 274.472C180.697 274.472 164.515 275.236 156.842 280.016L171.442 280.29L181.717 277.186Z" fill="#E1EFFF"/>
<path d="M156.844 280.015C148.077 276.61 131.132 276.371 131.132 276.371V282.148H153.079H160.608H182.555V276.371C182.555 276.371 165.61 276.61 156.844 280.015Z" fill="#CCE1FF"/>
<path d="M184.54 282.5H129.144V280.541H184.54V282.5Z" fill="#7878FF"/>
<path d="M305.442 52.3918C305.442 52.0691 305.706 51.8053 306.028 51.8053H328.631C328.954 51.8053 329.217 52.0691 329.217 52.3918C329.217 52.7145 328.954 52.9783 328.631 52.9783H306.028C305.706 52.9783 305.442 52.7145 305.442 52.3918ZM328.631 56.0364H311.958C311.636 56.0364 311.372 55.7726 311.372 55.4498C311.372 55.1271 311.636 54.8633 311.958 54.8633H328.631C328.954 54.8633 329.217 55.1271 329.217 55.4498C329.217 55.7726 328.954 56.0364 328.631 56.0364ZM305.442 58.5079C305.442 58.1851 305.706 57.9213 306.028 57.9213H328.631C328.954 57.9213 329.217 58.1851 329.217 58.5079C329.217 58.8306 328.954 59.0944 328.631 59.0944H306.028C305.706 59.0944 305.442 58.8306 305.442 58.5079ZM328.631 62.1524H316.69C316.367 62.1524 316.104 61.8886 316.104 61.5659C316.104 61.2432 316.367 60.9794 316.69 60.9794H328.631C328.954 60.9794 329.217 61.2432 329.217 61.5659C329.217 61.8886 328.954 62.1524 328.631 62.1524ZM305.442 64.6239C305.442 64.3012 305.706 64.0374 306.028 64.0374H328.631C328.954 64.0374 329.217 64.3012 329.217 64.6239C329.217 64.9466 328.954 65.2104 328.631 65.2104H306.028C305.706 65.2104 305.442 64.9466 305.442 64.6239ZM297.071 71.0051L301.951 67.8032C302.965 68.4528 304.168 68.8337 305.462 68.8337H328.967C332.574 68.8337 335.498 65.9073 335.498 62.2977V54.8983C335.498 51.288 332.574 48.3615 328.967 48.3615H305.462C301.854 48.3615 298.93 51.288 298.93 54.8983V62.2977C298.93 63.6557 299.344 64.9165 300.053 65.9621L297.071 71.0051Z" fill="#B5D0FF"/>
<path d="M94.3168 130.313H90.209" stroke="#9ACEE2" stroke-width="1.33333" stroke-miterlimit="10" stroke-linecap="round"/>
<path d="M86.8266 130.313H60.3953C58.8734 130.313 57.6396 131.547 57.6396 133.071V237.719C57.6396 238.057 57.7006 238.381 57.8122 238.681" stroke="#9ACEE2" stroke-width="1.33333" stroke-miterlimit="10" stroke-linecap="round" stroke-dasharray="15.81 6.59"/>
<path d="M58.8398 239.996C59.2828 240.299 59.8182 240.478 60.396 240.478H62.8519" stroke="#9ACEE2" stroke-width="1.33333" stroke-miterlimit="10" stroke-linecap="round"/>
<path d="M332.799 95.2686H336.907" stroke="#9ACEE2" stroke-width="1.33333" stroke-miterlimit="10" stroke-linecap="round"/>
<path d="M340.282 95.2686H397.72C400.394 95.2686 402.562 97.438 402.562 100.114V184.963C402.562 187.64 400.394 189.81 397.72 189.81H396.108" stroke="#9ACEE2" stroke-width="1.33333" stroke-miterlimit="10" stroke-linecap="round" stroke-dasharray="15.78 6.57"/>
<path d="M394.42 189.81H390.312" stroke="#9ACEE2" stroke-width="1.33333" stroke-miterlimit="10" stroke-linecap="round"/>
<path d="M154.635 30.5736H193.745C198.116 30.5736 201.659 34.1194 201.659 38.4944V75.8724" stroke="#9ACEE2" stroke-width="1.33333" stroke-miterlimit="10" stroke-linecap="round" stroke-dasharray="16 6.67"/>
<path d="M274.21 196.565C274.21 196.565 269.669 193.905 268.685 188.682C268.685 188.682 272.962 189.569 275.106 196.565" fill="white"/>
<path d="M276.002 196.565C276.002 196.565 280.543 193.905 281.527 188.682C281.527 188.682 277.25 189.569 275.105 196.565" fill="white"/>
<path d="M274.629 196.138C274.629 196.138 271.355 192.016 272.321 186.789C272.321 186.789 275.99 189.163 275.465 196.462" fill="white"/>
<path d="M275.687 196.154C275.687 196.154 278.863 191.956 277.773 186.754C277.773 186.754 274.161 189.213 274.859 196.498" fill="white"/>
<path d="M279.946 203.788H270.051V195.506H279.946V203.788Z" fill="#CFE3FF"/>
<g opacity="0.5">
<path opacity="0.5" d="M272.995 203.788H270.052V195.506H272.995V203.788Z" fill="#94C1F7"/>
</g>
<g opacity="0.5">
<g opacity="0.5">
<path opacity="0.5" d="M371.121 145.899L366.646 148.287L368.884 142.464" fill="#389FE5"/>
</g>
<g opacity="0.5">
<path opacity="0.5" d="M385.008 138.453C385.008 143.682 380.772 147.921 375.548 147.921C370.324 147.921 366.089 143.682 366.089 138.453C366.089 133.225 370.324 128.987 375.548 128.987C380.772 128.987 385.008 133.225 385.008 138.453Z" fill="#389FE5"/>
</g>
</g>
<path d="M371.567 137.552L374.437 141.126L379.531 135.78" stroke="white" stroke-width="1.84" stroke-miterlimit="10" stroke-linecap="round" stroke-linejoin="round"/>
<g opacity="0.5">
<g opacity="0.5">
<path opacity="0.5" d="M77.6133 177.013L82.0888 179.402L79.8507 173.579" fill="#389FE5"/>
</g>
<g opacity="0.5">
<path opacity="0.5" d="M63.7285 169.568C63.7285 174.797 67.9637 179.035 73.1882 179.035C78.412 179.035 82.6472 174.797 82.6472 169.568C82.6472 164.34 78.412 160.101 73.1882 160.101C67.9637 160.101 63.7285 164.34 63.7285 169.568Z" fill="#389FE5"/>
</g>
</g>
<path d="M69.2021 168.666L72.0722 172.241L77.1659 166.895" stroke="white" stroke-width="1.84" stroke-miterlimit="10" stroke-linecap="round" stroke-linejoin="round"/>
<path d="M379.047 88.4913H342.304C341.635 88.4913 341.093 87.9487 341.093 87.2785V50.0307C341.093 49.3613 341.635 48.8186 342.304 48.8186H379.047C379.715 48.8186 380.258 49.3613 380.258 50.0307V87.2785C380.258 87.9487 379.715 88.4913 379.047 88.4913Z" fill="white"/>
<g opacity="0.5">
<g opacity="0.5">
<path opacity="0.5" d="M370.872 66.5807C370.872 68.2587 370.509 69.8498 369.852 71.2825C369.536 71.9787 369.148 72.6433 368.697 73.2606C368.389 73.6807 368.049 74.0843 367.685 74.4563C367.685 74.4563 367.677 74.4639 367.67 74.4639C367.361 74.7886 367.037 75.0812 366.697 75.3587C366.19 75.7781 365.653 76.1419 365.083 76.4585C364.633 76.712 364.174 76.9333 363.691 77.1156C362.616 77.5431 361.461 77.8042 360.251 77.8754C360.021 77.8912 359.792 77.8994 359.563 77.8994C356.858 77.8994 354.383 76.9491 352.438 75.3745C349.883 73.3004 348.254 70.1266 348.254 66.5807C348.254 64.9581 348.594 63.4309 349.203 62.0372C350.61 58.8161 353.474 56.3781 356.961 55.5628C356.993 55.5552 357.032 55.547 357.064 55.5395C357.42 55.4524 357.783 55.3887 358.163 55.3414C358.622 55.2859 359.088 55.2544 359.563 55.2544C363.865 55.2544 367.606 57.6608 369.52 61.2067C369.647 61.4438 369.765 61.6891 369.876 61.9426C370.516 63.3514 370.872 64.9266 370.872 66.5807Z" fill="#9999F1"/>
</g>
<g opacity="0.5">
<g opacity="0.5">
<g opacity="0.5">
<g opacity="0.5">
<path opacity="0.5" d="M362.407 76.6052C362.488 77.1725 361.797 77.5089 361.242 77.6439C360.914 77.7248 360.582 77.8063 360.25 77.8755C360.022 77.8913 359.791 77.8988 359.559 77.8988C356.858 77.8988 354.38 76.9526 352.436 75.3732C352.416 75.2766 352.409 75.1758 352.405 75.0758C352.397 74.6393 352.548 74.2221 352.648 73.7972C352.733 73.4423 352.783 73.0791 352.798 72.716C352.806 72.5844 352.802 72.4378 352.717 72.3337C352.64 72.2487 352.524 72.2137 352.416 72.1678C351.814 71.8972 351.319 71.0948 351.567 70.4836C352.117 69.1297 354.05 69.573 352.776 66.2005C352.503 65.4762 353.079 65.2905 353.034 65.0898C352.925 64.6417 351.251 64.7643 350.796 64.691C350.495 64.6444 350.166 64.6136 349.943 64.4087C349.804 64.2854 349.719 64.1113 349.649 63.9414C349.399 63.335 349.248 62.6902 349.198 62.0379C350.622 58.786 353.528 56.3337 357.059 55.5382L357.094 55.9047C356.978 57.1909 356.896 58.477 356.85 59.7631C356.842 59.9906 356.835 60.2222 356.75 60.4346C356.557 60.8943 356.005 61.1342 355.511 61.0725C355.33 61.0492 355.129 60.9951 354.971 61.0876C354.712 61.2383 354.774 61.6206 354.736 61.918C354.662 62.4312 354.207 62.7868 353.894 63.2C353.582 63.6132 353.458 64.3203 353.913 64.5711C354.03 64.6328 354.176 64.6636 354.241 64.776C354.33 64.9301 354.211 65.1234 354.061 65.2241C353.913 65.3207 353.732 65.3741 353.62 65.5098C353.396 65.7763 353.559 66.2012 353.813 66.4362C354.064 66.6719 354.4 66.8226 354.62 67.0892C354.898 67.429 354.96 67.9155 355.264 68.2287C356.005 68.9933 357.53 68.1937 358.282 68.9508C358.672 69.3366 358.672 69.9855 359.015 70.4103C359.231 70.6844 359.563 70.8351 359.849 71.0359C360.497 71.4957 360.921 72.2603 360.964 73.0558C361.014 73.9055 360.698 74.9018 361.28 75.5198C361.651 75.9097 362.33 76.0721 362.407 76.6052Z" fill="#81A8CC"/>
</g>
</g>
</g>
</g>
<g opacity="0.5">
<g opacity="0.5">
<g opacity="0.5">
<g opacity="0.5">
<path opacity="0.5" d="M369.518 61.2074C369.325 61.2149 369.128 61.2231 368.95 61.254C368.877 61.2656 368.804 61.2882 368.754 61.3424C368.676 61.4273 368.692 61.5548 368.7 61.6706C368.715 62.0413 368.557 62.4161 368.275 62.6634C368.221 62.7093 368.155 62.7559 368.082 62.7676C367.87 62.8059 367.727 62.5593 367.65 62.3544C367.442 61.8138 367.237 61.269 367.033 60.7243C366.967 60.5585 366.898 60.3844 366.759 60.2769C366.508 60.0836 366.126 60.1686 365.86 59.9987C365.535 59.7938 365.373 59.2374 365.003 59.3306C364.702 59.4039 364.698 59.8322 364.794 60.1261C364.895 60.4194 365.007 60.7976 364.771 60.9991C364.521 61.2115 364.131 60.9991 363.938 60.7325C363.741 60.466 363.594 60.1261 363.285 60.0103C362.846 59.8438 362.394 60.2454 362.151 60.651C361.908 61.0532 361.692 61.5397 361.248 61.698C361.032 61.7754 360.785 61.7596 360.585 61.8713C360.168 62.1036 360.183 62.7093 360.33 63.1657C360.472 63.6213 360.685 64.1229 360.472 64.5518C360.434 64.6368 360.372 64.7142 360.287 64.7491C360.098 64.8183 359.917 64.6443 359.793 64.4901C359.114 63.6172 358.52 62.6785 358.019 61.6904C357.922 61.4972 357.825 61.2882 357.852 61.0724C357.868 60.9367 357.937 60.8093 357.98 60.6784C358.13 60.2262 357.995 59.7321 358.053 59.2607C358.153 58.4611 358.805 57.7081 358.551 56.9434C358.458 56.6618 358.25 56.4302 358.118 56.1636C357.988 55.9012 357.949 55.5456 358.161 55.3448C358.62 55.2866 359.087 55.2558 359.562 55.2558C363.865 55.2558 367.608 57.6622 369.518 61.2074Z" fill="#81A8CC"/>
</g>
</g>
</g>
</g>
<g opacity="0.5">
<g opacity="0.5">
<g opacity="0.5">
<g opacity="0.5">
<path opacity="0.5" d="M370.876 66.5795C370.876 68.2555 370.513 69.8507 369.857 71.2793C369.537 71.9823 369.151 72.6469 368.699 73.2609C368.695 73.2609 368.695 73.2568 368.695 73.2568C368.664 73.1875 368.664 73.1101 368.664 73.0327C368.673 72.7586 368.692 72.4729 368.815 72.2296C368.896 72.0789 369.012 71.948 369.097 71.7973C369.305 71.415 369.266 70.9476 369.224 70.5112C369.201 70.2789 369.17 70.0247 369.004 69.8548C368.9 69.7499 368.757 69.6883 368.653 69.5841C368.41 69.3251 368.483 68.9202 368.541 68.5687C368.599 68.2206 368.56 67.7731 368.236 67.6416C367.839 68.1939 367.395 68.7077 366.909 69.1744C366.971 68.7961 366.523 68.4679 366.157 68.5762C365.79 68.6845 365.577 69.1052 365.624 69.4875C365.296 69.495 365.223 69.0277 365.269 68.7036C365.346 68.1514 365.423 67.5991 365.497 67.0468C365.138 66.8927 364.875 67.4641 364.493 67.5491C364.173 67.6183 363.872 67.2976 363.837 66.9694C363.803 66.6412 363.953 66.3246 364.096 66.0314C364.266 65.6833 364.435 65.34 364.605 64.9919C364.825 64.5404 365.072 64.0614 365.52 63.8374C366.06 63.5674 366.704 63.7524 367.291 63.8991C367.881 64.0423 368.584 64.1115 369.008 63.6791C369.259 63.4283 369.352 63.0611 369.421 62.7096C369.482 62.4088 369.571 62.0607 369.853 61.9373L369.88 61.9415C370.52 63.355 370.876 64.9227 370.876 66.5795Z" fill="#81A8CC"/>
</g>
</g>
</g>
</g>
<g opacity="0.5">
<g opacity="0.5">
<g opacity="0.300003">
<g opacity="0.300003">
<path opacity="0.300003" d="M368.187 73.91C368.029 74.0998 367.862 74.282 367.688 74.4561C367.688 74.4561 367.681 74.4643 367.673 74.4643C367.364 74.7884 367.04 75.0817 366.7 75.3585C366.194 75.7778 365.656 76.1423 365.087 76.4589C364.635 76.7117 364.177 76.9337 363.695 77.1153C362.619 77.5429 361.464 77.8039 360.254 77.8752C360.025 77.8909 359.796 77.8992 359.566 77.8992C356.861 77.8992 354.386 76.9495 352.441 75.3742C349.886 73.3008 348.257 70.1263 348.257 66.5805C348.257 64.9579 348.597 63.4306 349.206 62.0376C350.614 58.8158 353.477 56.3786 356.964 55.5632C356.996 55.555 357.035 55.5475 357.067 55.5392C357.423 55.4522 357.787 55.3892 358.166 55.3412C358.182 55.3412 358.206 55.3337 358.222 55.3337C357.106 56.3546 356.206 57.6051 355.589 59.0063C355.003 60.3438 354.671 61.8156 354.671 63.3669C354.671 66.7785 356.245 69.8255 358.696 71.8126C360.563 73.3324 362.943 74.2423 365.537 74.2423C365.759 74.2423 365.98 74.2348 366.202 74.219C366.882 74.1793 367.546 74.0765 368.187 73.91Z" fill="#9999F1"/>
</g>
</g>
</g>
</g>
<g opacity="0.5">
<path opacity="0.5" d="M373.437 66.53C373.437 62.3531 371.588 58.4331 368.364 55.7732C365.881 53.7258 362.738 52.598 359.516 52.598C359.114 52.598 358.788 52.9255 358.788 53.3263C358.788 53.7285 359.114 54.0561 359.516 54.0561C362.403 54.0561 365.216 55.066 367.437 56.8982C370.324 59.2786 371.98 62.7896 371.98 66.53C371.98 73.408 366.389 79.004 359.516 79.004C355.765 79.004 352.25 77.3369 349.87 74.4296C349.613 74.1192 349.154 74.0733 348.845 74.3282C348.694 74.4516 348.601 74.6256 348.582 74.8202C348.563 75.0141 348.62 75.2032 348.743 75.3533C351.218 78.377 354.795 80.1983 358.659 80.434V82.8664H354.452C353.943 82.8664 353.53 83.2803 353.53 83.7887C353.53 84.2978 353.943 84.7117 354.452 84.7117H364.672C365.18 84.7117 365.594 84.2978 365.594 83.7887C365.594 83.2803 365.18 82.8664 364.672 82.8664H360.465V80.4141C367.698 79.9222 373.437 73.8918 373.437 66.53Z" fill="#7878FF"/>
</g>
</g>
<path d="M162.229 242.067C162.5 244.157 161.026 246.071 158.938 246.342C156.85 246.613 154.938 245.138 154.667 243.049C154.396 240.959 155.87 239.045 157.957 238.774C160.045 238.503 161.957 239.977 162.229 242.067Z" fill="#9999F1"/>
<path d="M156.807 242.951L158.483 244.202L160.123 241.258" stroke="white" stroke-width="1.408" stroke-miterlimit="10" stroke-linecap="round" stroke-linejoin="round"/>
<path d="M172.493 41.3238C173.149 43.3259 172.058 45.4816 170.057 46.138C168.056 46.7937 165.903 45.7022 165.247 43.7001C164.591 41.6972 165.682 39.5423 167.683 38.8859C169.684 38.2301 171.837 39.321 172.493 41.3238Z" fill="#9999F1"/>
<path d="M167.331 43.2045L169.211 44.1206L170.274 40.9221" stroke="white" stroke-width="1.408" stroke-miterlimit="10" stroke-linecap="round" stroke-linejoin="round"/>
<path d="M377.55 112.04C377.313 115.253 374.518 117.667 371.306 117.43C368.095 117.193 365.684 114.396 365.92 111.182C366.157 107.968 368.953 105.555 372.164 105.791C375.375 106.028 377.786 108.825 377.55 112.04Z" fill="#9999F1"/>
<path d="M369.156 111.695L371.283 114.085L374.645 110.18" stroke="white" stroke-width="2.15467" stroke-miterlimit="10" stroke-linecap="round" stroke-linejoin="round"/>
<path d="M359.663 111.403C359.663 112.178 359.035 112.807 358.261 112.807C357.487 112.807 356.859 112.178 356.859 111.403C356.859 110.629 357.487 110 358.261 110C359.035 110 359.663 110.629 359.663 111.403Z" fill="#9999F1"/>
<g opacity="0.300003">
<g opacity="0.300003">
<path opacity="0.300003" d="M312.454 14.9003C312.454 15.6753 311.826 16.3036 311.052 16.3036C310.278 16.3036 309.65 15.6753 309.65 14.9003C309.65 14.1254 310.278 13.497 311.052 13.497C311.826 13.497 312.454 14.1254 312.454 14.9003Z" fill="#9999F1"/>
</g>
</g>
<path d="M84.0822 142.845C84.0822 144.082 83.0806 145.084 81.8448 145.084C80.6091 145.084 79.6074 144.082 79.6074 142.845C79.6074 141.608 80.6091 140.606 81.8448 140.606C83.0806 140.606 84.0822 141.608 84.0822 142.845Z" fill="#9999F1"/>
<g opacity="0.300003">
<g opacity="0.300003">
<path opacity="0.300003" d="M424.181 165.512C424.181 167.414 422.64 168.957 420.74 168.957C418.838 168.957 417.298 167.414 417.298 165.512C417.298 163.61 418.838 162.068 420.74 162.068C422.64 162.068 424.181 163.61 424.181 165.512Z" fill="#9999F1"/>
</g>
</g>
<g opacity="0.300003">
<g opacity="0.300003">
<path opacity="0.300003" d="M47.912 117.943C47.912 119.845 46.3715 121.387 44.471 121.387C42.5697 121.387 41.0293 119.845 41.0293 117.943C41.0293 116.041 42.5697 114.498 44.471 114.498C46.3715 114.498 47.912 116.041 47.912 117.943Z" fill="#9999F1"/>
</g>
</g>
<g opacity="0.300003">
<g opacity="0.300003">
<path opacity="0.300003" d="M395.915 196.565C395.915 197.802 394.914 198.805 393.678 198.805C392.442 198.805 391.44 197.802 391.44 196.565C391.44 195.329 392.442 194.326 393.678 194.326C394.914 194.326 395.915 195.329 395.915 196.565Z" fill="#9999F1"/>
</g>
</g>
<g opacity="0.300003">
<g opacity="0.300003">
<path opacity="0.300003" d="M221.302 23.0107C221.302 24.2474 220.3 25.2499 219.065 25.2499C217.829 25.2499 216.827 24.2474 216.827 23.0107C216.827 21.7739 217.829 20.7714 219.065 20.7714C220.3 20.7714 221.302 21.7739 221.302 23.0107Z" fill="#9999F1"/>
</g>
</g>
<g opacity="0.199997">
<g opacity="0.199997">
<path opacity="0.199997" d="M262.951 11.7741C262.951 13.0109 261.95 14.0133 260.714 14.0133C259.478 14.0133 258.477 13.0109 258.477 11.7741C258.477 10.5373 259.478 9.53488 260.714 9.53488C261.95 9.53488 262.951 10.5373 262.951 11.7741Z" fill="#9999F1"/>
</g>
</g>
<path d="M41.7342 87.6313C41.4877 87.6313 41.2871 87.4306 41.2871 87.1839V84.0272C41.2871 83.7806 41.4877 83.5798 41.7342 83.5798C41.9813 83.5798 42.1812 83.7806 42.1812 84.0272V87.1839C42.1812 87.4306 41.9813 87.6313 41.7342 87.6313Z" fill="#9999F1"/>
<path d="M43.3119 86.053H40.157C39.9106 86.053 39.71 85.8522 39.71 85.6055C39.71 85.3589 39.9106 85.1581 40.157 85.1581H43.3119C43.5583 85.1581 43.7589 85.3589 43.7589 85.6055C43.7589 85.8522 43.5583 86.053 43.3119 86.053Z" fill="#9999F1"/>
<g opacity="0.300003">
<g opacity="0.300003">
<path opacity="0.300003" d="M66.4861 8.2981C66.2397 8.2981 66.0391 8.09733 66.0391 7.85066V4.69398C66.0391 4.44663 66.2397 4.24655 66.4861 4.24655C66.7326 4.24655 66.9332 4.44663 66.9332 4.69398V7.85066C66.9332 8.09733 66.7326 8.2981 66.4861 8.2981Z" fill="#9999F1"/>
</g>
<g opacity="0.300003">
<path opacity="0.300003" d="M68.0638 6.71948H64.909C64.6625 6.71948 64.4619 6.51872 64.4619 6.27205C64.4619 6.02538 64.6625 5.82462 64.909 5.82462H68.0638C68.3103 5.82462 68.5109 6.02538 68.5109 6.27205C68.5109 6.51872 68.3103 6.71948 68.0638 6.71948Z" fill="#9999F1"/>
</g>
</g>
<path d="M328.914 46.0786C328.667 46.0786 328.467 45.8779 328.467 45.6312V42.4745C328.467 42.2278 328.667 42.0271 328.914 42.0271C329.16 42.0271 329.361 42.2278 329.361 42.4745V45.6312C329.361 45.8779 329.16 46.0786 328.914 46.0786Z" fill="#9999F1"/>
<path d="M330.49 44.5002H327.335C327.089 44.5002 326.889 44.2995 326.889 44.0528C326.889 43.8061 327.089 43.6054 327.335 43.6054H330.49C330.736 43.6054 330.937 43.8061 330.937 44.0528C330.937 44.2995 330.736 44.5002 330.49 44.5002Z" fill="#9999F1"/>
<path d="M426.205 212.726C425.958 212.726 425.758 212.525 425.758 212.279V209.122C425.758 208.875 425.958 208.675 426.205 208.675C426.451 208.675 426.652 208.875 426.652 209.122V212.279C426.652 212.525 426.451 212.726 426.205 212.726Z" fill="#9999F1"/>
<path d="M427.782 211.148H424.627C424.38 211.148 424.18 210.947 424.18 210.7C424.18 210.453 424.38 210.253 424.627 210.253H427.782C428.029 210.253 428.229 210.453 428.229 210.7C428.229 210.947 428.029 211.148 427.782 211.148Z" fill="#9999F1"/>
<path d="M320.967 86.4683V110.545C320.967 110.952 320.638 111.281 320.232 111.281H296.434C296.036 111.281 295.707 110.952 295.707 110.545V86.4683C295.707 86.0702 296.036 85.7406 296.434 85.7406H320.232C320.638 85.7406 320.967 86.0702 320.967 86.4683Z" fill="white"/>
<path d="M320.966 106.032V110.544C320.966 110.951 320.637 111.28 320.231 111.28H308.427L308.929 106.032L314.484 99.8833L320.966 106.032Z" fill="#9999F1"/>
<path d="M317.661 111.281H296.434C296.036 111.281 295.707 110.952 295.707 110.545V106.033L304.014 97.3073L317.661 111.281Z" fill="#8787DD"/>
<path d="M317.625 92.6498C317.625 94.2682 316.314 95.5811 314.696 95.5811C313.079 95.5811 311.768 94.2682 311.768 92.6498C311.768 91.0307 313.079 89.7185 314.696 89.7185C316.314 89.7185 317.625 91.0307 317.625 92.6498Z" fill="#9999F1"/>
<path d="M320.425 115.41H296.249C295.949 115.41 295.707 115.167 295.707 114.868V113.72C295.707 113.421 295.949 113.178 296.249 113.178H320.425C320.724 113.178 320.966 113.421 320.966 113.72V114.868C320.966 115.167 320.724 115.41 320.425 115.41Z" fill="white"/>
<path d="M320.425 119.39H296.249C295.949 119.39 295.707 119.147 295.707 118.848V117.7C295.707 117.401 295.949 117.158 296.249 117.158H320.425C320.724 117.158 320.966 117.401 320.966 117.7V118.848C320.966 119.147 320.724 119.39 320.425 119.39Z" fill="white"/>
<defs>
<linearGradient id="paint0_linear_17_15288" x1="242.445" y1="77.2544" x2="242.445" y2="221.772" gradientUnits="userSpaceOnUse">
<stop stop-color="white"/>
<stop offset="1" stop-color="white"/>
</linearGradient>
<linearGradient id="paint1_linear_17_15288" x1="272.701" y1="77.2544" x2="272.701" y2="221.772" gradientUnits="userSpaceOnUse">
<stop stop-color="white"/>
<stop offset="1" stop-color="white"/>
</linearGradient>
</defs>
</svg>
