<svg width="201" height="335" viewBox="0 0 201 335" fill="none" xmlns="http://www.w3.org/2000/svg">
<g clip-path="url(#clip0_1_4491)">
<path d="M200.673 89.5439V334.627L0.327988 245.462V0.379883L72.133 32.3359L128.278 57.3259L200.673 89.5439Z" fill="#73CAFF" stroke="#101737" stroke-linejoin="bevel"/>
<path d="M95.627 170.682L95.548 170.76L95.43 170.702C95.0518 170.511 94.6676 170.332 94.278 170.165C83.595 165.51 74.301 170.669 72.178 182.421L72.139 182.643L71.825 182.499L71.641 182.414C65.033 179.534 59.387 183.226 58.686 190.821L139.419 225.985C141.96 222.129 143.401 217.094 143.571 211.418C144.108 193.662 132.437 173.936 117.477 167.435C109.028 163.742 101.063 164.927 95.627 170.682V170.682ZM200.673 107.653V156.363L145.51 132.336C146.218 124.741 151.864 121.055 158.472 123.929L158.649 124.014L158.964 124.165L159.009 123.942C161.132 112.158 170.426 107.031 181.108 111.68C181.495 111.85 181.875 112.033 182.255 112.217L182.379 112.282L182.458 112.197C187.088 107.28 193.586 105.702 200.673 107.653V107.653ZM131.454 75.082C131.284 80.765 129.843 85.799 127.302 89.655L46.569 54.491C47.269 46.897 52.916 43.211 59.524 46.085L59.708 46.17L60.022 46.314L60.062 46.091C61.476 38.235 66.068 33.364 72.132 32.343L128.277 57.333C130.481 62.9863 131.56 69.0153 131.454 75.082V75.082ZM200.673 246.444V293.688L150.717 271.932C151.425 264.338 157.071 260.652 163.679 263.526L163.863 263.611L164.177 263.761L164.216 263.539C166.339 251.754 175.633 246.628 186.315 251.276C186.702 251.446 187.082 251.63 187.468 251.813L187.586 251.879L187.665 251.793C189.316 250.012 191.335 248.611 193.581 247.688C195.827 246.764 198.247 246.34 200.673 246.444V246.444Z" fill="white" stroke="#101737" stroke-linejoin="bevel"/>
<path d="M200.417 314.77L30.195 237.043V13.933L0.399995 0.143L0.0789948 0V245.809L0.353995 245.731L200.607 334.856L200.928 335" fill="#0024B8"/>
</g>
<defs>
<clipPath id="clip0_1_4491">
<rect width="201" height="335" fill="white"/>
</clipPath>
</defs>
</svg>
