<svg width="28" height="28" viewBox="0 0 28 28" fill="none" xmlns="http://www.w3.org/2000/svg">
<path d="M4.66634 18.6668C3.37768 18.6668 2.33301 17.6222 2.33301 16.3335C2.33301 15.0448 3.37768 14.0002 4.66634 14.0002C5.95501 14.0002 6.99967 15.0448 6.99967 16.3335C6.99801 17.6215 5.95432 18.6652 4.66634 18.6668ZM4.66634 7.00016C3.37768 7.00016 2.33301 5.95549 2.33301 4.66683C2.33301 3.37816 3.37768 2.3335 4.66634 2.3335C5.95501 2.3335 6.99967 3.37816 6.99967 4.66683C6.99801 5.95481 5.95432 6.99849 4.66634 7.00016ZM16.333 7.00016C15.0443 7.00016 13.9997 5.95549 13.9997 4.66683C13.9997 3.37816 15.0443 2.3335 16.333 2.3335C17.6217 2.3335 18.6663 3.37816 18.6663 4.66683C18.6647 5.95481 17.621 6.99849 16.333 7.00016ZM16.333 18.6668C15.0443 18.6668 13.9997 17.6222 13.9997 16.3335C13.9997 15.0448 15.0443 14.0002 16.333 14.0002C17.6217 14.0002 18.6663 15.0448 18.6663 16.3335C18.6647 17.6215 17.621 18.6652 16.333 18.6668Z" fill="#F55302"/>
<path d="M11.6663 25.6668C10.3777 25.6668 9.33301 24.6222 9.33301 23.3335C9.33301 22.0448 10.3777 21.0002 11.6663 21.0002C12.955 21.0002 13.9997 22.0448 13.9997 23.3335C13.998 24.6215 12.9543 25.6652 11.6663 25.6668ZM11.6663 14.0002C10.3777 14.0002 9.33301 12.9555 9.33301 11.6668C9.33301 10.3782 10.3777 9.3335 11.6663 9.3335C12.955 9.3335 13.9997 10.3782 13.9997 11.6668C13.998 12.9548 12.9543 13.9985 11.6663 14.0002ZM23.333 14.0002C22.0443 14.0002 20.9997 12.9555 20.9997 11.6668C20.9997 10.3782 22.0443 9.3335 23.333 9.3335C24.6217 9.3335 25.6663 10.3782 25.6663 11.6668C25.6647 12.9548 24.621 13.9985 23.333 14.0002ZM23.333 25.6668C22.0443 25.6668 20.9997 24.6222 20.9997 23.3335C20.9997 22.0448 22.0443 21.0002 23.333 21.0002C24.6217 21.0002 25.6663 22.0448 25.6663 23.3335C25.6647 24.6215 24.621 25.6652 23.333 25.6668Z" fill="#F55302"/>
<path d="M14.3247 5.83333C13.8918 5.1158 13.8918 4.21753 14.3247 3.5H6.67529C7.10823 4.21753 7.10823 5.1158 6.67529 5.83333H14.3247ZM4.66667 14C5.07754 14.0023 5.48032 14.1145 5.83333 14.3247V6.67529C5.1158 7.10823 4.21753 7.10823 3.5 6.67529V14.3247C3.85301 14.1145 4.25579 14.0023 4.66667 14Z" fill="#3482F0"/>
<path d="M23.3333 20.9998C23.7442 21.0021 24.147 21.1142 24.5 21.3245V13.675C23.7825 14.108 22.8842 14.108 22.1667 13.675V21.3245C22.5197 21.1142 22.9225 21.0021 23.3333 20.9998ZM11.6667 20.9998C12.0775 21.0021 12.4803 21.1142 12.8333 21.3245V13.675C12.1158 14.108 11.2175 14.108 10.5 13.675V21.3245C10.853 21.1142 11.2558 21.0021 11.6667 20.9998Z" fill="#3582F0"/>
<path d="M14.3247 15.1665H12.8333V17.4998H14.3247C13.8918 16.7823 13.8918 15.884 14.3247 15.1665ZM10.5 17.4998V15.1665H6.67529C7.10823 15.884 7.10823 16.7823 6.67529 17.4998H10.5Z" fill="#3482F0"/>
<path d="M21.3247 22.1667H13.6753C14.1082 22.8842 14.1082 23.7825 13.6753 24.5H21.3247C20.8918 23.7825 20.8918 22.8842 21.3247 22.1667ZM21.3247 12.8333C20.8918 12.1158 20.8918 11.2175 21.3247 10.5H13.6753C14.1082 11.2175 14.1082 12.1158 13.6753 12.8333H21.3247Z" fill="#3582F0"/>
<path d="M17.5003 10.5002V6.67554C16.7828 7.10848 15.8845 7.10848 15.167 6.67554V10.5002H17.5003ZM15.167 12.8336V14.3249C15.8845 13.892 16.7828 13.892 17.5003 14.3249V12.8336H15.167Z" fill="#3482F0"/>
</svg>
