<svg width="28" height="28" viewBox="0 0 28 28" fill="none" xmlns="http://www.w3.org/2000/svg">
<path d="M22.1665 18.6666H5.83317C5.67995 18.6666 5.52822 18.6365 5.38666 18.5779C5.24509 18.5192 5.11647 18.4333 5.00812 18.325C4.89978 18.2166 4.81385 18.088 4.75523 17.9464C4.69661 17.8049 4.66646 17.6531 4.6665 17.4999V3.49992C4.66646 3.3467 4.69661 3.19497 4.75523 3.05341C4.81385 2.91184 4.89978 2.78321 5.00812 2.67487C5.11647 2.56653 5.24509 2.48059 5.38666 2.42198C5.52822 2.36336 5.67995 2.33321 5.83317 2.33325H22.1665C22.3197 2.33321 22.4714 2.36336 22.613 2.42198C22.7546 2.48059 22.8832 2.56653 22.9915 2.67487C23.0999 2.78321 23.1858 2.91184 23.2444 3.05341C23.3031 3.19497 23.3332 3.3467 23.3332 3.49992V17.4999C23.3332 17.6531 23.3031 17.8049 23.2444 17.9464C23.1858 18.088 23.0999 18.2166 22.9915 18.325C22.8832 18.4333 22.7546 18.5192 22.613 18.5779C22.4714 18.6365 22.3197 18.6666 22.1665 18.6666Z" fill="#3482F0"/>
<path d="M24.5002 4.66659H3.50016C3.19074 4.66659 2.894 4.54367 2.6752 4.32488C2.45641 4.10608 2.3335 3.80934 2.3335 3.49992C2.3335 3.1905 2.45641 2.89375 2.6752 2.67496C2.894 2.45617 3.19074 2.33325 3.50016 2.33325H24.5002C24.8096 2.33325 25.1063 2.45617 25.3251 2.67496C25.5439 2.89375 25.6668 3.1905 25.6668 3.49992C25.6668 3.80934 25.5439 4.10608 25.3251 4.32488C25.1063 4.54367 24.8096 4.66659 24.5002 4.66659ZM24.5002 18.6666H3.50016C3.19074 18.6666 2.894 18.5437 2.6752 18.3249C2.45641 18.1061 2.3335 17.8093 2.3335 17.4999C2.3335 17.1905 2.45641 16.8938 2.6752 16.675C2.894 16.4562 3.19074 16.3333 3.50016 16.3333H24.5002C24.8096 16.3333 25.1063 16.4562 25.3251 16.675C25.5439 16.8938 25.6668 17.1905 25.6668 17.4999C25.6668 17.8093 25.5439 18.1061 25.3251 18.3249C25.1063 18.5437 24.8096 18.6666 24.5002 18.6666Z" fill="#F55302"/>
<path d="M14.0002 25.6666C13.8469 25.6666 13.6952 25.6365 13.5537 25.5779C13.4121 25.5192 13.2835 25.4333 13.1751 25.325C13.0668 25.2166 12.9808 25.088 12.9222 24.9464C12.8636 24.8049 12.8335 24.6531 12.8335 24.4999V17.4999C12.8335 17.1905 12.9564 16.8938 13.1752 16.675C13.394 16.4562 13.6907 16.3333 14.0002 16.3333C14.3096 16.3333 14.6063 16.4562 14.8251 16.675C15.0439 16.8938 15.1668 17.1905 15.1668 17.4999V24.4999C15.1669 24.6531 15.1367 24.8049 15.0781 24.9464C15.0195 25.088 14.9336 25.2166 14.8252 25.325C14.7169 25.4333 14.5882 25.5192 14.4467 25.5779C14.3051 25.6365 14.1534 25.6666 14.0002 25.6666Z" fill="#F55302"/>
<path d="M19.8321 25.6666C19.6035 25.6667 19.38 25.5993 19.1895 25.473L13.3562 21.6118C13.228 21.5274 13.1178 21.4186 13.0317 21.2916C12.9457 21.1645 12.8856 21.0218 12.8548 20.8715C12.824 20.7212 12.8232 20.5663 12.8523 20.4156C12.8815 20.265 12.9401 20.1216 13.0247 19.9936C13.1094 19.8657 13.2184 19.7557 13.3457 19.6699C13.4729 19.5842 13.6158 19.5244 13.7662 19.4939C13.9165 19.4635 14.0714 19.463 14.222 19.4925C14.3726 19.522 14.5158 19.5809 14.6436 19.6658L20.4769 23.527C20.6861 23.6654 20.8452 23.8675 20.9304 24.1034C21.0157 24.3393 21.0226 24.5964 20.9502 24.8366C20.8779 25.0768 20.73 25.2872 20.5286 25.4367C20.3272 25.5863 20.0829 25.6669 19.8321 25.6666Z" fill="#F55302"/>
<path d="M8.16781 25.6667C7.91696 25.667 7.67272 25.5863 7.4713 25.4368C7.26988 25.2873 7.12201 25.0769 7.04963 24.8367C6.97724 24.5965 6.9842 24.3394 7.06946 24.1035C7.15471 23.8676 7.31374 23.6655 7.52294 23.527L13.3563 19.6659C13.6143 19.496 13.9293 19.4354 14.2319 19.4974C14.5346 19.5594 14.8004 19.7389 14.9708 19.9966C15.1413 20.2543 15.2026 20.5691 15.1413 20.8719C15.08 21.1747 14.901 21.4408 14.6437 21.6119L8.81038 25.473C8.61995 25.5995 8.3964 25.6669 8.16781 25.6667Z" fill="#F55302"/>
</svg>
