<svg width="28" height="28" viewBox="0 0 28 28" fill="none" xmlns="http://www.w3.org/2000/svg">
<path d="M1.75001 19.0984V23.7651C1.74785 24.4073 2.26669 24.9296 2.90887 24.9318C2.91147 24.9318 2.91407 24.9318 2.91667 24.9318H7.58334C8.22552 24.9339 8.74785 24.4151 8.75001 23.7729C8.75002 23.7703 8.75002 23.7677 8.75001 23.7651V19.0984H1.75001ZM7.58334 3.93178H2.91667C2.27312 3.93365 1.75187 4.45489 1.75001 5.09845V9.76511H8.75001V5.09845C8.74814 4.45489 8.2269 3.93365 7.58334 3.93178ZM26.5554 23.9746L22.0477 25.1824C21.4255 25.3493 20.7858 24.9802 20.6189 24.358C20.6189 24.3578 20.6188 24.3576 20.6188 24.3574L15.7875 6.32681C15.6207 5.70463 15.9897 5.06497 16.6119 4.89808C16.6121 4.89804 16.6123 4.89798 16.6125 4.89793L21.1202 3.69014C21.7423 3.52325 22.382 3.89233 22.5489 4.51449C22.5489 4.51469 22.549 4.51489 22.549 4.51509L27.3803 22.5457C27.5472 23.1679 27.1781 23.8075 26.5559 23.9744C26.5557 23.9745 26.5555 23.9745 26.5554 23.9746Z" fill="#F55302"/>
<path d="M8.75 9.76501H1.75V19.0984H8.75V9.76501Z" fill="#3482F0"/>
<path d="M19.4098 19.8454L20.6176 24.3531C20.7817 24.9739 21.4181 25.3442 22.0389 25.18C22.0415 25.1794 22.044 25.1787 22.0465 25.178L26.5541 23.9702C27.175 23.8061 27.5453 23.1697 27.3811 22.5488C27.3804 22.5463 27.3798 22.5438 27.3791 22.5413L26.1713 18.0337L19.4098 19.8454ZM21.119 3.68576L16.6113 4.89358C15.9902 5.06196 15.6216 5.70033 15.7863 6.32245L16.9942 10.8301L23.7556 9.01834L22.5478 4.51069C22.3794 3.88957 21.7411 3.52101 21.119 3.68576Z" fill="#3482F0"/>
<path d="M8.75001 19.0984V23.7651C8.74785 24.4073 9.26669 24.9296 9.90887 24.9318C9.91147 24.9318 9.91407 24.9318 9.91667 24.9318H14.5833C15.2255 24.9339 15.7478 24.4151 15.75 23.7729C15.75 23.7703 15.75 23.7677 15.75 23.7651V19.0984H8.75001ZM14.5833 3.93176H9.91667C9.27312 3.93363 8.75187 4.45487 8.75001 5.09843V9.7651H15.75V5.09843C15.7481 4.45487 15.2269 3.93363 14.5833 3.93176Z" fill="#F55302"/>
<path d="M15.75 9.76501H8.75V19.0984H15.75V9.76501Z" fill="#3482F0"/>
</svg>
