<svg width="28" height="28" viewBox="0 0 28 28" fill="none" xmlns="http://www.w3.org/2000/svg">
<path d="M17.5002 25.6666H10.5002C9.8562 25.667 9.33386 25.1453 9.3335 24.5013C9.3335 24.5008 9.3335 24.5004 9.3335 24.5V19.8333C9.33313 19.1893 9.85487 18.667 10.4988 18.6666C10.4993 18.6666 10.4997 18.6666 10.5002 18.6666H17.5002C18.1441 18.6663 18.6665 19.188 18.6668 19.832C18.6668 19.8324 18.6668 19.8328 18.6668 19.8333V24.5C18.6672 25.1439 18.1455 25.6663 17.5015 25.6666C17.501 25.6666 17.5006 25.6666 17.5002 25.6666Z" fill="#3482F0"/>
<path d="M22.1668 21H5.8335C3.90137 20.9979 2.33561 19.4322 2.3335 17.5V5.83337C2.33561 3.90125 3.90137 2.33549 5.8335 2.33337H22.1668C24.099 2.33549 25.6647 3.90125 25.6668 5.83337V17.5C25.6647 19.4322 24.099 20.9979 22.1668 21Z" fill="#3482F0"/>
<path d="M22.1668 21H5.8335C3.9005 21 2.3335 19.433 2.3335 17.5V15.1666H25.6668V17.5C25.6668 19.433 24.0998 21 22.1668 21ZM22.1668 25.6666H5.8335C5.18917 25.6666 4.66683 25.1443 4.66683 24.5C4.66683 23.8556 5.18917 23.3333 5.8335 23.3333H22.1668C22.8112 23.3333 23.3335 23.8556 23.3335 24.5C23.3335 25.1443 22.8112 25.6666 22.1668 25.6666Z" fill="#F55302"/>
</svg>
