<svg width="40" height="40" viewBox="0 0 40 40" fill="none" xmlns="http://www.w3.org/2000/svg">
<path d="M20.6202 38.3333C18.1645 38.3333 15.7339 37.84 13.4725 36.8826C11.2111 35.9252 9.16512 34.5233 7.45592 32.7601C5.74672 30.9968 4.40916 28.9082 3.52261 26.6181C2.63606 24.3281 2.21861 21.8832 2.29501 19.4287C2.42235 15.3489 3.90747 11.4282 6.51506 8.28782C9.12265 5.14746 12.7036 2.96703 16.6905 2.09199C20.6775 1.21695 24.8424 1.69734 28.5254 3.45704C32.2085 5.21675 35.199 8.15515 37.0232 11.8067C37.4183 12.605 37.6486 13.4747 37.7003 14.3639C37.7521 15.2532 37.6242 16.1437 37.3243 16.9825C37.0368 17.8078 36.5835 18.5657 35.9924 19.2094C35.4013 19.8532 34.6847 20.3693 33.8868 20.726C32.1567 21.4987 30.7418 22.8381 29.8754 24.5232C29.009 26.2084 28.743 28.1385 29.1212 29.9952C29.3083 30.9013 29.3141 31.8356 29.1384 32.744C28.9627 33.6524 28.6089 34.5171 28.0974 35.2881C27.6218 36.0009 27.0079 36.6108 26.2922 37.0819C25.5765 37.553 24.7735 37.8756 23.9308 38.0306C22.8387 38.2319 21.7306 38.3332 20.6202 38.3333Z" fill="#3482F0"/>
<path d="M20.62 11.6666C21.5405 11.6666 22.2867 10.9205 22.2867 9.99998C22.2867 9.0795 21.5405 8.33331 20.62 8.33331C19.6996 8.33331 18.9534 9.0795 18.9534 9.99998C18.9534 10.9205 19.6996 11.6666 20.62 11.6666Z" fill="#F55302"/>
<path d="M20.62 21.6666C21.5405 21.6666 22.2867 20.9205 22.2867 20C22.2867 19.0795 21.5405 18.3333 20.62 18.3333C19.6996 18.3333 18.9534 19.0795 18.9534 20C18.9534 20.9205 19.6996 21.6666 20.62 21.6666Z" fill="#F55302"/>
<path d="M20.62 31.6666C21.5405 31.6666 22.2867 30.9205 22.2867 30C22.2867 29.0795 21.5405 28.3333 20.62 28.3333C19.6996 28.3333 18.9534 29.0795 18.9534 30C18.9534 30.9205 19.6996 31.6666 20.62 31.6666Z" fill="#F55302"/>
<path d="M10.62 21.6666C11.5405 21.6666 12.2867 20.9205 12.2867 20C12.2867 19.0795 11.5405 18.3333 10.62 18.3333C9.69956 18.3333 8.95337 19.0795 8.95337 20C8.95337 20.9205 9.69956 21.6666 10.62 21.6666Z" fill="#F55302"/>
<path d="M13.5483 14.595C14.4687 14.595 15.2149 13.8488 15.2149 12.9283C15.2149 12.0078 14.4687 11.2617 13.5483 11.2617C12.6278 11.2617 11.8816 12.0078 11.8816 12.9283C11.8816 13.8488 12.6278 14.595 13.5483 14.595Z" fill="#F55302"/>
<path d="M13.5483 28.7384C14.4687 28.7384 15.2149 27.9922 15.2149 27.0717C15.2149 26.1512 14.4687 25.405 13.5483 25.405C12.6278 25.405 11.8816 26.1512 11.8816 27.0717C11.8816 27.9922 12.6278 28.7384 13.5483 28.7384Z" fill="#F55302"/>
<path d="M27.6916 14.595C28.612 14.595 29.3582 13.8488 29.3582 12.9283C29.3582 12.0078 28.612 11.2617 27.6916 11.2617C26.7711 11.2617 26.0249 12.0078 26.0249 12.9283C26.0249 13.8488 26.7711 14.595 27.6916 14.595Z" fill="#F55302"/>
</svg>
