<svg width="232" height="232" viewBox="0 0 232 232" fill="none" xmlns="http://www.w3.org/2000/svg">
<g filter="url(#filter0_d_162_773)">
<path d="M92 142C90.8133 142 89.6533 141.648 88.6666 140.989C87.6799 140.33 86.9109 139.392 86.4567 138.296C86.0026 137.2 85.8838 135.993 86.1153 134.829C86.3468 133.666 86.9182 132.596 87.7574 131.757C88.5965 130.918 89.6656 130.347 90.8295 130.115C91.9933 129.884 93.1997 130.003 94.2961 130.457C95.3925 130.911 96.3295 131.68 96.9888 132.667C97.6481 133.653 98 134.813 98 136C97.9979 137.591 97.3651 139.116 96.2404 140.24C95.1156 141.365 93.5907 141.998 92 142ZM92 94C90.8133 94 89.6533 93.6481 88.6666 92.9888C87.6799 92.3295 86.9109 91.3925 86.4567 90.2961C86.0026 89.1997 85.8838 87.9933 86.1153 86.8295C86.3468 85.6656 86.9182 84.5965 87.7574 83.7574C88.5965 82.9182 89.6656 82.3468 90.8295 82.1153C91.9933 81.8838 93.1997 82.0026 94.2961 82.4567C95.3925 82.9109 96.3295 83.6799 96.9888 84.6666C97.6481 85.6533 98 86.8133 98 88C97.9979 89.5907 97.3651 91.1156 96.2404 92.2404C95.1156 93.3651 93.5907 93.9979 92 94ZM140 94C138.813 94 137.653 93.6481 136.667 92.9888C135.68 92.3295 134.911 91.3925 134.457 90.2961C134.003 89.1997 133.884 87.9933 134.115 86.8295C134.347 85.6656 134.918 84.5965 135.757 83.7574C136.596 82.9182 137.666 82.3468 138.829 82.1153C139.993 81.8838 141.2 82.0026 142.296 82.4567C143.392 82.9109 144.33 83.6799 144.989 84.6666C145.648 85.6533 146 86.8133 146 88C145.998 89.5907 145.365 91.1156 144.24 92.2404C143.116 93.3651 141.591 93.9979 140 94ZM140 142C138.813 142 137.653 141.648 136.667 140.989C135.68 140.33 134.911 139.392 134.457 138.296C134.003 137.2 133.884 135.993 134.115 134.829C134.347 133.666 134.918 132.596 135.757 131.757C136.596 130.918 137.666 130.347 138.829 130.115C139.993 129.884 141.2 130.003 142.296 130.457C143.392 130.911 144.33 131.68 144.989 132.667C145.648 133.653 146 134.813 146 136C145.998 137.591 145.365 139.116 144.24 140.24C143.116 141.365 141.591 141.998 140 142Z" fill="#F55302"/>
<path d="M128 97H104C102.343 97 101 98.3431 101 100V124C101 125.657 102.343 127 104 127H128C129.657 127 131 125.657 131 124V100C131 98.3431 129.657 97 128 97Z" fill="#F55302"/>
<path d="M134.835 91C134.289 90.0947 134 89.0574 134 88C134 86.9426 134.289 85.9053 134.835 85H97.165C97.7113 85.9053 98 86.9426 98 88C98 89.0574 97.7113 90.0947 97.165 91H134.835ZM140 130C141.057 130.006 142.092 130.294 143 130.835V93.165C142.095 93.7113 141.057 94 140 94C138.943 94 137.905 93.7113 137 93.165V130.835C137.908 130.294 138.943 130.006 140 130ZM92 130C93.0565 130.006 94.0923 130.294 95 130.835V93.165C94.0947 93.7113 93.0574 94 92 94C90.9426 94 89.9053 93.7113 89 93.165V130.835C89.9077 130.294 90.9435 130.006 92 130ZM134.835 133H97.165C97.7113 133.905 98 134.943 98 136C98 137.057 97.7113 138.095 97.165 139H134.835C134.289 138.095 134 137.057 134 136C134 134.943 134.289 133.905 134.835 133Z" fill="#3482F0"/>
</g>
<defs>
<filter id="filter0_d_162_773" x="0" y="0" width="232" height="232" filterUnits="userSpaceOnUse" color-interpolation-filters="sRGB">
<feFlood flood-opacity="0" result="BackgroundImageFix"/>
<feColorMatrix in="SourceAlpha" type="matrix" values="0 0 0 0 0 0 0 0 0 0 0 0 0 0 0 0 0 0 127 0" result="hardAlpha"/>
<feOffset dy="4"/>
<feGaussianBlur stdDeviation="25"/>
<feColorMatrix type="matrix" values="0 0 0 0 0 0 0 0 0 0 0 0 0 0 0 0 0 0 0.06 0"/>
<feBlend mode="normal" in2="BackgroundImageFix" result="effect1_dropShadow_162_773"/>
<feBlend mode="normal" in="SourceGraphic" in2="effect1_dropShadow_162_773" result="shape"/>
</filter>
</defs>
</svg>
