<svg width="232" height="232" viewBox="0 0 232 232" fill="none" xmlns="http://www.w3.org/2000/svg">
<g filter="url(#filter0_d_162_788)">
<path d="M135.714 79H96.2857C94.3143 79 93 80.2019 93 82.0048V109.048C93 114.157 97.2714 118.063 102.857 118.063H109.429V126.476C105.486 129.782 105.157 135.491 108.771 139.097C112.386 142.703 118.629 143.003 122.571 139.698C126.514 136.392 126.843 130.683 123.229 127.077C122.9 126.777 122.571 126.476 122.571 126.476V118.063H129.143C134.729 118.063 139 114.157 139 109.048V82.0048C139 80.2019 137.686 79 135.714 79ZM116 136.092C114.029 136.092 112.714 134.89 112.714 133.087C112.714 131.284 114.029 130.082 116 130.082C117.971 130.082 119.286 131.284 119.286 133.087C119.286 134.89 117.971 136.092 116 136.092Z" fill="#3482F0"/>
<path d="M129.143 118H102.857C97.2714 118 93 114.1 93 109V103H139V109C139 114.1 134.729 118 129.143 118Z" fill="#F55302"/>
</g>
<defs>
<filter id="filter0_d_162_788" x="0" y="0" width="232" height="232" filterUnits="userSpaceOnUse" color-interpolation-filters="sRGB">
<feFlood flood-opacity="0" result="BackgroundImageFix"/>
<feColorMatrix in="SourceAlpha" type="matrix" values="0 0 0 0 0 0 0 0 0 0 0 0 0 0 0 0 0 0 127 0" result="hardAlpha"/>
<feOffset dy="4"/>
<feGaussianBlur stdDeviation="25"/>
<feColorMatrix type="matrix" values="0 0 0 0 0 0 0 0 0 0 0 0 0 0 0 0 0 0 0.06 0"/>
<feBlend mode="normal" in2="BackgroundImageFix" result="effect1_dropShadow_162_788"/>
<feBlend mode="normal" in="SourceGraphic" in2="effect1_dropShadow_162_788" result="shape"/>
</filter>
</defs>
</svg>
