<svg width="40" height="40" viewBox="0 0 40 40" fill="none" xmlns="http://www.w3.org/2000/svg">
<path d="M34 7.74194H6C2.6863 7.74194 0 10.4499 0 13.7903V19.276L13.6748 23.871H26.3252L40 19.276V13.7903C40 10.4499 37.3137 7.74194 34 7.74194Z" fill="#3482F0"/>
<path d="M16 7.95699V5.94982H24V7.95699H28V5.94982C27.9975 3.73381 26.2081 1.93801 24 1.93549H16C13.7919 1.93801 12.0025 3.73381 12 5.94982V7.95699H16ZM13.6748 24.0143L0 19.4397V32.043C0.00362 35.3671 2.68778 38.0609 6 38.0645H34C37.3122 38.0609 39.9964 35.3671 40 32.043V19.4397L26.3252 24.0143H13.6748Z" fill="#F55302"/>
</svg>
