<svg width="40" height="40" viewBox="0 0 40 40" fill="none" xmlns="http://www.w3.org/2000/svg">
<g clip-path="url(#clip0_637_3273)">
<path d="M6.66659 35.6666C6.00732 35.6666 5.36285 35.4711 4.81469 35.1049C4.26652 34.7386 3.83928 34.218 3.58699 33.6089C3.3347 32.9998 3.26869 32.3296 3.3973 31.683C3.52592 31.0364 3.84339 30.4425 4.30956 29.9763C4.77574 29.5101 5.36968 29.1926 6.01629 29.064C6.66289 28.9354 7.33311 29.0014 7.9422 29.2537C8.55129 29.506 9.07188 29.9332 9.43815 30.4814C9.80442 31.0296 9.99992 31.674 9.99992 32.3333C9.99877 33.217 9.64722 34.0642 9.02234 34.6891C8.39747 35.3139 7.55029 35.6655 6.66659 35.6666ZM6.66659 8.99998C6.00732 8.99998 5.36285 8.80448 4.81469 8.43821C4.26652 8.07194 3.83928 7.55135 3.58699 6.94226C3.3347 6.33317 3.26869 5.66295 3.3973 5.01635C3.52592 4.36974 3.84339 3.7758 4.30956 3.30962C4.77574 2.84345 5.36968 2.52598 6.01629 2.39736C6.66289 2.26875 7.33311 2.33476 7.9422 2.58705C8.55129 2.83934 9.07188 3.26658 9.43815 3.81475C9.80442 4.36291 9.99992 5.00738 9.99992 5.66665C9.99877 6.55035 9.64722 7.39753 9.02234 8.0224C8.39747 8.64728 7.55029 8.99883 6.66659 8.99998ZM33.3333 8.99998C32.674 8.99998 32.0295 8.80448 31.4813 8.43821C30.9332 8.07194 30.5059 7.55135 30.2537 6.94226C30.0014 6.33317 29.9353 5.66295 30.064 5.01635C30.1926 4.36974 30.5101 3.7758 30.9762 3.30962C31.4424 2.84345 32.0363 2.52598 32.683 2.39736C33.3296 2.26875 33.9998 2.33476 34.6089 2.58705C35.218 2.83934 35.7385 3.26658 36.1048 3.81475C36.4711 4.36291 36.6666 5.00738 36.6666 5.66665C36.6654 6.55035 36.3139 7.39753 35.689 8.0224C35.0641 8.64728 34.217 8.99883 33.3333 8.99998ZM33.3333 35.6666C32.674 35.6666 32.0295 35.4711 31.4813 35.1049C30.9332 34.7386 30.5059 34.218 30.2537 33.6089C30.0014 32.9998 29.9353 32.3296 30.064 31.683C30.1926 31.0364 30.5101 30.4425 30.9762 29.9763C31.4424 29.5101 32.0363 29.1926 32.683 29.064C33.3296 28.9354 33.9998 29.0014 34.6089 29.2537C35.218 29.506 35.7385 29.9332 36.1048 30.4814C36.4711 31.0296 36.6666 31.674 36.6666 32.3333C36.6654 33.217 36.3139 34.0642 35.689 34.6891C35.0641 35.3139 34.217 35.6655 33.3333 35.6666Z" fill="#F55302"/>
<path d="M26.6667 10.6667H13.3334C12.4129 10.6667 11.6667 11.4129 11.6667 12.3334V25.6667C11.6667 26.5872 12.4129 27.3334 13.3334 27.3334H26.6667C27.5872 27.3334 28.3334 26.5872 28.3334 25.6667V12.3334C28.3334 11.4129 27.5872 10.6667 26.6667 10.6667Z" fill="#F55302"/>
<path d="M30.4639 7.33333C30.1604 6.83037 30 6.25409 30 5.66667C30 5.07924 30.1604 4.50296 30.4639 4H9.53613C9.83961 4.50296 10 5.07924 10 5.66667C10 6.25409 9.83961 6.83037 9.53613 7.33333H30.4639ZM33.3333 29C33.9203 29.0034 34.4957 29.1635 35 29.4639V8.53613C34.497 8.83961 33.9208 9 33.3333 9C32.7459 9 32.1696 8.83961 31.6667 8.53613V29.4639C32.171 29.1635 32.7464 29.0034 33.3333 29ZM6.66667 29C7.25363 29.0034 7.82903 29.1635 8.33333 29.4639V8.53613C7.83037 8.83961 7.25409 9 6.66667 9C6.07924 9 5.50296 8.83961 5 8.53613V29.4639C5.5043 29.1635 6.0797 29.0034 6.66667 29ZM30.4639 30.6667H9.53613C9.83961 31.1696 10 31.7459 10 32.3333C10 32.9208 9.83961 33.497 9.53613 34H30.4639C30.1604 33.497 30 32.9208 30 32.3333C30 31.7459 30.1604 31.1696 30.4639 30.6667Z" fill="#3482F0"/>
</g>
<defs>
<clipPath id="clip0_637_3273">
<rect width="40" height="40" fill="white"/>
</clipPath>
</defs>
</svg>
