<svg width="232" height="232" viewBox="0 0 232 232" fill="none" xmlns="http://www.w3.org/2000/svg">
<g filter="url(#filter0_d_162_781)">
<path d="M137.7 92H94.3C89.1638 92 85 96.1973 85 101.375V109.878L106.196 117H125.804L147 109.878V101.375C147 96.1973 142.836 92 137.7 92Z" fill="#3482F0"/>
<path d="M109.8 92.3333V89.2222H122.2V92.3333H128.4V89.2222C128.396 85.7874 125.623 83.0039 122.2 83H109.8C106.377 83.0039 103.604 85.7874 103.6 89.2222V92.3333H109.8ZM106.196 117.222L85 110.131V129.667C85.0056 134.819 89.1661 138.994 94.3 139H137.7C142.834 138.994 146.994 134.819 147 129.667V110.131L125.804 117.222H106.196Z" fill="#F55302"/>
</g>
<defs>
<filter id="filter0_d_162_781" x="0" y="0" width="232" height="232" filterUnits="userSpaceOnUse" color-interpolation-filters="sRGB">
<feFlood flood-opacity="0" result="BackgroundImageFix"/>
<feColorMatrix in="SourceAlpha" type="matrix" values="0 0 0 0 0 0 0 0 0 0 0 0 0 0 0 0 0 0 127 0" result="hardAlpha"/>
<feOffset dy="4"/>
<feGaussianBlur stdDeviation="25"/>
<feColorMatrix type="matrix" values="0 0 0 0 0 0 0 0 0 0 0 0 0 0 0 0 0 0 0.06 0"/>
<feBlend mode="normal" in2="BackgroundImageFix" result="effect1_dropShadow_162_781"/>
<feBlend mode="normal" in="SourceGraphic" in2="effect1_dropShadow_162_781" result="shape"/>
</filter>
</defs>
</svg>
