<svg width="44" height="44" viewBox="0 0 44 44" fill="none" xmlns="http://www.w3.org/2000/svg">
<path d="M23.0715 32.8988C27.4243 29.7168 32.8878 28.4505 38.1965 29.3933C39.1955 29.5605 40.1409 28.8862 40.3082 27.8872C40.3249 27.7874 40.3333 27.6863 40.3333 27.585V5.58505C40.333 4.68972 39.6864 3.92542 38.8035 3.77678C37.4923 3.54825 36.1643 3.42967 34.8333 3.42228C30.2815 3.41654 25.825 4.7262 22 7.19369V33.2444C22.3846 33.2445 22.7595 33.1236 23.0715 32.8988Z" fill="#3482F0"/>
<path d="M9.16666 3.42228C7.83571 3.42967 6.50772 3.54825 5.19652 3.77678C4.31362 3.92542 3.667 4.68972 3.66666 5.58505V27.585C3.66699 28.598 4.48839 29.4188 5.50129 29.4185C5.60253 29.4184 5.7036 29.41 5.80346 29.3933C6.91406 29.1981 8.03906 29.0963 9.16666 29.089C13.3911 29.0857 17.5082 30.4193 20.9285 32.8988C21.2405 33.1236 21.6154 33.2445 22 33.2444V7.19369C18.175 4.7262 13.7185 3.41654 9.16666 3.42228Z" fill="#F55302"/>
<path d="M38.8035 33.1101C37.4923 32.8816 36.1643 32.763 34.8333 32.7556C30.2815 32.7499 25.825 34.0596 22 36.527V40.5777C22.3846 40.5778 22.7595 40.457 23.0715 40.2322C27.4243 37.0501 32.8878 35.7839 38.1965 36.7266C39.1949 36.8958 40.1414 36.2235 40.3105 35.2251C40.4797 34.2266 39.8074 33.2802 38.809 33.111C38.8071 33.1107 38.8053 33.1104 38.8035 33.1101Z" fill="#F55302"/>
<path d="M9.16668 32.7556C7.83577 32.763 6.50776 32.8816 5.19654 33.1101C5.19463 33.1104 5.19286 33.1107 5.19095 33.111C4.19248 33.2802 3.52032 34.2266 3.68939 35.2251C3.85859 36.2236 4.80501 36.8957 5.80348 36.7267C6.91406 36.5314 8.03909 36.4296 9.16668 36.4223C13.3912 36.419 17.5082 37.7526 20.9285 40.2322C21.2406 40.457 21.6154 40.5778 22 40.5777V36.527C18.175 34.0596 13.7185 32.7499 9.16668 32.7556Z" fill="#3482F0"/>
</svg>
